<svg width="317" height="238" viewBox="0 0 317 238" fill="none" xmlns="http://www.w3.org/2000/svg">
<g clip-path="url(#clip0_2129_428)">
<ellipse cx="153.5" cy="151" rx="102.5" ry="33" fill="#D9D9D9" fill-opacity="0.6"/>
<mask id="mask0_2129_428" style="mask-type:luminance" maskUnits="userSpaceOnUse" x="59" y="14" width="243" height="163">
<path d="M301.782 14.4H59.4268V176.773H301.782V14.4Z" fill="white"/>
</mask>
<g mask="url(#mask0_2129_428)">
<path d="M81.3974 155.362C82.9788 155.362 84.4956 154.734 85.6138 153.616C86.732 152.497 87.3603 150.981 87.3603 149.399C87.3603 147.818 86.732 146.301 85.6138 145.183C84.4956 144.065 82.9788 143.436 81.3974 143.436C79.8161 143.436 78.2992 144.065 77.181 145.183C76.0629 146.301 75.4346 147.818 75.4346 149.399C75.4346 150.981 76.0629 152.497 77.181 153.616C78.2992 154.734 79.8161 155.362 81.3974 155.362Z" fill="#0000FF" fill-opacity="0.5" stroke="black" stroke-opacity="0.5" stroke-width="1.33333"/>
<path d="M70.4428 164.083C72.0242 164.083 73.541 163.454 74.6592 162.336C75.7774 161.218 76.4057 159.701 76.4057 158.12C76.4057 156.539 75.7774 155.022 74.6592 153.904C73.541 152.785 72.0242 152.157 70.4428 152.157C68.8615 152.157 67.3447 152.785 66.2265 153.904C65.1083 155.022 64.48 156.539 64.48 158.12C64.48 159.701 65.1083 161.218 66.2265 162.336C67.3447 163.454 68.8615 164.083 70.4428 164.083Z" fill="#0000FF" fill-opacity="0.5" stroke="black" stroke-opacity="0.5" stroke-width="1.33333"/>
<path d="M142.282 162.807C143.863 162.807 145.38 162.178 146.498 161.06C147.616 159.942 148.245 158.425 148.245 156.844C148.245 155.262 147.616 153.746 146.498 152.627C145.38 151.509 143.863 150.881 142.282 150.881C140.7 150.881 139.184 151.509 138.065 152.627C136.947 153.746 136.319 155.262 136.319 156.844C136.319 158.425 136.947 159.942 138.065 161.06C139.184 162.178 140.7 162.807 142.282 162.807Z" fill="#0000FF" fill-opacity="0.5" stroke="black" stroke-opacity="0.5" stroke-width="1.33333"/>
<path d="M108.713 173.229C110.295 173.229 111.812 172.6 112.93 171.482C114.048 170.364 114.676 168.847 114.676 167.266C114.676 165.685 114.048 164.168 112.93 163.05C111.812 161.931 110.295 161.303 108.713 161.303C107.132 161.303 105.615 161.931 104.497 163.05C103.379 164.168 102.75 165.685 102.75 167.266C102.75 168.847 103.379 170.364 104.497 171.482C105.615 172.6 107.132 173.229 108.713 173.229Z" fill="#0000FF" fill-opacity="0.5" stroke="black" stroke-opacity="0.5" stroke-width="1.33333"/>
<path d="M194.486 175.356C196.068 175.356 197.584 174.727 198.703 173.609C199.821 172.491 200.449 170.974 200.449 169.393C200.449 167.811 199.821 166.295 198.703 165.176C197.584 164.058 196.068 163.43 194.486 163.43C192.905 163.43 191.388 164.058 190.27 165.176C189.152 166.295 188.523 167.811 188.523 169.393C188.523 170.974 189.152 172.491 190.27 173.609C191.388 174.727 192.905 175.356 194.486 175.356Z" fill="#0000FF" fill-opacity="0.5" stroke="black" stroke-opacity="0.5" stroke-width="1.33333"/>
<path d="M117.673 54.5434C119.254 54.5434 120.771 53.9151 121.889 52.7969C123.007 51.6787 123.636 50.1619 123.636 48.5805C123.636 46.9992 123.007 45.4824 121.889 44.3642C120.771 43.246 119.254 42.6177 117.673 42.6177C116.091 42.6177 114.575 43.246 113.456 44.3642C112.338 45.4824 111.71 46.9992 111.71 48.5805C111.71 50.1619 112.338 51.6787 113.456 52.7969C114.575 53.9151 116.091 54.5434 117.673 54.5434Z" fill="#0000FF" fill-opacity="0.5" stroke="black" stroke-opacity="0.5" stroke-width="1.33333"/>
<path d="M117.757 46.4609C119.338 46.4609 120.855 45.8326 121.973 44.7144C123.091 43.5962 123.72 42.0794 123.72 40.498C123.72 38.9167 123.091 37.3998 121.973 36.2816C120.855 35.1635 119.338 34.5352 117.757 34.5352C116.175 34.5352 114.659 35.1635 113.54 36.2816C112.422 37.3998 111.794 38.9167 111.794 40.498C111.794 42.0794 112.422 43.5962 113.54 44.7144C114.659 45.8326 116.175 46.4609 117.757 46.4609Z" fill="#0000FF" fill-opacity="0.5" stroke="black" stroke-opacity="0.5" stroke-width="1.33333"/>
<path d="M117.872 42.845C119.453 42.845 120.97 42.2167 122.088 41.0985C123.206 39.9803 123.834 38.4635 123.834 36.8822C123.834 35.3008 123.206 33.784 122.088 32.6658C120.97 31.5476 119.453 30.9193 117.872 30.9193C116.29 30.9193 114.773 31.5476 113.655 32.6658C112.537 33.784 111.909 35.3008 111.909 36.8822C111.909 38.4635 112.537 39.9803 113.655 41.0985C114.773 42.2167 116.29 42.845 117.872 42.845Z" fill="#0000FF" fill-opacity="0.5" stroke="black" stroke-opacity="0.5" stroke-width="1.33333"/>
<path d="M158.864 33.0609C160.445 33.0609 161.962 32.4326 163.08 31.3144C164.198 30.1962 164.827 28.6794 164.827 27.0981C164.827 25.5167 164.198 23.9999 163.08 22.8817C161.962 21.7635 160.445 21.1352 158.864 21.1352C157.282 21.1352 155.766 21.7635 154.647 22.8817C153.529 23.9999 152.901 25.5167 152.901 27.0981C152.901 28.6794 153.529 30.1962 154.647 31.3144C155.766 32.4326 157.282 33.0609 158.864 33.0609Z" fill="#0000FF" fill-opacity="0.5" stroke="black" stroke-opacity="0.5" stroke-width="1.33333"/>
<path d="M117.659 53.4799C119.241 53.4799 120.757 52.8516 121.876 51.7334C122.994 50.6152 123.622 49.0984 123.622 47.517C123.622 45.9357 122.994 44.4189 121.876 43.3007C120.757 42.1825 119.241 41.5542 117.659 41.5542C116.078 41.5542 114.561 42.1825 113.443 43.3007C112.325 44.4189 111.696 45.9357 111.696 47.517C111.696 49.0984 112.325 50.6152 113.443 51.7334C114.561 52.8516 116.078 53.4799 117.659 53.4799Z" fill="#0000FF" fill-opacity="0.5" stroke="black" stroke-opacity="0.5" stroke-width="1.33333"/>
<path d="M119.398 77.302C120.979 77.302 122.496 76.6738 123.614 75.5556C124.732 74.4374 125.361 72.9206 125.361 71.3392C125.361 69.7578 124.732 68.241 123.614 67.1228C122.496 66.0046 120.979 65.3763 119.398 65.3763C117.817 65.3763 116.3 66.0046 115.182 67.1228C114.063 68.241 113.435 69.7578 113.435 71.3392C113.435 72.9206 114.063 74.4374 115.182 75.5556C116.3 76.6738 117.817 77.302 119.398 77.302Z" fill="#0000FF" fill-opacity="0.5" stroke="black" stroke-opacity="0.5" stroke-width="1.33333"/>
<path d="M119.398 77.302C120.979 77.302 122.496 76.6738 123.614 75.5556C124.732 74.4374 125.361 72.9206 125.361 71.3392C125.361 69.7578 124.732 68.241 123.614 67.1228C122.496 66.0046 120.979 65.3763 119.398 65.3763C117.817 65.3763 116.3 66.0046 115.182 67.1228C114.063 68.241 113.435 69.7578 113.435 71.3392C113.435 72.9206 114.063 74.4374 115.182 75.5556C116.3 76.6738 117.817 77.302 119.398 77.302Z" fill="#0000FF" fill-opacity="0.5" stroke="black" stroke-opacity="0.5" stroke-width="1.33333"/>
<path d="M96.6943 31.9974C98.2757 31.9974 99.7925 31.3691 100.911 30.2509C102.029 29.1327 102.657 27.6159 102.657 26.0346C102.657 24.4532 102.029 22.9364 100.911 21.8182C99.7925 20.7 98.2757 20.0717 96.6943 20.0717C95.1129 20.0717 93.5961 20.7 92.4779 21.8182C91.3597 22.9364 90.7314 24.4532 90.7314 26.0346C90.7314 27.6159 91.3597 29.1327 92.4779 30.2509C93.5961 31.3691 95.1129 31.9974 96.6943 31.9974Z" fill="#0000FF" fill-opacity="0.5" stroke="black" stroke-opacity="0.5" stroke-width="1.33333"/>
<path d="M96.6943 78.7909C98.2757 78.7909 99.7925 78.1626 100.911 77.0444C102.029 75.9262 102.657 74.4094 102.657 72.8281C102.657 71.2467 102.029 69.7299 100.911 68.6117C99.7925 67.4935 98.2757 66.8652 96.6943 66.8652C95.1129 66.8652 93.5961 67.4935 92.4779 68.6117C91.3597 69.7299 90.7314 71.2467 90.7314 72.8281C90.7314 74.4094 91.3597 75.9262 92.4779 77.0444C93.5961 78.1626 95.1129 78.7909 96.6943 78.7909Z" fill="#0000FF" fill-opacity="0.5" stroke="black" stroke-opacity="0.5" stroke-width="1.33333"/>
<path d="M96.6943 29.8704C98.2757 29.8704 99.7925 29.2422 100.911 28.124C102.029 27.0058 102.657 25.489 102.657 23.9076C102.657 22.3262 102.029 20.8094 100.911 19.6912C99.7925 18.573 98.2757 17.9447 96.6943 17.9447C95.1129 17.9447 93.5961 18.573 92.4779 19.6912C91.3597 20.8094 90.7314 22.3262 90.7314 23.9076C90.7314 25.489 91.3597 27.0058 92.4779 28.124C93.5961 29.2422 95.1129 29.8704 96.6943 29.8704Z" fill="#0000FF" fill-opacity="0.5" stroke="black" stroke-opacity="0.5" stroke-width="1.33333"/>
<path d="M96.6943 58.7973C98.2757 58.7973 99.7925 58.1691 100.911 57.0509C102.029 55.9327 102.657 54.4159 102.657 52.8345C102.657 51.2531 102.029 49.7363 100.911 48.6181C99.7925 47.4999 98.2757 46.8716 96.6943 46.8716C95.1129 46.8716 93.5961 47.4999 92.4779 48.6181C91.3597 49.7363 90.7314 51.2531 90.7314 52.8345C90.7314 54.4159 91.3597 55.9327 92.4779 57.0509C93.5961 58.1691 95.1129 58.7973 96.6943 58.7973Z" fill="#0000FF" fill-opacity="0.5" stroke="black" stroke-opacity="0.5" stroke-width="1.33333"/>
<path d="M96.6943 35.4006C98.2757 35.4006 99.7925 34.7723 100.911 33.6541C102.029 32.5359 102.657 31.0191 102.657 29.4377C102.657 27.8564 102.029 26.3396 100.911 25.2214C99.7925 24.1032 98.2757 23.4749 96.6943 23.4749C95.1129 23.4749 93.5961 24.1032 92.4779 25.2214C91.3597 26.3396 90.7314 27.8564 90.7314 29.4377C90.7314 31.0191 91.3597 32.5359 92.4779 33.6541C93.5961 34.7723 95.1129 35.4006 96.6943 35.4006Z" fill="#0000FF" fill-opacity="0.5" stroke="black" stroke-opacity="0.5" stroke-width="1.33333"/>
<path d="M96.6943 27.7435C98.2757 27.7435 99.7925 27.1152 100.911 25.997C102.029 24.8788 102.657 23.362 102.657 21.7806C102.657 20.1992 102.029 18.6824 100.911 17.5642C99.7925 16.446 98.2757 15.8178 96.6943 15.8178C95.1129 15.8178 93.5961 16.446 92.4779 17.5642C91.3597 18.6824 90.7314 20.1992 90.7314 21.7806C90.7314 23.362 91.3597 24.8788 92.4779 25.997C93.5961 27.1152 95.1129 27.7435 96.6943 27.7435Z" fill="#0000FF" fill-opacity="0.5" stroke="black" stroke-opacity="0.5" stroke-width="1.33333"/>
<path d="M96.6943 56.6704C98.2757 56.6704 99.7925 56.0421 100.911 54.9239C102.029 53.8057 102.657 52.2889 102.657 50.7075C102.657 49.1261 102.029 47.6093 100.911 46.4911C99.7925 45.3729 98.2757 44.7447 96.6943 44.7447C95.1129 44.7447 93.5961 45.3729 92.4779 46.4911C91.3597 47.6093 90.7314 49.1261 90.7314 50.7075C90.7314 52.2889 91.3597 53.8057 92.4779 54.9239C93.5961 56.0421 95.1129 56.6704 96.6943 56.6704Z" fill="#0000FF" fill-opacity="0.5" stroke="black" stroke-opacity="0.5" stroke-width="1.33333"/>
<path d="M96.6943 85.5973C98.2757 85.5973 99.7925 84.969 100.911 83.8508C102.029 82.7326 102.657 81.2158 102.657 79.6344C102.657 78.053 102.029 76.5362 100.911 75.418C99.7925 74.2998 98.2757 73.6716 96.6943 73.6716C95.1129 73.6716 93.5961 74.2998 92.4779 75.418C91.3597 76.5362 90.7314 78.053 90.7314 79.6344C90.7314 81.2158 91.3597 82.7326 92.4779 83.8508C93.5961 84.969 95.1129 85.5973 96.6943 85.5973Z" fill="#0000FF" fill-opacity="0.5" stroke="black" stroke-opacity="0.5" stroke-width="1.33333"/>
<path d="M96.6943 83.683C98.2757 83.683 99.7925 83.0547 100.911 81.9365C102.029 80.8183 102.657 79.3015 102.657 77.7201C102.657 76.1388 102.029 74.622 100.911 73.5038C99.7925 72.3856 98.2757 71.7573 96.6943 71.7573C95.1129 71.7573 93.5961 72.3856 92.4779 73.5038C91.3597 74.622 90.7314 76.1388 90.7314 77.7201C90.7314 79.3015 91.3597 80.8183 92.4779 81.9365C93.5961 83.0547 95.1129 83.683 96.6943 83.683Z" fill="#0000FF" fill-opacity="0.5" stroke="black" stroke-opacity="0.5" stroke-width="1.33333"/>
<path d="M96.6943 83.683C98.2757 83.683 99.7925 83.0547 100.911 81.9365C102.029 80.8183 102.657 79.3015 102.657 77.7201C102.657 76.1388 102.029 74.622 100.911 73.5038C99.7925 72.3856 98.2757 71.7573 96.6943 71.7573C95.1129 71.7573 93.5961 72.3856 92.4779 73.5038C91.3597 74.622 90.7314 76.1388 90.7314 77.7201C90.7314 79.3015 91.3597 80.8183 92.4779 81.9365C93.5961 83.0547 95.1129 83.683 96.6943 83.683Z" fill="#0000FF" fill-opacity="0.5" stroke="black" stroke-opacity="0.5" stroke-width="1.33333"/>
<path d="M96.6943 84.3211C98.2757 84.3211 99.7925 83.6928 100.911 82.5746C102.029 81.4564 102.657 79.9396 102.657 78.3582C102.657 76.7769 102.029 75.26 100.911 74.1418C99.7925 73.0237 98.2757 72.3954 96.6943 72.3954C95.1129 72.3954 93.5961 73.0237 92.4779 74.1418C91.3597 75.26 90.7314 76.7769 90.7314 78.3582C90.7314 79.9396 91.3597 81.4564 92.4779 82.5746C93.5961 83.6928 95.1129 84.3211 96.6943 84.3211Z" fill="#0000FF" fill-opacity="0.5" stroke="black" stroke-opacity="0.5" stroke-width="1.33333"/>
<path d="M96.6943 109.632C98.2757 109.632 99.7925 109.004 100.911 107.886C102.029 106.767 102.657 105.251 102.657 103.669C102.657 102.088 102.029 100.571 100.911 99.4529C99.7925 98.3347 98.2757 97.7064 96.6943 97.7064C95.1129 97.7064 93.5961 98.3347 92.4779 99.4529C91.3597 100.571 90.7314 102.088 90.7314 103.669C90.7314 105.251 91.3597 106.767 92.4779 107.886C93.5961 109.004 95.1129 109.632 96.6943 109.632Z" fill="#0000FF" fill-opacity="0.5" stroke="black" stroke-opacity="0.5" stroke-width="1.33333"/>
<path d="M96.6943 104.315C98.2757 104.315 99.7925 103.686 100.911 102.568C102.029 101.45 102.657 99.9332 102.657 98.3518C102.657 96.7704 102.029 95.2536 100.911 94.1354C99.7925 93.0172 98.2757 92.389 96.6943 92.389C95.1129 92.389 93.5961 93.0172 92.4779 94.1354C91.3597 95.2536 90.7314 96.7704 90.7314 98.3518C90.7314 99.9332 91.3597 101.45 92.4779 102.568C93.5961 103.686 95.1129 104.315 96.6943 104.315Z" fill="#0000FF" fill-opacity="0.5" stroke="black" stroke-opacity="0.5" stroke-width="1.33333"/>
<path d="M96.6943 156.426C98.2757 156.426 99.7925 155.797 100.911 154.679C102.029 153.561 102.657 152.044 102.657 150.463C102.657 148.881 102.029 147.365 100.911 146.246C99.7925 145.128 98.2757 144.5 96.6943 144.5C95.1129 144.5 93.5961 145.128 92.4779 146.246C91.3597 147.365 90.7314 148.881 90.7314 150.463C90.7314 152.044 91.3597 153.561 92.4779 154.679C93.5961 155.797 95.1129 156.426 96.6943 156.426Z" fill="#0000FF" fill-opacity="0.5" stroke="black" stroke-opacity="0.5" stroke-width="1.33333"/>
<path d="M97.455 73.4735C99.0364 73.4735 100.553 72.8452 101.671 71.727C102.79 70.6088 103.418 69.092 103.418 67.5106C103.418 65.9293 102.79 64.4125 101.671 63.2943C100.553 62.1761 99.0364 61.5478 97.455 61.5478C95.8737 61.5478 94.3569 62.1761 93.2387 63.2943C92.1205 64.4125 91.4922 65.9293 91.4922 67.5106C91.4922 69.092 92.1205 70.6088 93.2387 71.727C94.3569 72.8452 95.8737 73.4735 97.455 73.4735Z" fill="#0000FF" fill-opacity="0.5" stroke="black" stroke-opacity="0.5" stroke-width="1.33333"/>
<path d="M97.4502 30.2958C99.0315 30.2958 100.548 29.6675 101.667 28.5494C102.785 27.4312 103.413 25.9143 103.413 24.333C103.413 22.7516 102.785 21.2348 101.667 20.1166C100.548 18.9984 99.0315 18.3701 97.4502 18.3701C95.8688 18.3701 94.352 18.9984 93.2338 20.1166C92.1156 21.2348 91.4873 22.7516 91.4873 24.333C91.4873 25.9143 92.1156 27.4312 93.2338 28.5494C94.352 29.6675 95.8688 30.2958 97.4502 30.2958Z" fill="#0000FF" fill-opacity="0.5" stroke="black" stroke-opacity="0.5" stroke-width="1.33333"/>
<path d="M97.4502 30.5085C99.0315 30.5085 100.548 29.8802 101.667 28.7621C102.785 27.6439 103.413 26.127 103.413 24.5457C103.413 22.9643 102.785 21.4475 101.667 20.3293C100.548 19.2111 99.0315 18.5828 97.4502 18.5828C95.8688 18.5828 94.352 19.2111 93.2338 20.3293C92.1156 21.4475 91.4873 22.9643 91.4873 24.5457C91.4873 26.127 92.1156 27.6439 93.2338 28.7621C94.352 29.8802 95.8688 30.5085 97.4502 30.5085Z" fill="#0000FF" fill-opacity="0.5" stroke="black" stroke-opacity="0.5" stroke-width="1.33333"/>
<path d="M97.4502 29.0196C99.0315 29.0196 100.548 28.3914 101.667 27.2732C102.785 26.155 103.413 24.6382 103.413 23.0568C103.413 21.4754 102.785 19.9586 101.667 18.8404C100.548 17.7222 99.0315 17.094 97.4502 17.094C95.8688 17.094 94.352 17.7222 93.2338 18.8404C92.1156 19.9586 91.4873 21.4754 91.4873 23.0568C91.4873 24.6382 92.1156 26.155 93.2338 27.2732C94.352 28.3914 95.8688 29.0196 97.4502 29.0196Z" fill="#0000FF" fill-opacity="0.5" stroke="black" stroke-opacity="0.5" stroke-width="1.33333"/>
<path d="M97.4502 31.3593C99.0315 31.3593 100.548 30.731 101.667 29.6128C102.785 28.4946 103.413 26.9778 103.413 25.3965C103.413 23.8151 102.785 22.2983 101.667 21.1801C100.548 20.0619 99.0315 19.4336 97.4502 19.4336C95.8688 19.4336 94.352 20.0619 93.2338 21.1801C92.1156 22.2983 91.4873 23.8151 91.4873 25.3965C91.4873 26.9778 92.1156 28.4946 93.2338 29.6128C94.352 30.731 95.8688 31.3593 97.4502 31.3593Z" fill="#0000FF" fill-opacity="0.5" stroke="black" stroke-opacity="0.5" stroke-width="1.33333"/>
<path d="M97.4502 32.6355C99.0315 32.6355 100.548 32.0072 101.667 30.889C102.785 29.7708 103.413 28.254 103.413 26.6727C103.413 25.0913 102.785 23.5745 101.667 22.4563C100.548 21.3381 99.0315 20.7098 97.4502 20.7098C95.8688 20.7098 94.352 21.3381 93.2338 22.4563C92.1156 23.5745 91.4873 25.0913 91.4873 26.6727C91.4873 28.254 92.1156 29.7708 93.2338 30.889C94.352 32.0072 95.8688 32.6355 97.4502 32.6355Z" fill="#0000FF" fill-opacity="0.5" stroke="black" stroke-opacity="0.5" stroke-width="1.33333"/>
<path d="M97.4502 29.6577C99.0315 29.6577 100.548 29.0295 101.667 27.9113C102.785 26.7931 103.413 25.2763 103.413 23.6949C103.413 22.1135 102.785 20.5967 101.667 19.4785C100.548 18.3603 99.0315 17.732 97.4502 17.732C95.8688 17.732 94.352 18.3603 93.2338 19.4785C92.1156 20.5967 91.4873 22.1135 91.4873 23.6949C91.4873 25.2763 92.1156 26.7931 93.2338 27.9113C94.352 29.0295 95.8688 29.6577 97.4502 29.6577Z" fill="#0000FF" fill-opacity="0.5" stroke="black" stroke-opacity="0.5" stroke-width="1.33333"/>
<path d="M97.4502 70.9211C99.0315 70.9211 100.548 70.2928 101.667 69.1746C102.785 68.0564 103.413 66.5396 103.413 64.9583C103.413 63.3769 102.785 61.8601 101.667 60.7419C100.548 59.6237 99.0315 58.9954 97.4502 58.9954C95.8688 58.9954 94.352 59.6237 93.2338 60.7419C92.1156 61.8601 91.4873 63.3769 91.4873 64.9583C91.4873 66.5396 92.1156 68.0564 93.2338 69.1746C94.352 70.2928 95.8688 70.9211 97.4502 70.9211Z" fill="#0000FF" fill-opacity="0.5" stroke="black" stroke-opacity="0.5" stroke-width="1.33333"/>
<path d="M97.4502 65.391C99.0315 65.391 100.548 64.7627 101.667 63.6445C102.785 62.5263 103.413 61.0095 103.413 59.4281C103.413 57.8468 102.785 56.3299 101.667 55.2117C100.548 54.0936 99.0315 53.4653 97.4502 53.4653C95.8688 53.4653 94.352 54.0936 93.2338 55.2117C92.1156 56.3299 91.4873 57.8468 91.4873 59.4281C91.4873 61.0095 92.1156 62.5263 93.2338 63.6445C94.352 64.7627 95.8688 65.391 97.4502 65.391Z" fill="#0000FF" fill-opacity="0.5" stroke="black" stroke-opacity="0.5" stroke-width="1.33333"/>
<path d="M97.4502 73.6862C99.0315 73.6862 100.548 73.0579 101.667 71.9397C102.785 70.8215 103.413 69.3047 103.413 67.7233C103.413 66.142 102.785 64.6252 101.667 63.507C100.548 62.3888 99.0315 61.7605 97.4502 61.7605C95.8688 61.7605 94.352 62.3888 93.2338 63.507C92.1156 64.6252 91.4873 66.142 91.4873 67.7233C91.4873 69.3047 92.1156 70.8215 93.2338 71.9397C94.352 73.0579 95.8688 73.6862 97.4502 73.6862Z" fill="#0000FF" fill-opacity="0.5" stroke="black" stroke-opacity="0.5" stroke-width="1.33333"/>
<path d="M97.4502 73.2608C99.0315 73.2608 100.548 72.6325 101.667 71.5143C102.785 70.3961 103.413 68.8793 103.413 67.2979C103.413 65.7166 102.785 64.1998 101.667 63.0816C100.548 61.9634 99.0315 61.3351 97.4502 61.3351C95.8688 61.3351 94.352 61.9634 93.2338 63.0816C92.1156 64.1998 91.4873 65.7166 91.4873 67.2979C91.4873 68.8793 92.1156 70.3961 93.2338 71.5143C94.352 72.6325 95.8688 73.2608 97.4502 73.2608Z" fill="#0000FF" fill-opacity="0.5" stroke="black" stroke-opacity="0.5" stroke-width="1.33333"/>
<path d="M97.4502 71.1338C99.0315 71.1338 100.548 70.5055 101.667 69.3873C102.785 68.2691 103.413 66.7523 103.413 65.171C103.413 63.5896 102.785 62.0728 101.667 60.9546C100.548 59.8364 99.0315 59.2081 97.4502 59.2081C95.8688 59.2081 94.352 59.8364 93.2338 60.9546C92.1156 62.0728 91.4873 63.5896 91.4873 65.171C91.4873 66.7523 92.1156 68.2691 93.2338 69.3873C94.352 70.5055 95.8688 71.1338 97.4502 71.1338Z" fill="#0000FF" fill-opacity="0.5" stroke="black" stroke-opacity="0.5" stroke-width="1.33333"/>
<path d="M97.4502 71.7719C99.0315 71.7719 100.548 71.1436 101.667 70.0254C102.785 68.9072 103.413 67.3904 103.413 65.809C103.413 64.2277 102.785 62.7109 101.667 61.5927C100.548 60.4745 99.0315 59.8462 97.4502 59.8462C95.8688 59.8462 94.352 60.4745 93.2338 61.5927C92.1156 62.7109 91.4873 64.2277 91.4873 65.809C91.4873 67.3904 92.1156 68.9072 93.2338 70.0254C94.352 71.1436 95.8688 71.7719 97.4502 71.7719Z" fill="#0000FF" fill-opacity="0.5" stroke="black" stroke-opacity="0.5" stroke-width="1.33333"/>
<path d="M97.4502 30.7212C99.0315 30.7212 100.548 30.0929 101.667 28.9748C102.785 27.8566 103.413 26.3397 103.413 24.7584C103.413 23.177 102.785 21.6602 101.667 20.542C100.548 19.4238 99.0315 18.7955 97.4502 18.7955C95.8688 18.7955 94.352 19.4238 93.2338 20.542C92.1156 21.6602 91.4873 23.177 91.4873 24.7584C91.4873 26.3397 92.1156 27.8566 93.2338 28.9748C94.352 30.0929 95.8688 30.7212 97.4502 30.7212Z" fill="#0000FF" fill-opacity="0.5" stroke="black" stroke-opacity="0.5" stroke-width="1.33333"/>
<path d="M97.4502 58.5846C99.0315 58.5846 100.548 57.9563 101.667 56.8382C102.785 55.72 103.413 54.2031 103.413 52.6218C103.413 51.0404 102.785 49.5236 101.667 48.4054C100.548 47.2872 99.0315 46.6589 97.4502 46.6589C95.8688 46.6589 94.352 47.2872 93.2338 48.4054C92.1156 49.5236 91.4873 51.0404 91.4873 52.6218C91.4873 54.2031 92.1156 55.72 93.2338 56.8382C94.352 57.9563 95.8688 58.5846 97.4502 58.5846Z" fill="#0000FF" fill-opacity="0.5" stroke="black" stroke-opacity="0.5" stroke-width="1.33333"/>
<path d="M97.4502 70.0703C99.0315 70.0703 100.548 69.442 101.667 68.3238C102.785 67.2056 103.413 65.6888 103.413 64.1075C103.413 62.5261 102.785 61.0093 101.667 59.8911C100.548 58.7729 99.0315 58.1446 97.4502 58.1446C95.8688 58.1446 94.352 58.7729 93.2338 59.8911C92.1156 61.0093 91.4873 62.5261 91.4873 64.1075C91.4873 65.6888 92.1156 67.2056 93.2338 68.3238C94.352 69.442 95.8688 70.0703 97.4502 70.0703Z" fill="#0000FF" fill-opacity="0.5" stroke="black" stroke-opacity="0.5" stroke-width="1.33333"/>
<path d="M97.4502 97.5083C99.0315 97.5083 100.548 96.88 101.667 95.7619C102.785 94.6437 103.413 93.1268 103.413 91.5455C103.413 89.9641 102.785 88.4473 101.667 87.3291C100.548 86.2109 99.0315 85.5826 97.4502 85.5826C95.8688 85.5826 94.352 86.2109 93.2338 87.3291C92.1156 88.4473 91.4873 89.9641 91.4873 91.5455C91.4873 93.1268 92.1156 94.6437 93.2338 95.7619C94.352 96.88 95.8688 97.5083 97.4502 97.5083Z" fill="#0000FF" fill-opacity="0.5" stroke="black" stroke-opacity="0.5" stroke-width="1.33333"/>
<path d="M97.4502 97.721C99.0315 97.721 100.548 97.0927 101.667 95.9745C102.785 94.8564 103.413 93.3395 103.413 91.7582C103.413 90.1768 102.785 88.66 101.667 87.5418C100.548 86.4236 99.0315 85.7953 97.4502 85.7953C95.8688 85.7953 94.352 86.4236 93.2338 87.5418C92.1156 88.66 91.4873 90.1768 91.4873 91.7582C91.4873 93.3395 92.1156 94.8564 93.2338 95.9745C94.352 97.0927 95.8688 97.721 97.4502 97.721Z" fill="#0000FF" fill-opacity="0.5" stroke="black" stroke-opacity="0.5" stroke-width="1.33333"/>
<path d="M97.4502 64.3275C99.0315 64.3275 100.548 63.6992 101.667 62.581C102.785 61.4628 103.413 59.946 103.413 58.3646C103.413 56.7833 102.785 55.2665 101.667 54.1483C100.548 53.0301 99.0315 52.4018 97.4502 52.4018C95.8688 52.4018 94.352 53.0301 93.2338 54.1483C92.1156 55.2665 91.4873 56.7833 91.4873 58.3646C91.4873 59.946 92.1156 61.4628 93.2338 62.581C94.352 63.6992 95.8688 64.3275 97.4502 64.3275Z" fill="#0000FF" fill-opacity="0.5" stroke="black" stroke-opacity="0.5" stroke-width="1.33333"/>
<path d="M97.4502 57.0958C99.0315 57.0958 100.548 56.4675 101.667 55.3493C102.785 54.2311 103.413 52.7143 103.413 51.1329C103.413 49.5515 102.785 48.0347 101.667 46.9165C100.548 45.7983 99.0315 45.1701 97.4502 45.1701C95.8688 45.1701 94.352 45.7983 93.2338 46.9165C92.1156 48.0347 91.4873 49.5515 91.4873 51.1329C91.4873 52.7143 92.1156 54.2311 93.2338 55.3493C94.352 56.4675 95.8688 57.0958 97.4502 57.0958Z" fill="#0000FF" fill-opacity="0.5" stroke="black" stroke-opacity="0.5" stroke-width="1.33333"/>
<path d="M97.4502 104.315C99.0315 104.315 100.548 103.686 101.667 102.568C102.785 101.45 103.413 99.9332 103.413 98.3518C103.413 96.7704 102.785 95.2536 101.667 94.1354C100.548 93.0172 99.0315 92.389 97.4502 92.389C95.8688 92.389 94.352 93.0172 93.2338 94.1354C92.1156 95.2536 91.4873 96.7704 91.4873 98.3518C91.4873 99.9332 92.1156 101.45 93.2338 102.568C94.352 103.686 95.8688 104.315 97.4502 104.315Z" fill="#0000FF" fill-opacity="0.5" stroke="black" stroke-opacity="0.5" stroke-width="1.33333"/>
<path d="M224.706 103.464C226.287 103.464 227.804 102.836 228.922 101.717C230.041 100.599 230.669 99.0824 230.669 97.501C230.669 95.9197 230.041 94.4028 228.922 93.2846C227.804 92.1665 226.287 91.5382 224.706 91.5382C223.125 91.5382 221.608 92.1665 220.49 93.2846C219.371 94.4028 218.743 95.9197 218.743 97.501C218.743 99.0824 219.371 100.599 220.49 101.717C221.608 102.836 223.125 103.464 224.706 103.464Z" fill="#0000FF" fill-opacity="0.5" stroke="black" stroke-opacity="0.5" stroke-width="1.33333"/>
<path d="M224.706 76.8766C226.287 76.8766 227.804 76.2484 228.922 75.1302C230.041 74.012 230.669 72.4952 230.669 70.9138C230.669 69.3324 230.041 67.8156 228.922 66.6974C227.804 65.5792 226.287 64.9509 224.706 64.9509C223.125 64.9509 221.608 65.5792 220.49 66.6974C219.371 67.8156 218.743 69.3324 218.743 70.9138C218.743 72.4952 219.371 74.012 220.49 75.1302C221.608 76.2484 223.125 76.8766 224.706 76.8766Z" fill="#0000FF" fill-opacity="0.5" stroke="black" stroke-opacity="0.5" stroke-width="1.33333"/>
<path d="M224.678 94.7433C226.259 94.7433 227.776 94.115 228.894 92.9968C230.012 91.8786 230.641 90.3618 230.641 88.7804C230.641 87.199 230.012 85.6822 228.894 84.564C227.776 83.4458 226.259 82.8176 224.678 82.8176C223.096 82.8176 221.58 83.4458 220.461 84.564C219.343 85.6822 218.715 87.199 218.715 88.7804C218.715 90.3618 219.343 91.8786 220.461 92.9968C221.58 94.115 223.096 94.7433 224.678 94.7433Z" fill="#0000FF" fill-opacity="0.5" stroke="black" stroke-opacity="0.5" stroke-width="1.33333"/>
<path d="M225.931 98.9972C227.512 98.9972 229.029 98.3689 230.147 97.2507C231.266 96.1325 231.894 94.6157 231.894 93.0344C231.894 91.453 231.266 89.9362 230.147 88.818C229.029 87.6998 227.512 87.0715 225.931 87.0715C224.35 87.0715 222.833 87.6998 221.715 88.818C220.597 89.9362 219.968 91.453 219.968 93.0344C219.968 94.6157 220.597 96.1325 221.715 97.2507C222.833 98.3689 224.35 98.9972 225.931 98.9972Z" fill="#0000FF" fill-opacity="0.5" stroke="black" stroke-opacity="0.5" stroke-width="1.33333"/>
<path d="M225.931 90.0639C227.512 90.0639 229.029 89.4356 230.147 88.3174C231.266 87.1992 231.894 85.6824 231.894 84.1011C231.894 82.5197 231.266 81.0029 230.147 79.8847C229.029 78.7665 227.512 78.1382 225.931 78.1382C224.35 78.1382 222.833 78.7665 221.715 79.8847C220.597 81.0029 219.968 82.5197 219.968 84.1011C219.968 85.6824 220.597 87.1992 221.715 88.3174C222.833 89.4356 224.35 90.0639 225.931 90.0639Z" fill="#0000FF" fill-opacity="0.5" stroke="black" stroke-opacity="0.5" stroke-width="1.33333"/>
<path d="M225.931 100.699C227.512 100.699 229.029 100.071 230.147 98.9523C231.266 97.8341 231.894 96.3173 231.894 94.7359C231.894 93.1546 231.266 91.6378 230.147 90.5196C229.029 89.4014 227.512 88.7731 225.931 88.7731C224.35 88.7731 222.833 89.4014 221.715 90.5196C220.597 91.6378 219.968 93.1546 219.968 94.7359C219.968 96.3173 220.597 97.8341 221.715 98.9523C222.833 100.071 224.35 100.699 225.931 100.699Z" fill="#0000FF" fill-opacity="0.5" stroke="black" stroke-opacity="0.5" stroke-width="1.33333"/>
<path d="M168.718 170.889C170.3 170.889 171.816 170.261 172.935 169.143C174.053 168.024 174.681 166.508 174.681 164.926C174.681 163.345 174.053 161.828 172.935 160.71C171.816 159.592 170.3 158.963 168.718 158.963C167.137 158.963 165.62 159.592 164.502 160.71C163.384 161.828 162.755 163.345 162.755 164.926C162.755 166.508 163.384 168.024 164.502 169.143C165.62 170.261 167.137 170.889 168.718 170.889Z" fill="#0000FF" fill-opacity="0.5" stroke="black" stroke-opacity="0.5" stroke-width="1.33333"/>
<path d="M166.538 69.8576C168.119 69.8576 169.636 69.2293 170.754 68.1111C171.872 66.9929 172.5 65.4761 172.5 63.8948C172.5 62.3134 171.872 60.7966 170.754 59.6784C169.636 58.5602 168.119 57.9319 166.538 57.9319C164.956 57.9319 163.439 58.5602 162.321 59.6784C161.203 60.7966 160.575 62.3134 160.575 63.8948C160.575 65.4761 161.203 66.9929 162.321 68.1111C163.439 69.2293 164.956 69.8576 166.538 69.8576Z" fill="#0000FF" fill-opacity="0.5" stroke="black" stroke-opacity="0.5" stroke-width="1.33333"/>
<path d="M166.483 75.1751C168.064 75.1751 169.581 74.5468 170.699 73.4286C171.817 72.3104 172.446 70.7936 172.446 69.2122C172.446 67.6308 171.817 66.114 170.699 64.9958C169.581 63.8777 168.064 63.2494 166.483 63.2494C164.902 63.2494 163.385 63.8777 162.266 64.9958C161.148 66.114 160.52 67.6308 160.52 69.2122C160.52 70.7936 161.148 72.3104 162.266 73.4286C163.385 74.5468 164.902 75.1751 166.483 75.1751Z" fill="#0000FF" fill-opacity="0.5" stroke="black" stroke-opacity="0.5" stroke-width="1.33333"/>
<path d="M168.667 112.184C170.248 112.184 171.765 111.556 172.883 110.438C174.002 109.32 174.63 107.803 174.63 106.222C174.63 104.64 174.002 103.123 172.883 102.005C171.765 100.887 170.248 100.259 168.667 100.259C167.086 100.259 165.569 100.887 164.451 102.005C163.332 103.123 162.704 104.64 162.704 106.222C162.704 107.803 163.332 109.32 164.451 110.438C165.569 111.556 167.086 112.184 168.667 112.184Z" fill="#0000FF" fill-opacity="0.5" stroke="black" stroke-opacity="0.5" stroke-width="1.33333"/>
<path d="M168.667 69.4322C170.248 69.4322 171.765 68.8039 172.883 67.6857C174.002 66.5675 174.63 65.0507 174.63 63.4694C174.63 61.888 174.002 60.3712 172.883 59.253C171.765 58.1348 170.248 57.5065 168.667 57.5065C167.086 57.5065 165.569 58.1348 164.451 59.253C163.332 60.3712 162.704 61.888 162.704 63.4694C162.704 65.0507 163.332 66.5675 164.451 67.6857C165.569 68.8039 167.086 69.4322 168.667 69.4322Z" fill="#0000FF" fill-opacity="0.5" stroke="black" stroke-opacity="0.5" stroke-width="1.33333"/>
<path d="M168.667 70.0703C170.248 70.0703 171.765 69.442 172.883 68.3238C174.002 67.2056 174.63 65.6888 174.63 64.1075C174.63 62.5261 174.002 61.0093 172.883 59.8911C171.765 58.7729 170.248 58.1446 168.667 58.1446C167.086 58.1446 165.569 58.7729 164.451 59.8911C163.332 61.0093 162.704 62.5261 162.704 64.1075C162.704 65.6888 163.332 67.2056 164.451 68.3238C165.569 69.442 167.086 70.0703 168.667 70.0703Z" fill="#0000FF" fill-opacity="0.5" stroke="black" stroke-opacity="0.5" stroke-width="1.33333"/>
<path d="M168.667 105.378C170.248 105.378 171.765 104.75 172.883 103.632C174.002 102.513 174.63 100.997 174.63 99.4153C174.63 97.8339 174.002 96.3171 172.883 95.1989C171.765 94.0807 170.248 93.4524 168.667 93.4524C167.086 93.4524 165.569 94.0807 164.451 95.1989C163.332 96.3171 162.704 97.8339 162.704 99.4153C162.704 100.997 163.332 102.513 164.451 103.632C165.569 104.75 167.086 105.378 168.667 105.378Z" fill="#0000FF" fill-opacity="0.5" stroke="black" stroke-opacity="0.5" stroke-width="1.33333"/>
<path d="M168.667 100.061C170.248 100.061 171.765 99.4324 172.883 98.3142C174.002 97.196 174.63 95.6792 174.63 94.0979C174.63 92.5165 174.002 90.9997 172.883 89.8815C171.765 88.7633 170.248 88.135 168.667 88.135C167.086 88.135 165.569 88.7633 164.451 89.8815C163.332 90.9997 162.704 92.5165 162.704 94.0979C162.704 95.6792 163.332 97.196 164.451 98.3142C165.569 99.4324 167.086 100.061 168.667 100.061Z" fill="#0000FF" fill-opacity="0.5" stroke="black" stroke-opacity="0.5" stroke-width="1.33333"/>
<path d="M168.667 88.575C170.248 88.575 171.765 87.9467 172.883 86.8285C174.002 85.7103 174.63 84.1935 174.63 82.6122C174.63 81.0308 174.002 79.514 172.883 78.3958C171.765 77.2776 170.248 76.6493 168.667 76.6493C167.086 76.6493 165.569 77.2776 164.451 78.3958C163.332 79.514 162.704 81.0308 162.704 82.6122C162.704 84.1935 163.332 85.7103 164.451 86.8285C165.569 87.9467 167.086 88.575 168.667 88.575Z" fill="#0000FF" fill-opacity="0.5" stroke="black" stroke-opacity="0.5" stroke-width="1.33333"/>
<path d="M168.667 89.6385C170.248 89.6385 171.765 89.0102 172.883 87.892C174.002 86.7738 174.63 85.257 174.63 83.6757C174.63 82.0943 174.002 80.5775 172.883 79.4593C171.765 78.3411 170.248 77.7128 168.667 77.7128C167.086 77.7128 165.569 78.3411 164.451 79.4593C163.332 80.5775 162.704 82.0943 162.704 83.6757C162.704 85.257 163.332 86.7738 164.451 87.892C165.569 89.0102 167.086 89.6385 168.667 89.6385Z" fill="#0000FF" fill-opacity="0.5" stroke="black" stroke-opacity="0.5" stroke-width="1.33333"/>
<path d="M168.667 111.972C170.248 111.972 171.765 111.343 172.883 110.225C174.002 109.107 174.63 107.59 174.63 106.009C174.63 104.428 174.002 102.911 172.883 101.793C171.765 100.674 170.248 100.046 168.667 100.046C167.086 100.046 165.569 100.674 164.451 101.793C163.332 102.911 162.704 104.428 162.704 106.009C162.704 107.59 163.332 109.107 164.451 110.225C165.569 111.343 167.086 111.972 168.667 111.972Z" fill="#0000FF" fill-opacity="0.5" stroke="black" stroke-opacity="0.5" stroke-width="1.33333"/>
<path d="M168.667 98.5718C170.248 98.5718 171.765 97.9435 172.883 96.8253C174.002 95.7071 174.63 94.1903 174.63 92.609C174.63 91.0276 174.002 89.5108 172.883 88.3926C171.765 87.2744 170.248 86.6461 168.667 86.6461C167.086 86.6461 165.569 87.2744 164.451 88.3926C163.332 89.5108 162.704 91.0276 162.704 92.609C162.704 94.1903 163.332 95.7071 164.451 96.8253C165.569 97.9435 167.086 98.5718 168.667 98.5718Z" fill="#0000FF" fill-opacity="0.5" stroke="black" stroke-opacity="0.5" stroke-width="1.33333"/>
<path d="M168.667 155.362C170.248 155.362 171.765 154.734 172.883 153.616C174.002 152.497 174.63 150.981 174.63 149.399C174.63 147.818 174.002 146.301 172.883 145.183C171.765 144.065 170.248 143.436 168.667 143.436C167.086 143.436 165.569 144.065 164.451 145.183C163.332 146.301 162.704 147.818 162.704 149.399C162.704 150.981 163.332 152.497 164.451 153.616C165.569 154.734 167.086 155.362 168.667 155.362Z" fill="#0000FF" fill-opacity="0.5" stroke="black" stroke-opacity="0.5" stroke-width="1.33333"/>
<path d="M197.592 40.9307C199.173 40.9307 200.69 40.3024 201.808 39.1842C202.926 38.066 203.555 36.5492 203.555 34.9679C203.555 33.3865 202.926 31.8697 201.808 30.7515C200.69 29.6333 199.173 29.005 197.592 29.005C196.01 29.005 194.494 29.6333 193.375 30.7515C192.257 31.8697 191.629 33.3865 191.629 34.9679C191.629 36.5492 192.257 38.066 193.375 39.1842C194.494 40.3024 196.01 40.9307 197.592 40.9307Z" fill="#0000FF" fill-opacity="0.5" stroke="black" stroke-opacity="0.5" stroke-width="1.33333"/>
<path d="M197.626 39.0164C199.208 39.0164 200.725 38.3882 201.843 37.27C202.961 36.1518 203.589 34.635 203.589 33.0536C203.589 31.4722 202.961 29.9554 201.843 28.8372C200.725 27.719 199.208 27.0907 197.626 27.0907C196.045 27.0907 194.528 27.719 193.41 28.8372C192.292 29.9554 191.664 31.4722 191.664 33.0536C191.664 34.635 192.292 36.1518 193.41 37.27C194.528 38.3882 196.045 39.0164 197.626 39.0164Z" fill="#0000FF" fill-opacity="0.5" stroke="black" stroke-opacity="0.5" stroke-width="1.33333"/>
<path d="M217.97 43.4831C219.551 43.4831 221.068 42.8548 222.186 41.7366C223.304 40.6184 223.933 39.1016 223.933 37.5202C223.933 35.9389 223.304 34.4221 222.186 33.3039C221.068 32.1857 219.551 31.5574 217.97 31.5574C216.388 31.5574 214.872 32.1857 213.753 33.3039C212.635 34.4221 212.007 35.9389 212.007 37.5202C212.007 39.1016 212.635 40.6184 213.753 41.7366C214.872 42.8548 216.388 43.4831 217.97 43.4831Z" fill="#0000FF" fill-opacity="0.5" stroke="black" stroke-opacity="0.5" stroke-width="1.33333"/>
<path d="M217.923 46.8863C219.504 46.8863 221.021 46.258 222.139 45.1398C223.257 44.0216 223.886 42.5048 223.886 40.9234C223.886 39.342 223.257 37.8252 222.139 36.707C221.021 35.5888 219.504 34.9606 217.923 34.9606C216.341 34.9606 214.825 35.5888 213.706 36.707C212.588 37.8252 211.96 39.342 211.96 40.9234C211.96 42.5048 212.588 44.0216 213.706 45.1398C214.825 46.258 216.341 46.8863 217.923 46.8863Z" fill="#0000FF" fill-opacity="0.5" stroke="black" stroke-opacity="0.5" stroke-width="1.33333"/>
<path d="M290.174 96.4448C291.756 96.4448 293.272 95.8166 294.391 94.6984C295.509 93.5802 296.137 92.0634 296.137 90.482C296.137 88.9006 295.509 87.3838 294.391 86.2656C293.272 85.1474 291.756 84.5191 290.174 84.5191C288.593 84.5191 287.076 85.1474 285.958 86.2656C284.84 87.3838 284.211 88.9006 284.211 90.482C284.211 92.0634 284.84 93.5802 285.958 94.6984C287.076 95.8166 288.593 96.4448 290.174 96.4448Z" fill="#0000FF" fill-opacity="0.5" stroke="black" stroke-opacity="0.5" stroke-width="1.33333"/>
<path d="M290.16 86.448C291.741 86.448 293.258 85.8198 294.376 84.7016C295.494 83.5834 296.122 82.0666 296.122 80.4852C296.122 78.9038 295.494 77.387 294.376 76.2688C293.258 75.1506 291.741 74.5223 290.16 74.5223C288.578 74.5223 287.061 75.1506 285.943 76.2688C284.825 77.387 284.197 78.9038 284.197 80.4852C284.197 82.0666 284.825 83.5834 285.943 84.7016C287.061 85.8198 288.578 86.448 290.16 86.448Z" fill="#0000FF" fill-opacity="0.5" stroke="black" stroke-opacity="0.5" stroke-width="1.33333"/>
<path d="M290.766 79.429C292.347 79.429 293.864 78.8007 294.982 77.6825C296.1 76.5643 296.728 75.0475 296.728 73.4662C296.728 71.8848 296.1 70.368 294.982 69.2498C293.864 68.1316 292.347 67.5033 290.766 67.5033C289.184 67.5033 287.667 68.1316 286.549 69.2498C285.431 70.368 284.803 71.8848 284.803 73.4662C284.803 75.0475 285.431 76.5643 286.549 77.6825C287.667 78.8007 289.184 79.429 290.766 79.429Z" fill="#0000FF" fill-opacity="0.5" stroke="black" stroke-opacity="0.5" stroke-width="1.33333"/>
<path d="M290.766 86.448C292.347 86.448 293.864 85.8198 294.982 84.7016C296.1 83.5834 296.728 82.0666 296.728 80.4852C296.728 78.9038 296.1 77.387 294.982 76.2688C293.864 75.1506 292.347 74.5223 290.766 74.5223C289.184 74.5223 287.667 75.1506 286.549 76.2688C285.431 77.387 284.803 78.9038 284.803 80.4852C284.803 82.0666 285.431 83.5834 286.549 84.7016C287.667 85.8198 289.184 86.448 290.766 86.448Z" fill="#0000FF" fill-opacity="0.5" stroke="black" stroke-opacity="0.5" stroke-width="1.33333"/>
<path d="M248.3 83.4703C249.881 83.4703 251.398 82.842 252.516 81.7238C253.634 80.6056 254.263 79.0888 254.263 77.5074C254.263 75.9261 253.634 74.4092 252.516 73.291C251.398 72.1729 249.881 71.5446 248.3 71.5446C246.718 71.5446 245.202 72.1729 244.083 73.291C242.965 74.4092 242.337 75.9261 242.337 77.5074C242.337 79.0888 242.965 80.6056 244.083 81.7238C245.202 82.842 246.718 83.4703 248.3 83.4703Z" fill="#0000FF" fill-opacity="0.5" stroke="black" stroke-opacity="0.5" stroke-width="1.33333"/>
<path d="M248.3 101.55C249.881 101.55 251.398 100.921 252.516 99.8031C253.634 98.6849 254.263 97.1681 254.263 95.5867C254.263 94.0054 253.634 92.4886 252.516 91.3704C251.398 90.2522 249.881 89.6239 248.3 89.6239C246.718 89.6239 245.202 90.2522 244.083 91.3704C242.965 92.4886 242.337 94.0054 242.337 95.5867C242.337 97.1681 242.965 98.6849 244.083 99.8031C245.202 100.921 246.718 101.55 248.3 101.55Z" fill="#0000FF" fill-opacity="0.5" stroke="black" stroke-opacity="0.5" stroke-width="1.33333"/>
<path d="M97.559 108.569C99.1404 108.569 100.657 107.94 101.775 106.822C102.894 105.704 103.522 104.187 103.522 102.606C103.522 101.024 102.894 99.5076 101.775 98.3894C100.657 97.2712 99.1404 96.6429 97.559 96.6429C95.9777 96.6429 94.4609 97.2712 93.3427 98.3894C92.2245 99.5076 91.5962 101.024 91.5962 102.606C91.5962 104.187 92.2245 105.704 93.3427 106.822C94.4609 107.94 95.9777 108.569 97.559 108.569Z" fill="#0000FF" fill-opacity="0.5" stroke="black" stroke-opacity="0.5" stroke-width="1.33333"/>
<path d="M109.131 89.4258C110.712 89.4258 112.229 88.7975 113.347 87.6793C114.465 86.5611 115.094 85.0443 115.094 83.463C115.094 81.8816 114.465 80.3648 113.347 79.2466C112.229 78.1284 110.712 77.5001 109.131 77.5001C107.549 77.5001 106.033 78.1284 104.914 79.2466C103.796 80.3648 103.168 81.8816 103.168 83.463C103.168 85.0443 103.796 86.5611 104.914 87.6793C106.033 88.7975 107.549 89.4258 109.131 89.4258Z" fill="#0000FF" fill-opacity="0.5" stroke="black" stroke-opacity="0.5" stroke-width="1.33333"/>
<path d="M109.131 84.7465C110.712 84.7465 112.229 84.1182 113.347 83C114.465 81.8818 115.094 80.365 115.094 78.7836C115.094 77.2022 114.465 75.6854 113.347 74.5672C112.229 73.449 110.712 72.8208 109.131 72.8208C107.549 72.8208 106.033 73.449 104.914 74.5672C103.796 75.6854 103.168 77.2022 103.168 78.7836C103.168 80.365 103.796 81.8818 104.914 83C106.033 84.1182 107.549 84.7465 109.131 84.7465Z" fill="#0000FF" fill-opacity="0.5" stroke="black" stroke-opacity="0.5" stroke-width="1.33333"/>
<path d="M109.131 86.2353C110.712 86.2353 112.229 85.6071 113.347 84.4889C114.465 83.3707 115.094 81.8539 115.094 80.2725C115.094 78.6911 114.465 77.1743 113.347 76.0561C112.229 74.9379 110.712 74.3096 109.131 74.3096C107.549 74.3096 106.033 74.9379 104.914 76.0561C103.796 77.1743 103.168 78.6911 103.168 80.2725C103.168 81.8539 103.796 83.3707 104.914 84.4889C106.033 85.6071 107.549 86.2353 109.131 86.2353Z" fill="#0000FF" fill-opacity="0.5" stroke="black" stroke-opacity="0.5" stroke-width="1.33333"/>
<path d="M109.131 84.3211C110.712 84.3211 112.229 83.6928 113.347 82.5746C114.465 81.4564 115.094 79.9396 115.094 78.3582C115.094 76.7769 114.465 75.26 113.347 74.1418C112.229 73.0237 110.712 72.3954 109.131 72.3954C107.549 72.3954 106.033 73.0237 104.914 74.1418C103.796 75.26 103.168 76.7769 103.168 78.3582C103.168 79.9396 103.796 81.4564 104.914 82.5746C106.033 83.6928 107.549 84.3211 109.131 84.3211Z" fill="#0000FF" fill-opacity="0.5" stroke="black" stroke-opacity="0.5" stroke-width="1.33333"/>
<path d="M109.131 76.0259C110.712 76.0259 112.229 75.3976 113.347 74.2794C114.465 73.1612 115.094 71.6444 115.094 70.063C115.094 68.4816 114.465 66.9648 113.347 65.8466C112.229 64.7284 110.712 64.1002 109.131 64.1002C107.549 64.1002 106.033 64.7284 104.914 65.8466C103.796 66.9648 103.168 68.4816 103.168 70.063C103.168 71.6444 103.796 73.1612 104.914 74.2794C106.033 75.3976 107.549 76.0259 109.131 76.0259Z" fill="#0000FF" fill-opacity="0.5" stroke="black" stroke-opacity="0.5" stroke-width="1.33333"/>
<path d="M155.285 88.575C156.866 88.575 158.383 87.9467 159.501 86.8285C160.619 85.7103 161.247 84.1935 161.247 82.6122C161.247 81.0308 160.619 79.514 159.501 78.3958C158.383 77.2776 156.866 76.6493 155.285 76.6493C153.703 76.6493 152.186 77.2776 151.068 78.3958C149.95 79.514 149.322 81.0308 149.322 82.6122C149.322 84.1935 149.95 85.7103 151.068 86.8285C152.186 87.9467 153.703 88.575 155.285 88.575Z" fill="#0000FF" fill-opacity="0.5" stroke="black" stroke-opacity="0.5" stroke-width="1.33333"/>
<path d="M155.285 88.7877C156.866 88.7877 158.383 88.1594 159.501 87.0412C160.619 85.9231 161.247 84.4062 161.247 82.8249C161.247 81.2435 160.619 79.7267 159.501 78.6085C158.383 77.4903 156.866 76.862 155.285 76.862C153.703 76.862 152.186 77.4903 151.068 78.6085C149.95 79.7267 149.322 81.2435 149.322 82.8249C149.322 84.4062 149.95 85.9231 151.068 87.0412C152.186 88.1594 153.703 88.7877 155.285 88.7877Z" fill="#0000FF" fill-opacity="0.5" stroke="black" stroke-opacity="0.5" stroke-width="1.33333"/>
<path d="M155.285 87.7242C156.866 87.7242 158.383 87.0959 159.501 85.9777C160.619 84.8595 161.247 83.3427 161.247 81.7614C161.247 80.18 160.619 78.6632 159.501 77.545C158.383 76.4268 156.866 75.7985 155.285 75.7985C153.703 75.7985 152.186 76.4268 151.068 77.545C149.95 78.6632 149.322 80.18 149.322 81.7614C149.322 83.3427 149.95 84.8595 151.068 85.9777C152.186 87.0959 153.703 87.7242 155.285 87.7242Z" fill="#0000FF" fill-opacity="0.5" stroke="black" stroke-opacity="0.5" stroke-width="1.33333"/>
<path d="M239.418 94.1052C241 94.1052 242.517 93.4769 243.635 92.3587C244.753 91.2405 245.381 89.7237 245.381 88.1423C245.381 86.5609 244.753 85.0441 243.635 83.9259C242.517 82.8078 241 82.1795 239.418 82.1795C237.837 82.1795 236.32 82.8078 235.202 83.9259C234.084 85.0441 233.456 86.5609 233.456 88.1423C233.456 89.7237 234.084 91.2405 235.202 92.3587C236.32 93.4769 237.837 94.1052 239.418 94.1052Z" fill="#0000FF" fill-opacity="0.5" stroke="black" stroke-opacity="0.5" stroke-width="1.33333"/>
<path d="M239.418 91.1274C241 91.1274 242.517 90.4991 243.635 89.3809C244.753 88.2627 245.381 86.7459 245.381 85.1646C245.381 83.5832 244.753 82.0664 243.635 80.9482C242.517 79.83 241 79.2017 239.418 79.2017C237.837 79.2017 236.32 79.83 235.202 80.9482C234.084 82.0664 233.456 83.5832 233.456 85.1646C233.456 86.7459 234.084 88.2627 235.202 89.3809C236.32 90.4991 237.837 91.1274 239.418 91.1274Z" fill="#0000FF" fill-opacity="0.5" stroke="black" stroke-opacity="0.5" stroke-width="1.33333"/>
<path d="M239.418 94.1052C241 94.1052 242.517 93.4769 243.635 92.3587C244.753 91.2405 245.381 89.7237 245.381 88.1423C245.381 86.5609 244.753 85.0441 243.635 83.9259C242.517 82.8078 241 82.1795 239.418 82.1795C237.837 82.1795 236.32 82.8078 235.202 83.9259C234.084 85.0441 233.456 86.5609 233.456 88.1423C233.456 89.7237 234.084 91.2405 235.202 92.3587C236.32 93.4769 237.837 94.1052 239.418 94.1052Z" fill="#0000FF" fill-opacity="0.5" stroke="black" stroke-opacity="0.5" stroke-width="1.33333"/>
<path d="M180.4 76.8766C181.982 76.8766 183.499 76.2484 184.617 75.1302C185.735 74.012 186.363 72.4952 186.363 70.9138C186.363 69.3324 185.735 67.8156 184.617 66.6974C183.499 65.5792 181.982 64.9509 180.4 64.9509C178.819 64.9509 177.302 65.5792 176.184 66.6974C175.066 67.8156 174.438 69.3324 174.438 70.9138C174.438 72.4952 175.066 74.012 176.184 75.1302C177.302 76.2484 178.819 76.8766 180.4 76.8766Z" fill="#0000FF" fill-opacity="0.5" stroke="black" stroke-opacity="0.5" stroke-width="1.33333"/>
<path d="M180.4 62.6259C181.982 62.6259 183.499 61.9976 184.617 60.8794C185.735 59.7612 186.363 58.2444 186.363 56.663C186.363 55.0817 185.735 53.5649 184.617 52.4467C183.499 51.3285 181.982 50.7002 180.4 50.7002C178.819 50.7002 177.302 51.3285 176.184 52.4467C175.066 53.5649 174.438 55.0817 174.438 56.663C174.438 58.2444 175.066 59.7612 176.184 60.8794C177.302 61.9976 178.819 62.6259 180.4 62.6259Z" fill="#0000FF" fill-opacity="0.5" stroke="black" stroke-opacity="0.5" stroke-width="1.33333"/>
<path d="M179.643 65.1783C181.224 65.1783 182.741 64.55 183.859 63.4318C184.977 62.3136 185.605 60.7968 185.605 59.2154C185.605 57.6341 184.977 56.1172 183.859 54.999C182.741 53.8809 181.224 53.2526 179.643 53.2526C178.061 53.2526 176.544 53.8809 175.426 54.999C174.308 56.1172 173.68 57.6341 173.68 59.2154C173.68 60.7968 174.308 62.3136 175.426 63.4318C176.544 64.55 178.061 65.1783 179.643 65.1783Z" fill="#0000FF" fill-opacity="0.5" stroke="black" stroke-opacity="0.5" stroke-width="1.33333"/>
<path d="M239.128 76.0259C240.709 76.0259 242.226 75.3976 243.344 74.2794C244.462 73.1612 245.091 71.6444 245.091 70.063C245.091 68.4816 244.462 66.9648 243.344 65.8466C242.226 64.7284 240.709 64.1002 239.128 64.1002C237.547 64.1002 236.03 64.7284 234.912 65.8466C233.793 66.9648 233.165 68.4816 233.165 70.063C233.165 71.6444 233.793 73.1612 234.912 74.2794C236.03 75.3976 237.547 76.0259 239.128 76.0259Z" fill="#0000FF" fill-opacity="0.5" stroke="black" stroke-opacity="0.5" stroke-width="1.33333"/>
<path d="M239.128 71.9846C240.709 71.9846 242.226 71.3563 243.344 70.2381C244.462 69.1199 245.091 67.6031 245.091 66.0217C245.091 64.4404 244.462 62.9236 243.344 61.8054C242.226 60.6872 240.709 60.0589 239.128 60.0589C237.547 60.0589 236.03 60.6872 234.912 61.8054C233.793 62.9236 233.165 64.4404 233.165 66.0217C233.165 67.6031 233.793 69.1199 234.912 70.2381C236.03 71.3563 237.547 71.9846 239.128 71.9846Z" fill="#0000FF" fill-opacity="0.5" stroke="black" stroke-opacity="0.5" stroke-width="1.33333"/>
<path d="M249.912 102.826C251.493 102.826 253.01 102.197 254.128 101.079C255.247 99.9611 255.875 98.4443 255.875 96.8629C255.875 95.2816 255.247 93.7648 254.128 92.6466C253.01 91.5284 251.493 90.9001 249.912 90.9001C248.331 90.9001 246.814 91.5284 245.696 92.6466C244.578 93.7648 243.949 95.2816 243.949 96.8629C243.949 98.4443 244.578 99.9611 245.696 101.079C246.814 102.197 248.331 102.826 249.912 102.826Z" fill="#0000FF" fill-opacity="0.5" stroke="black" stroke-opacity="0.5" stroke-width="1.33333"/>
<path d="M120.811 68.156C122.392 68.156 123.909 67.5278 125.027 66.4096C126.145 65.2914 126.773 63.7746 126.773 62.1932C126.773 60.6118 126.145 59.095 125.027 57.9768C123.909 56.8586 122.392 56.2303 120.811 56.2303C119.229 56.2303 117.712 56.8586 116.594 57.9768C115.476 59.095 114.848 60.6118 114.848 62.1932C114.848 63.7746 115.476 65.2914 116.594 66.4096C117.712 67.5278 119.229 68.156 120.811 68.156Z" fill="#0000FF" fill-opacity="0.5" stroke="black" stroke-opacity="0.5" stroke-width="1.33333"/>
<path d="M158.025 64.7529C159.606 64.7529 161.123 64.1246 162.241 63.0064C163.359 61.8882 163.988 60.3714 163.988 58.79C163.988 57.2087 163.359 55.6919 162.241 54.5737C161.123 53.4555 159.606 52.8272 158.025 52.8272C156.443 52.8272 154.927 53.4555 153.808 54.5737C152.69 55.6919 152.062 57.2087 152.062 58.79C152.062 60.3714 152.69 61.8882 153.808 63.0064C154.927 64.1246 156.443 64.7529 158.025 64.7529Z" fill="#0000FF" fill-opacity="0.5" stroke="black" stroke-opacity="0.5" stroke-width="1.33333"/>
<path d="M238.985 97.0829C240.567 97.0829 242.083 96.4546 243.202 95.3365C244.32 94.2183 244.948 92.7014 244.948 91.1201C244.948 89.5387 244.32 88.0219 243.202 86.9037C242.083 85.7855 240.567 85.1572 238.985 85.1572C237.404 85.1572 235.887 85.7855 234.769 86.9037C233.651 88.0219 233.022 89.5387 233.022 91.1201C233.022 92.7014 233.651 94.2183 234.769 95.3365C235.887 96.4546 237.404 97.0829 238.985 97.0829Z" fill="#0000FF" fill-opacity="0.5" stroke="black" stroke-opacity="0.5" stroke-width="1.33333"/>
</g>
<mask id="mask1_2129_428" style="mask-type:luminance" maskUnits="userSpaceOnUse" x="59" y="14" width="243" height="163">
<path d="M301.782 14.4H59.4268V176.773H301.782V14.4Z" fill="white"/>
</mask>
<g mask="url(#mask1_2129_428)">
<path d="M69.0791 176.773V14.4" stroke="#B0B0B0" stroke-width="1.06667" stroke-linecap="square"/>
</g>
<path d="M69.0786 176.773V181.44Z" fill="black"/>
<path d="M69.0786 176.773V181.44" stroke="black" stroke-width="1.06667"/>
<path d="M58.9996 195.03H61.1476V187.613L58.8101 188.082V186.884L61.1351 186.415H62.4496V195.03H64.5976V196.136H58.9996V195.03Z" fill="black"/>
<path d="M70.0659 187.282C69.3895 187.282 68.8804 187.615 68.5388 188.282C68.1985 188.947 68.0284 189.948 68.0284 191.286C68.0284 192.618 68.1985 193.617 68.5388 194.284C68.8804 194.951 69.3895 195.284 70.0659 195.284C70.7478 195.284 71.2589 194.951 71.5992 194.284C71.9409 193.617 72.1117 192.618 72.1117 191.286C72.1117 189.948 71.9409 188.947 71.5992 188.282C71.2589 187.615 70.7478 187.282 70.0659 187.282ZM70.0659 186.24C71.1561 186.24 71.9888 186.671 72.5638 187.534C73.1388 188.395 73.4263 189.646 73.4263 191.286C73.4263 192.922 73.1388 194.171 72.5638 195.034C71.9888 195.895 71.1561 196.326 70.0659 196.326C68.977 196.326 68.145 195.895 67.57 195.034C66.995 194.171 66.7075 192.922 66.7075 191.286C66.7075 189.646 66.995 188.395 67.57 187.534C68.145 186.671 68.977 186.24 70.0659 186.24Z" fill="black"/>
<path d="M76.2299 190.257H79.4426V191.032H75.123V190.257C75.4721 189.896 75.948 189.411 76.5508 188.802C77.1545 188.192 77.5337 187.799 77.6883 187.622C77.9828 187.292 78.1885 187.012 78.3051 186.782C78.4228 186.553 78.4816 186.327 78.4816 186.106C78.4816 185.744 78.3547 185.449 78.101 185.222C77.8472 184.993 77.5167 184.879 77.1093 184.879C76.8205 184.879 76.5158 184.929 76.1949 185.029C75.8751 185.129 75.5328 185.282 75.1683 185.486V184.555C75.5387 184.407 75.8848 184.294 76.2066 184.218C76.5294 184.143 76.8244 184.105 77.0918 184.105C77.7967 184.105 78.3586 184.281 78.7776 184.634C79.1967 184.986 79.4062 185.457 79.4062 186.046C79.4062 186.326 79.3537 186.591 79.2487 186.842C79.1446 187.092 78.9541 187.387 78.677 187.727C78.6012 187.816 78.3596 188.07 77.9522 188.491C77.5458 188.912 76.9717 189.501 76.2299 190.257Z" fill="black"/>
<mask id="mask2_2129_428" style="mask-type:luminance" maskUnits="userSpaceOnUse" x="59" y="14" width="243" height="163">
<path d="M301.782 14.4H59.4268V176.773H301.782V14.4Z" fill="white"/>
</mask>
<g mask="url(#mask2_2129_428)">
<path d="M226.89 176.773V14.4" stroke="#B0B0B0" stroke-width="1.06667" stroke-linecap="square"/>
</g>
<path d="M226.89 176.773V181.44Z" fill="black"/>
<path d="M226.89 176.773V181.44" stroke="black" stroke-width="1.06667"/>
<path d="M216.811 195.03H218.959V187.613L216.621 188.082V186.884L218.946 186.415H220.261V195.03H222.409V196.136H216.811V195.03Z" fill="black"/>
<path d="M227.877 187.282C227.2 187.282 226.691 187.615 226.35 188.282C226.01 188.947 225.839 189.948 225.839 191.286C225.839 192.618 226.01 193.617 226.35 194.284C226.691 194.951 227.2 195.284 227.877 195.284C228.559 195.284 229.07 194.951 229.41 194.284C229.752 193.617 229.923 192.618 229.923 191.286C229.923 189.948 229.752 188.947 229.41 188.282C229.07 187.615 228.559 187.282 227.877 187.282ZM227.877 186.24C228.967 186.24 229.8 186.671 230.375 187.534C230.95 188.395 231.237 189.646 231.237 191.286C231.237 192.922 230.95 194.171 230.375 195.034C229.8 195.895 228.967 196.326 227.877 196.326C226.788 196.326 225.956 195.895 225.381 195.034C224.806 194.171 224.519 192.922 224.519 191.286C224.519 189.646 224.806 188.395 225.381 187.534C225.956 186.671 226.788 186.24 227.877 186.24Z" fill="black"/>
<path d="M236.038 187.363C236.478 187.457 236.822 187.653 237.069 187.952C237.316 188.249 237.44 188.617 237.44 189.054C237.44 189.725 237.21 190.245 236.748 190.613C236.286 190.981 235.63 191.165 234.779 191.165C234.494 191.165 234.201 191.136 233.898 191.08C233.596 191.024 233.284 190.939 232.962 190.826V189.938C233.217 190.087 233.496 190.199 233.799 190.275C234.103 190.351 234.421 190.389 234.753 190.389C235.329 190.389 235.769 190.275 236.071 190.047C236.373 189.82 236.525 189.489 236.525 189.054C236.525 188.653 236.384 188.339 236.103 188.114C235.822 187.887 235.431 187.774 234.931 187.774H234.137V187.017H234.967C235.419 187.017 235.765 186.927 236.005 186.746C236.246 186.565 236.366 186.304 236.366 185.964C236.366 185.615 236.242 185.347 235.994 185.161C235.747 184.973 235.392 184.879 234.931 184.879C234.678 184.879 234.407 184.907 234.118 184.962C233.83 185.017 233.512 185.101 233.166 185.216V184.396C233.516 184.299 233.844 184.226 234.149 184.178C234.454 184.129 234.742 184.105 235.012 184.105C235.711 184.105 236.264 184.264 236.67 184.582C237.078 184.899 237.281 185.327 237.281 185.868C237.281 186.245 237.174 186.563 236.958 186.823C236.742 187.083 236.435 187.263 236.038 187.363Z" fill="black"/>
<path d="M61.8579 176.773V179.44Z" fill="black"/>
<path d="M61.8579 176.773V179.44" stroke="black" stroke-width="0.8"/>
<path d="M116.584 176.773V179.44Z" fill="black"/>
<path d="M116.584 176.773V179.44" stroke="black" stroke-width="0.8"/>
<path d="M144.374 176.773V179.44Z" fill="black"/>
<path d="M144.374 176.773V179.44" stroke="black" stroke-width="0.8"/>
<path d="M164.09 176.773V179.44Z" fill="black"/>
<path d="M164.09 176.773V179.44" stroke="black" stroke-width="0.8"/>
<path d="M179.384 176.773V179.44Z" fill="black"/>
<path d="M179.384 176.773V179.44" stroke="black" stroke-width="0.8"/>
<path d="M191.879 176.773V179.44Z" fill="black"/>
<path d="M191.879 176.773V179.44" stroke="black" stroke-width="0.8"/>
<path d="M202.444 176.773V179.44Z" fill="black"/>
<path d="M202.444 176.773V179.44" stroke="black" stroke-width="0.8"/>
<path d="M211.596 176.773V179.44Z" fill="black"/>
<path d="M211.596 176.773V179.44" stroke="black" stroke-width="0.8"/>
<path d="M219.669 176.773V179.44Z" fill="black"/>
<path d="M219.669 176.773V179.44" stroke="black" stroke-width="0.8"/>
<path d="M274.396 176.773V179.44Z" fill="black"/>
<path d="M274.396 176.773V179.44" stroke="black" stroke-width="0.8"/>
<path d="M107.166 204.755H109.126L111.605 211.369L114.099 204.755H116.059V214.476H114.776V205.94L112.27 212.607H110.949L108.443 205.94V214.476H107.166V204.755Z" fill="black"/>
<path d="M121.443 208.023C120.801 208.023 120.293 208.274 119.92 208.776C119.546 209.277 119.359 209.964 119.359 210.836C119.359 211.708 119.545 212.395 119.915 212.896C120.288 213.398 120.797 213.648 121.443 213.648C122.081 213.648 122.587 213.397 122.959 212.894C123.333 212.39 123.52 211.704 123.52 210.836C123.52 209.972 123.333 209.287 122.959 208.782C122.587 208.276 122.081 208.023 121.443 208.023ZM121.443 207.009C122.484 207.009 123.302 207.348 123.897 208.026C124.493 208.702 124.79 209.639 124.79 210.836C124.79 212.029 124.493 212.966 123.897 213.646C123.302 214.326 122.484 214.665 121.443 214.665C120.397 214.665 119.577 214.326 118.984 213.646C118.393 212.966 118.097 212.029 118.097 210.836C118.097 209.639 118.393 208.702 118.984 208.026C119.577 207.348 120.397 207.009 121.443 207.009Z" fill="black"/>
<path d="M131.573 208.29V204.344H132.771V214.476H131.573V213.382C131.321 213.815 131.003 214.137 130.618 214.348C130.235 214.56 129.774 214.665 129.235 214.665C128.355 214.665 127.637 214.314 127.083 213.611C126.53 212.907 126.254 211.982 126.254 210.836C126.254 209.69 126.53 208.766 127.083 208.063C127.637 207.36 128.355 207.009 129.235 207.009C129.774 207.009 130.235 207.114 130.618 207.326C131.003 207.535 131.321 207.857 131.573 208.29ZM127.491 210.836C127.491 211.717 127.673 212.407 128.035 212.909C128.398 213.41 128.896 213.661 129.529 213.661C130.162 213.661 130.661 213.41 131.025 212.909C131.39 212.407 131.573 211.717 131.573 210.836C131.573 209.955 131.39 209.264 131.025 208.763C130.661 208.262 130.162 208.011 129.529 208.011C128.896 208.011 128.398 208.262 128.035 208.763C127.673 209.264 127.491 209.955 127.491 210.836Z" fill="black"/>
<path d="M141.476 210.53V211.115H135.968C136.021 211.94 136.269 212.569 136.714 213.001C137.158 213.432 137.777 213.648 138.572 213.648C139.032 213.648 139.477 213.592 139.909 213.48C140.341 213.367 140.771 213.198 141.197 212.971V214.105C140.766 214.287 140.325 214.426 139.874 214.521C139.423 214.617 138.965 214.665 138.501 214.665C137.337 214.665 136.416 214.327 135.737 213.651C135.057 212.973 134.718 212.056 134.718 210.901C134.718 209.707 135.04 208.761 135.684 208.061C136.329 207.36 137.198 207.009 138.293 207.009C139.273 207.009 140.049 207.325 140.62 207.957C141.191 208.587 141.476 209.445 141.476 210.53ZM140.278 210.178C140.27 209.523 140.087 209.001 139.728 208.611C139.37 208.219 138.896 208.023 138.305 208.023C137.637 208.023 137.102 208.212 136.701 208.59C136.3 208.968 136.068 209.5 136.007 210.186L140.278 210.178Z" fill="black"/>
<path d="M143.441 204.344H144.639V214.476H143.441V204.344Z" fill="black"/>
<path d="M157.264 205.073V206.357C156.765 206.118 156.294 205.94 155.851 205.823C155.408 205.705 154.98 205.646 154.568 205.646C153.852 205.646 153.3 205.785 152.911 206.063C152.523 206.341 152.328 206.736 152.328 207.248C152.328 207.679 152.457 208.004 152.716 208.223C152.974 208.442 153.464 208.618 154.184 208.753L154.978 208.915C155.959 209.103 156.682 209.432 157.149 209.903C157.616 210.373 157.849 211.003 157.849 211.792C157.849 212.735 157.533 213.45 156.901 213.936C156.271 214.422 155.346 214.665 154.126 214.665C153.666 214.665 153.177 214.613 152.657 214.509C152.139 214.405 151.602 214.251 151.047 214.046V212.692C151.58 212.991 152.103 213.217 152.616 213.369C153.128 213.521 153.632 213.596 154.126 213.596C154.876 213.596 155.455 213.449 155.864 213.155C156.272 212.859 156.476 212.437 156.476 211.89C156.476 211.414 156.33 211.041 156.036 210.771C155.743 210.502 155.263 210.3 154.595 210.165L153.793 210.009C152.812 209.814 152.102 209.509 151.664 209.092C151.226 208.676 151.007 208.096 151.007 207.353C151.007 206.493 151.31 205.816 151.916 205.321C152.521 204.827 153.355 204.58 154.418 204.58C154.875 204.58 155.339 204.621 155.811 204.705C156.285 204.787 156.769 204.91 157.264 205.073Z" fill="black"/>
<path d="M159.848 207.184H161.046V214.476H159.848V207.184ZM159.848 204.344H161.046V205.863H159.848V204.344Z" fill="black"/>
<path d="M163.032 207.184H168.721V208.278L164.217 213.519H168.721V214.476H162.869V213.382L167.375 208.14H163.032V207.184Z" fill="black"/>
<path d="M176.789 210.53V211.115H171.28C171.333 211.94 171.582 212.569 172.026 213.001C172.471 213.432 173.09 213.648 173.884 213.648C174.344 213.648 174.79 213.592 175.222 213.48C175.654 213.367 176.083 213.198 176.509 212.971V214.105C176.079 214.287 175.638 214.426 175.187 214.521C174.735 214.617 174.277 214.665 173.814 214.665C172.65 214.665 171.728 214.327 171.049 213.651C170.37 212.973 170.03 212.056 170.03 210.901C170.03 209.707 170.352 208.761 170.997 208.061C171.641 207.36 172.511 207.009 173.605 207.009C174.586 207.009 175.362 207.325 175.932 207.957C176.503 208.587 176.789 209.445 176.789 210.53ZM175.591 210.178C175.582 209.523 175.399 209.001 175.041 208.611C174.682 208.219 174.208 208.023 173.618 208.023C172.95 208.023 172.415 208.212 172.014 208.59C171.612 208.968 171.381 209.5 171.32 210.186L175.591 210.178Z" fill="black"/>
<path d="M185.869 204.359C185.289 205.356 184.857 206.344 184.574 207.321C184.292 208.298 184.151 209.287 184.151 210.29C184.151 211.292 184.293 212.284 184.578 213.267C184.862 214.251 185.293 215.239 185.869 216.234H184.828C184.178 215.213 183.691 214.21 183.367 213.226C183.044 212.241 182.882 211.262 182.882 210.29C182.882 209.322 183.042 208.348 183.363 207.367C183.685 206.385 184.174 205.382 184.828 204.359H185.869Z" fill="black"/>
<path d="M193.871 208.584C194.171 208.045 194.53 207.648 194.946 207.392C195.363 207.137 195.853 207.009 196.417 207.009C197.177 207.009 197.763 207.275 198.176 207.807C198.588 208.337 198.794 209.093 198.794 210.073V214.476H197.59V210.113C197.59 209.414 197.466 208.896 197.217 208.559C196.97 208.22 196.593 208.051 196.086 208.051C195.465 208.051 194.974 208.257 194.613 208.669C194.253 209.08 194.073 209.642 194.073 210.355V214.476H192.869V210.113C192.869 209.41 192.746 208.891 192.498 208.555C192.251 208.219 191.869 208.051 191.353 208.051C190.74 208.051 190.253 208.257 189.892 208.671C189.532 209.085 189.353 209.646 189.353 210.355V214.476H188.148V207.184H189.353V208.317C189.626 207.87 189.954 207.54 190.336 207.328C190.718 207.115 191.171 207.009 191.696 207.009C192.227 207.009 192.678 207.144 193.048 207.413C193.419 207.681 193.694 208.071 193.871 208.584Z" fill="black"/>
<path d="M202.341 213.382V217.248H201.137V207.184H202.341V208.29C202.594 207.857 202.912 207.535 203.295 207.326C203.68 207.114 204.139 207.009 204.672 207.009C205.558 207.009 206.278 207.36 206.83 208.063C207.385 208.766 207.662 209.69 207.662 210.836C207.662 211.982 207.385 212.907 206.83 213.611C206.278 214.314 205.558 214.665 204.672 214.665C204.139 214.665 203.68 214.56 203.295 214.348C202.912 214.137 202.594 213.815 202.341 213.382ZM206.418 210.836C206.418 209.955 206.237 209.264 205.874 208.763C205.512 208.262 205.014 208.011 204.38 208.011C203.746 208.011 203.247 208.262 202.885 208.763C202.522 209.264 202.341 209.955 202.341 210.836C202.341 211.717 202.522 212.407 202.885 212.909C203.247 213.41 203.746 213.661 204.38 213.661C205.014 213.661 205.512 213.41 205.874 212.909C206.237 212.407 206.418 211.717 206.418 210.836Z" fill="black"/>
<path d="M212.961 210.811C211.993 210.811 211.322 210.921 210.948 211.142C210.575 211.363 210.388 211.741 210.388 212.276C210.388 212.701 210.528 213.038 210.809 213.288C211.089 213.537 211.47 213.661 211.95 213.661C212.616 213.661 213.149 213.426 213.55 212.955C213.952 212.484 214.152 211.858 214.152 211.078V210.811H212.961ZM215.35 210.315V214.476H214.152V213.369C213.879 213.811 213.538 214.137 213.13 214.348C212.721 214.56 212.222 214.665 211.632 214.665C210.886 214.665 210.292 214.455 209.85 214.036C209.41 213.617 209.19 213.055 209.19 212.353C209.19 211.533 209.464 210.915 210.013 210.498C210.563 210.082 211.382 209.873 212.471 209.873H214.152V209.755C214.152 209.203 213.971 208.777 213.609 208.476C213.246 208.174 212.737 208.023 212.082 208.023C211.665 208.023 211.259 208.073 210.863 208.173C210.468 208.273 210.089 208.423 209.725 208.623V207.515C210.163 207.346 210.588 207.219 211 207.136C211.413 207.051 211.814 207.009 212.205 207.009C213.26 207.009 214.048 207.282 214.569 207.83C215.09 208.376 215.35 209.204 215.35 210.315Z" fill="black"/>
<path d="M222.041 208.303C221.907 208.225 221.76 208.168 221.602 208.132C221.443 208.094 221.269 208.076 221.079 208.076C220.401 208.076 219.881 208.296 219.518 208.736C219.156 209.176 218.975 209.809 218.975 210.634V214.476H217.771V207.184H218.975V208.317C219.227 207.874 219.555 207.546 219.958 207.332C220.362 207.117 220.853 207.009 221.431 207.009C221.513 207.009 221.604 207.014 221.704 207.026C221.804 207.035 221.914 207.051 222.035 207.073L222.041 208.303Z" fill="black"/>
<path d="M226.613 210.811C225.645 210.811 224.974 210.921 224.601 211.142C224.227 211.363 224.04 211.741 224.04 212.276C224.04 212.701 224.18 213.038 224.461 213.288C224.742 213.537 225.122 213.661 225.603 213.661C226.268 213.661 226.801 213.426 227.203 212.955C227.604 212.484 227.805 211.858 227.805 211.078V210.811H226.613ZM229.003 210.315V214.476H227.805V213.369C227.531 213.811 227.19 214.137 226.782 214.348C226.374 214.56 225.874 214.665 225.284 214.665C224.538 214.665 223.944 214.455 223.503 214.036C223.062 213.617 222.842 213.055 222.842 212.353C222.842 211.533 223.117 210.915 223.665 210.498C224.215 210.082 225.035 209.873 226.124 209.873H227.805V209.755C227.805 209.203 227.624 208.777 227.261 208.476C226.899 208.174 226.39 208.023 225.734 208.023C225.317 208.023 224.911 208.073 224.515 208.173C224.121 208.273 223.742 208.423 223.378 208.623V207.515C223.815 207.346 224.24 207.219 224.653 207.136C225.065 207.051 225.467 207.009 225.857 207.009C226.912 207.009 227.701 207.282 228.221 207.83C228.742 208.376 229.003 209.204 229.003 210.315Z" fill="black"/>
<path d="M237.146 208.584C237.446 208.045 237.804 207.648 238.221 207.392C238.637 207.137 239.128 207.009 239.692 207.009C240.451 207.009 241.037 207.275 241.45 207.807C241.862 208.337 242.069 209.093 242.069 210.073V214.476H240.865V210.113C240.865 209.414 240.74 208.896 240.492 208.559C240.244 208.22 239.867 208.051 239.36 208.051C238.74 208.051 238.249 208.257 237.887 208.669C237.528 209.08 237.348 209.642 237.348 210.355V214.476H236.144V210.113C236.144 209.41 236.02 208.891 235.773 208.555C235.526 208.219 235.144 208.051 234.627 208.051C234.015 208.051 233.528 208.257 233.167 208.671C232.807 209.085 232.627 209.646 232.627 210.355V214.476H231.423V207.184H232.627V208.317C232.901 207.87 233.228 207.54 233.61 207.328C233.992 207.115 234.446 207.009 234.971 207.009C235.501 207.009 235.952 207.144 236.323 207.413C236.694 207.681 236.968 208.071 237.146 208.584Z" fill="black"/>
<path d="M249.105 207.398V208.532C248.768 208.358 248.416 208.228 248.051 208.142C247.687 208.055 247.309 208.011 246.918 208.011C246.323 208.011 245.877 208.102 245.58 208.284C245.283 208.466 245.134 208.739 245.134 209.105C245.134 209.382 245.24 209.601 245.453 209.759C245.665 209.917 246.093 210.068 246.736 210.211L247.147 210.303C247.997 210.485 248.601 210.742 248.959 211.073C249.318 211.405 249.497 211.869 249.497 212.463C249.497 213.141 249.229 213.678 248.693 214.073C248.156 214.468 247.42 214.665 246.482 214.665C246.092 214.665 245.685 214.627 245.261 214.551C244.838 214.474 244.392 214.36 243.924 214.209V212.971C244.367 213.202 244.803 213.375 245.232 213.49C245.661 213.604 246.087 213.661 246.509 213.661C247.073 213.661 247.506 213.564 247.809 213.371C248.113 213.178 248.265 212.906 248.265 212.555C248.265 212.23 248.156 211.98 247.936 211.807C247.718 211.633 247.238 211.466 246.495 211.305L246.078 211.207C245.336 211.051 244.8 210.812 244.47 210.488C244.14 210.164 243.976 209.721 243.976 209.157C243.976 208.471 244.219 207.942 244.705 207.569C245.191 207.196 245.881 207.009 246.776 207.009C247.218 207.009 247.634 207.042 248.024 207.107C248.415 207.171 248.776 207.268 249.105 207.398Z" fill="black"/>
<path d="M251.216 204.359H252.258C252.908 205.382 253.395 206.385 253.718 207.367C254.042 208.348 254.204 209.322 254.204 210.29C254.204 211.262 254.042 212.241 253.718 213.226C253.395 214.21 252.908 215.213 252.258 216.234H251.216C251.793 215.239 252.223 214.251 252.508 213.267C252.793 212.284 252.935 211.292 252.935 210.29C252.935 209.287 252.793 208.298 252.508 207.321C252.223 206.344 251.793 205.356 251.216 204.359Z" fill="black"/>
<mask id="mask3_2129_428" style="mask-type:luminance" maskUnits="userSpaceOnUse" x="59" y="14" width="243" height="163">
<path d="M301.782 14.4H59.4268V176.773H301.782V14.4Z" fill="white"/>
</mask>
<g mask="url(#mask3_2129_428)">
<path d="M59.4268 149.74H301.782" stroke="#B0B0B0" stroke-width="1.06667" stroke-linecap="square"/>
</g>
<path d="M59.4269 149.74H54.7603Z" fill="black"/>
<path d="M59.4269 149.74H54.7603" stroke="black" stroke-width="1.06667"/>
<path d="M38.1663 146.23L34.8455 151.42H38.1663V146.23ZM37.8205 145.084H39.4746V151.42H40.8621V152.514H39.4746V154.805H38.1663V152.514H33.7788V151.245L37.8205 145.084Z" fill="black"/>
<path d="M45.8471 145.951C45.1707 145.951 44.6617 146.284 44.32 146.951C43.9797 147.616 43.8096 148.618 43.8096 149.955C43.8096 151.287 43.9797 152.286 44.32 152.953C44.6617 153.62 45.1707 153.953 45.8471 153.953C46.529 153.953 47.0402 153.62 47.3804 152.953C47.7221 152.286 47.8929 151.287 47.8929 149.955C47.8929 148.618 47.7221 147.616 47.3804 146.951C47.0402 146.284 46.529 145.951 45.8471 145.951ZM45.8471 144.909C46.9374 144.909 47.77 145.341 48.345 146.203C48.92 147.064 49.2075 148.315 49.2075 149.955C49.2075 151.591 48.92 152.841 48.345 153.703C47.77 154.564 46.9374 154.995 45.8471 154.995C44.7582 154.995 43.9263 154.564 43.3513 153.703C42.7763 152.841 42.4888 151.591 42.4888 149.955C42.4888 148.315 42.7763 147.064 43.3513 146.203C43.9263 145.341 44.7582 144.909 45.8471 144.909Z" fill="black"/>
<mask id="mask4_2129_428" style="mask-type:luminance" maskUnits="userSpaceOnUse" x="59" y="14" width="243" height="163">
<path d="M301.781 14.4H59.4263V176.773H301.781V14.4Z" fill="white"/>
</mask>
<g mask="url(#mask4_2129_428)">
<path d="M59.4263 100.351H301.781" stroke="#B0B0B0" stroke-width="1.06667" stroke-linecap="square"/>
</g>
<path d="M59.4264 100.351H54.7598Z" fill="black"/>
<path d="M59.4264 100.351H54.7598" stroke="black" stroke-width="1.06667"/>
<path d="M37.5285 100.033C36.9382 100.033 36.4701 100.236 36.1243 100.64C35.7798 101.042 35.6076 101.595 35.6076 102.298C35.6076 102.997 35.7798 103.549 36.1243 103.956C36.4701 104.362 36.9382 104.565 37.5285 104.565C38.1187 104.565 38.5861 104.362 38.9305 103.956C39.275 103.549 39.4472 102.997 39.4472 102.298C39.4472 101.595 39.275 101.042 38.9305 100.64C38.5861 100.236 38.1187 100.033 37.5285 100.033ZM40.1389 95.9106V97.1085C39.8083 96.9529 39.475 96.8342 39.1389 96.7522C38.8028 96.6689 38.4694 96.6272 38.1389 96.6272C37.2708 96.6272 36.6076 96.9203 36.1493 97.5064C35.6923 98.0925 35.4312 98.9779 35.366 100.163C35.6215 99.7849 35.9423 99.4953 36.3285 99.2939C36.716 99.0925 37.1416 98.9918 37.6055 98.9918C38.5819 98.9918 39.3535 99.2883 39.9201 99.8814C40.4868 100.473 40.7701 101.279 40.7701 102.298C40.7701 103.297 40.475 104.098 39.8847 104.702C39.2944 105.305 38.509 105.606 37.5285 105.606C36.4035 105.606 35.5437 105.176 34.9493 104.315C34.3548 103.452 34.0576 102.203 34.0576 100.567C34.0576 99.0307 34.4222 97.8057 35.1514 96.8918C35.8805 95.9779 36.859 95.521 38.0868 95.521C38.4173 95.521 38.7507 95.5536 39.0868 95.6189C39.4229 95.6842 39.7736 95.7814 40.1389 95.9106Z" fill="black"/>
<path d="M45.8471 96.5626C45.1707 96.5626 44.6617 96.896 44.32 97.5626C43.9797 98.2279 43.8096 99.2293 43.8096 100.567C43.8096 101.899 43.9797 102.898 44.32 103.565C44.6617 104.231 45.1707 104.565 45.8471 104.565C46.529 104.565 47.0402 104.231 47.3804 103.565C47.7221 102.898 47.8929 101.899 47.8929 100.567C47.8929 99.2293 47.7221 98.2279 47.3804 97.5626C47.0402 96.896 46.529 96.5626 45.8471 96.5626ZM45.8471 95.521C46.9374 95.521 47.77 95.9522 48.345 96.8147C48.92 97.6758 49.2075 98.9265 49.2075 100.567C49.2075 102.203 48.92 103.452 48.345 104.315C47.77 105.176 46.9374 105.606 45.8471 105.606C44.7582 105.606 43.9263 105.176 43.3513 104.315C42.7763 103.452 42.4888 102.203 42.4888 100.567C42.4888 98.9265 42.7763 97.6758 43.3513 96.8147C43.9263 95.9522 44.7582 95.521 45.8471 95.521Z" fill="black"/>
<mask id="mask5_2129_428" style="mask-type:luminance" maskUnits="userSpaceOnUse" x="59" y="14" width="243" height="163">
<path d="M301.782 14.4H59.4268V176.773H301.782V14.4Z" fill="white"/>
</mask>
<g mask="url(#mask5_2129_428)">
<path d="M59.4268 50.9627H301.782" stroke="#B0B0B0" stroke-width="1.06667" stroke-linecap="square"/>
</g>
<path d="M59.4264 50.9627H54.7598Z" fill="black"/>
<path d="M59.4264 50.9627H54.7598" stroke="black" stroke-width="1.06667"/>
<path d="M37.3641 51.4117C36.7391 51.4117 36.2474 51.5791 35.8891 51.9138C35.5322 52.2485 35.3537 52.7082 35.3537 53.2929C35.3537 53.8791 35.5322 54.3395 35.8891 54.6742C36.2474 55.0089 36.7391 55.1763 37.3641 55.1763C37.9891 55.1763 38.4815 55.0082 38.8412 54.6721C39.2023 54.3346 39.3828 53.8749 39.3828 53.2929C39.3828 52.7082 39.2037 52.2485 38.8453 51.9138C38.4884 51.5791 37.9947 51.4117 37.3641 51.4117ZM36.0495 50.8534C35.4856 50.7145 35.046 50.452 34.7308 50.0659C34.4169 49.6784 34.2599 49.2068 34.2599 48.6513C34.2599 47.8749 34.5363 47.261 35.0891 46.8096C35.6433 46.3582 36.4016 46.1325 37.3641 46.1325C38.3322 46.1325 39.0919 46.3582 39.6433 46.8096C40.1947 47.261 40.4703 47.8749 40.4703 48.6513C40.4703 49.2068 40.3127 49.6784 39.9974 50.0659C39.6835 50.452 39.2467 50.7145 38.687 50.8534C39.3203 51.0006 39.8134 51.2895 40.1662 51.72C40.5203 52.1492 40.6974 52.6735 40.6974 53.2929C40.6974 54.236 40.4099 54.9596 39.8349 55.4638C39.2599 55.9666 38.4363 56.2179 37.3641 56.2179C36.2933 56.2179 35.4697 55.9666 34.8933 55.4638C34.3183 54.9596 34.0308 54.236 34.0308 53.2929C34.0308 52.6735 34.2085 52.1492 34.5641 51.72C34.921 51.2895 35.4162 51.0006 36.0495 50.8534ZM35.5683 48.7763C35.5683 49.2791 35.7252 49.6714 36.0391 49.9534C36.3544 50.2353 36.796 50.3763 37.3641 50.3763C37.9294 50.3763 38.371 50.2353 38.6891 49.9534C39.0085 49.6714 39.1683 49.2791 39.1683 48.7763C39.1683 48.2721 39.0085 47.8791 38.6891 47.5971C38.371 47.3152 37.9294 47.1742 37.3641 47.1742C36.796 47.1742 36.3544 47.3152 36.0391 47.5971C35.7252 47.8791 35.5683 48.2721 35.5683 48.7763Z" fill="black"/>
<path d="M45.8471 47.1742C45.1707 47.1742 44.6617 47.5075 44.32 48.1742C43.9797 48.8395 43.8096 49.8409 43.8096 51.1784C43.8096 52.5103 43.9797 53.5096 44.32 54.1763C44.6617 54.8429 45.1707 55.1763 45.8471 55.1763C46.529 55.1763 47.0402 54.8429 47.3804 54.1763C47.7221 53.5096 47.8929 52.5103 47.8929 51.1784C47.8929 49.8409 47.7221 48.8395 47.3804 48.1742C47.0402 47.5075 46.529 47.1742 45.8471 47.1742ZM45.8471 46.1325C46.9374 46.1325 47.77 46.5638 48.345 47.4263C48.92 48.2874 49.2075 49.5381 49.2075 51.1784C49.2075 52.8145 48.92 54.0638 48.345 54.9263C47.77 55.7874 46.9374 56.2179 45.8471 56.2179C44.7582 56.2179 43.9263 55.7874 43.3513 54.9263C42.7763 54.0638 42.4888 52.8145 42.4888 51.1784C42.4888 49.5381 42.7763 48.2874 43.3513 47.4263C43.9263 46.5638 44.7582 46.1325 45.8471 46.1325Z" fill="black"/>
<path d="M21.3558 129.548C21.3558 130.516 21.4662 131.187 21.687 131.561C21.9079 131.934 22.2857 132.121 22.8204 132.121C23.2454 132.121 23.5829 131.981 23.8329 131.7C24.0815 131.42 24.2058 131.039 24.2058 130.559C24.2058 129.893 23.9704 129.36 23.4995 128.959C23.0287 128.557 22.403 128.357 21.6225 128.357H21.3558V129.548ZM20.86 127.159H25.0204V128.357H23.9141C24.3558 128.63 24.6822 128.971 24.8933 129.379C25.1044 129.788 25.21 130.287 25.21 130.877C25.21 131.623 25.0002 132.217 24.5808 132.659C24.1613 133.099 23.6002 133.319 22.8975 133.319C22.078 133.319 21.46 133.045 21.0433 132.496C20.6266 131.946 20.4183 131.127 20.4183 130.038V128.357H20.2995C19.7482 128.357 19.3218 128.538 19.0204 128.9C18.719 129.263 18.5683 129.772 18.5683 130.427C18.5683 130.844 18.6183 131.25 18.7183 131.646C18.8183 132.041 18.9683 132.42 19.1683 132.784H18.06C17.8905 132.346 17.7641 131.921 17.6808 131.509C17.5961 131.096 17.5537 130.695 17.5537 130.304C17.5537 129.249 17.8273 128.461 18.3745 127.94C18.9204 127.419 19.7488 127.159 20.86 127.159Z" fill="black"/>
<path d="M18.0079 119.444H19.1287C18.9412 119.783 18.8009 120.123 18.7079 120.463C18.6148 120.803 18.5683 121.147 18.5683 121.494C18.5683 122.272 18.8148 122.876 19.3079 123.307C19.7995 123.736 20.4905 123.951 21.3808 123.951C22.2711 123.951 22.9627 123.736 23.4558 123.307C23.9475 122.876 24.1933 122.272 24.1933 121.494C24.1933 121.147 24.1468 120.803 24.0537 120.463C23.9607 120.123 23.8204 119.783 23.6329 119.444H24.7412C24.8968 119.779 25.0134 120.126 25.0912 120.484C25.1704 120.841 25.21 121.221 25.21 121.626C25.21 122.724 24.8648 123.597 24.1745 124.244C23.4843 124.89 22.553 125.213 21.3808 125.213C20.1919 125.213 19.2572 124.887 18.5766 124.234C17.8947 123.58 17.5537 122.684 17.5537 121.546C17.5537 121.178 17.5919 120.819 17.6683 120.467C17.7433 120.116 17.8565 119.775 18.0079 119.444Z" fill="black"/>
<path d="M18.0079 112.114H19.1287C18.9412 112.452 18.8009 112.792 18.7079 113.132C18.6148 113.473 18.5683 113.816 18.5683 114.164C18.5683 114.941 18.8148 115.545 19.3079 115.976C19.7995 116.405 20.4905 116.62 21.3808 116.62C22.2711 116.62 22.9627 116.405 23.4558 115.976C23.9475 115.545 24.1933 114.941 24.1933 114.164C24.1933 113.816 24.1468 113.473 24.0537 113.132C23.9607 112.792 23.8204 112.452 23.6329 112.114H24.7412C24.8968 112.448 25.0134 112.795 25.0912 113.153C25.1704 113.51 25.21 113.891 25.21 114.295C25.21 115.393 24.8648 116.266 24.1745 116.914C23.4843 117.559 22.553 117.882 21.3808 117.882C20.1919 117.882 19.2572 117.556 18.5766 116.903C17.8947 116.249 17.5537 115.353 17.5537 114.216C17.5537 113.848 17.5919 113.488 17.6683 113.136C17.7433 112.785 17.8565 112.444 18.0079 112.114Z" fill="black"/>
<path d="M22.1433 110.154H17.7287V108.956H22.0975C22.7877 108.956 23.3058 108.822 23.6516 108.554C23.9961 108.284 24.1683 107.88 24.1683 107.341C24.1683 106.695 23.962 106.185 23.5495 105.81C23.137 105.434 22.5745 105.245 21.862 105.245H17.7287V104.047H25.0204V105.245H23.8995C24.3426 105.536 24.6718 105.873 24.887 106.258C25.1023 106.641 25.21 107.087 25.21 107.595C25.21 108.433 24.9495 109.069 24.4287 109.504C23.9079 109.937 23.1461 110.154 22.1433 110.154Z" fill="black"/>
<path d="M18.8476 97.3552C18.7698 97.4899 18.7129 97.6365 18.6768 97.7948C18.6393 97.9531 18.6205 98.1274 18.6205 98.3177C18.6205 98.9955 18.8406 99.5156 19.2809 99.8781C19.7212 100.241 20.3538 100.422 21.1788 100.422H25.0205V101.626H17.7288V100.422H18.8622C18.4191 100.169 18.0906 99.8413 17.8768 99.4386C17.6615 99.0344 17.5538 98.5434 17.5538 97.9656C17.5538 97.8837 17.5594 97.7927 17.5705 97.6927C17.5802 97.5927 17.5962 97.4823 17.6184 97.3615L18.8476 97.3552Z" fill="black"/>
<path d="M21.3558 92.7839C21.3558 93.7519 21.4662 94.4227 21.687 94.7964C21.9079 95.17 22.2857 95.3568 22.8204 95.3568C23.2454 95.3568 23.5829 95.2165 23.8329 94.9359C24.0815 94.6554 24.2058 94.2748 24.2058 93.7943C24.2058 93.129 23.9704 92.5957 23.4995 92.1943C23.0287 91.7929 22.403 91.5922 21.6225 91.5922H21.3558V92.7839ZM20.86 90.3943H25.0204V91.5922H23.9141C24.3558 91.8658 24.6822 92.2068 24.8933 92.6151C25.1044 93.0234 25.21 93.5227 25.21 94.113C25.21 94.8589 25.0002 95.4526 24.5808 95.8943C24.1613 96.3345 23.6002 96.5547 22.8975 96.5547C22.078 96.5547 21.46 96.2804 21.0433 95.7318C20.6266 95.1818 20.4183 94.3623 20.4183 93.2734V91.5922H20.2995C19.7482 91.5922 19.3218 91.7734 19.0204 92.1359C18.719 92.4984 18.5683 93.0075 18.5683 93.663C18.5683 94.0797 18.6183 94.4859 18.7183 94.8818C18.8183 95.2762 18.9683 95.6554 19.1683 96.0193H18.06C17.8905 95.5818 17.7641 95.1568 17.6808 94.7443C17.5961 94.3318 17.5537 93.9304 17.5537 93.5401C17.5537 92.4845 17.8273 91.6964 18.3745 91.1755C18.9204 90.6547 19.7488 90.3943 20.86 90.3943Z" fill="black"/>
<path d="M18.0079 82.6799H19.1287C18.9412 83.0188 18.8009 83.3584 18.7079 83.6987C18.6148 84.039 18.5683 84.3827 18.5683 84.7299C18.5683 85.5077 18.8148 86.1119 19.3079 86.5424C19.7995 86.9716 20.4905 87.1862 21.3808 87.1862C22.2711 87.1862 22.9627 86.9716 23.4558 86.5424C23.9475 86.1119 24.1933 85.5077 24.1933 84.7299C24.1933 84.3827 24.1468 84.039 24.0537 83.6987C23.9607 83.3584 23.8204 83.0188 23.6329 82.6799H24.7412C24.8968 83.0147 25.0134 83.3612 25.0912 83.7195C25.1704 84.0765 25.21 84.457 25.21 84.8612C25.21 85.9598 24.8648 86.8327 24.1745 87.4799C23.4843 88.1258 22.553 88.4487 21.3808 88.4487C20.1919 88.4487 19.2572 88.1223 18.5766 87.4695C17.8947 86.8154 17.5537 85.9195 17.5537 84.782C17.5537 84.414 17.5919 84.0543 17.6683 83.7029C17.7433 83.3515 17.8565 83.0105 18.0079 82.6799Z" fill="black"/>
<path d="M25.6976 77.5638C26.5657 77.9013 27.1317 78.2312 27.3955 78.5534C27.6608 78.8742 27.7935 79.3034 27.7935 79.8409V80.7992H26.7914V80.0951C26.7914 79.7659 26.7129 79.5103 26.556 79.3284C26.4004 79.1451 26.0317 78.943 25.4497 78.7221L24.9039 78.5076L17.7289 81.4555V80.1867L23.431 77.9076L17.7289 75.6284V74.3596L25.6976 77.5638Z" fill="black"/>
<path d="M20.7433 60.0307C20.7433 60.4085 20.9037 60.705 21.2245 60.9203C21.5454 61.1342 21.9926 61.2412 22.5662 61.2412C23.1301 61.2412 23.5738 61.1342 23.8975 60.9203C24.2211 60.705 24.3829 60.4085 24.3829 60.0307C24.3829 59.6613 24.2211 59.3696 23.8975 59.1557C23.5738 58.9405 23.1301 58.8328 22.5662 58.8328C21.9968 58.8328 21.5509 58.9405 21.2287 59.1557C20.9051 59.3696 20.7433 59.6613 20.7433 60.0307ZM19.9162 60.0307C19.9162 59.3446 20.1551 58.8002 20.6329 58.3974C21.1093 57.9932 21.7537 57.7911 22.5662 57.7911C23.3773 57.7911 24.0211 57.9939 24.4975 58.3995C24.9725 58.805 25.21 59.3488 25.21 60.0307C25.21 60.7252 24.9725 61.2745 24.4975 61.6787C24.0211 62.0814 23.3773 62.2828 22.5662 62.2828C21.7495 62.2828 21.1037 62.08 20.6287 61.6745C20.1537 61.2689 19.9162 60.721 19.9162 60.0307ZM15.9516 66.7495C15.9516 67.1231 16.1134 67.4175 16.437 67.6328C16.7593 67.8467 17.203 67.9537 17.7683 67.9537C18.3405 67.9537 18.7877 67.8474 19.11 67.6349C19.4308 67.4224 19.5912 67.1273 19.5912 66.7495C19.5912 66.3717 19.4308 66.0759 19.11 65.862C18.7877 65.6467 18.3405 65.5391 17.7683 65.5391C17.2086 65.5391 16.7662 65.6474 16.4412 65.8641C16.1148 66.0807 15.9516 66.3759 15.9516 66.7495ZM15.1245 60.8703V59.8286L25.21 65.9099V66.9516L15.1245 60.8703ZM15.1245 66.7495C15.1245 66.0634 15.362 65.5168 15.837 65.1099C16.312 64.7016 16.9558 64.4974 17.7683 64.4974C18.5877 64.4974 19.2343 64.7002 19.7079 65.1057C20.1815 65.5113 20.4183 66.0592 20.4183 66.7495C20.4183 67.4398 20.1808 67.9856 19.7058 68.387C19.2294 68.7884 18.5836 68.9891 17.7683 68.9891C16.96 68.9891 16.3176 68.7877 15.8412 68.3849C15.3634 67.9807 15.1245 67.4356 15.1245 66.7495Z" fill="black"/>
<path d="M59.4268 176.773V14.4" stroke="black" stroke-width="1.06667" stroke-linecap="square"/>
<path d="M59.4268 176.773H301.782" stroke="black" stroke-width="1.06667" stroke-linecap="square"/>
<path d="M103.215 132.636C103.215 133.557 103.049 134.352 102.717 135.023C102.384 135.693 101.928 136.21 101.349 136.574C100.769 136.938 100.107 137.119 99.3631 137.119C98.6188 137.119 97.9569 136.938 97.3773 136.574C96.7978 136.21 96.3418 135.693 96.0094 135.023C95.677 134.352 95.5108 133.557 95.5108 132.636C95.5108 131.716 95.677 130.92 96.0094 130.25C96.3418 129.58 96.7978 129.062 97.3773 128.699C97.9569 128.335 98.6188 128.153 99.3631 128.153C100.107 128.153 100.769 128.335 101.349 128.699C101.928 129.062 102.384 129.58 102.717 130.25C103.049 130.92 103.215 131.716 103.215 132.636ZM102.193 132.636C102.193 131.881 102.066 131.243 101.813 130.723C101.563 130.203 101.224 129.81 100.795 129.543C100.369 129.276 99.8915 129.142 99.3631 129.142C98.8347 129.142 98.356 129.276 97.927 129.543C97.5009 129.81 97.1614 130.203 96.9086 130.723C96.6586 131.243 96.5336 131.881 96.5336 132.636C96.5336 133.392 96.6586 134.03 96.9086 134.55C97.1614 135.07 97.5009 135.463 97.927 135.73C98.356 135.997 98.8347 136.131 99.3631 136.131C99.8915 136.131 100.369 135.997 100.795 135.73C101.224 135.463 101.563 135.07 101.813 134.55C102.066 134.03 102.193 133.392 102.193 132.636ZM104.856 137V130.455H105.828V131.443H105.896C106.015 131.119 106.231 130.857 106.544 130.655C106.856 130.453 107.208 130.352 107.6 130.352C107.674 130.352 107.767 130.354 107.877 130.357C107.988 130.359 108.072 130.364 108.129 130.369V131.392C108.095 131.384 108.017 131.371 107.894 131.354C107.775 131.334 107.649 131.324 107.515 131.324C107.197 131.324 106.913 131.391 106.663 131.524C106.416 131.655 106.22 131.837 106.075 132.07C105.933 132.3 105.862 132.562 105.862 132.858V137H104.856ZM109.321 137V130.455H110.327V137H109.321ZM109.832 129.364C109.636 129.364 109.467 129.297 109.325 129.163C109.186 129.03 109.116 128.869 109.116 128.682C109.116 128.494 109.186 128.334 109.325 128.2C109.467 128.067 109.636 128 109.832 128C110.028 128 110.196 128.067 110.335 128.2C110.477 128.334 110.548 128.494 110.548 128.682C110.548 128.869 110.477 129.03 110.335 129.163C110.196 129.297 110.028 129.364 109.832 129.364ZM114.811 139.591C114.325 139.591 113.907 139.528 113.558 139.403C113.208 139.281 112.917 139.119 112.684 138.918C112.454 138.719 112.271 138.506 112.134 138.278L112.936 137.716C113.026 137.835 113.142 137.972 113.281 138.125C113.42 138.281 113.61 138.416 113.852 138.53C114.096 138.646 114.416 138.705 114.811 138.705C115.339 138.705 115.775 138.577 116.119 138.321C116.463 138.065 116.634 137.665 116.634 137.119V135.79H116.549C116.475 135.909 116.37 136.057 116.234 136.233C116.1 136.406 115.907 136.561 115.654 136.697C115.404 136.831 115.066 136.898 114.64 136.898C114.112 136.898 113.637 136.773 113.217 136.523C112.799 136.273 112.468 135.909 112.224 135.432C111.982 134.955 111.862 134.375 111.862 133.693C111.862 133.023 111.98 132.439 112.215 131.942C112.451 131.442 112.779 131.055 113.2 130.783C113.62 130.507 114.106 130.369 114.657 130.369C115.083 130.369 115.421 130.44 115.671 130.582C115.924 130.722 116.117 130.881 116.251 131.06C116.387 131.236 116.492 131.381 116.566 131.494H116.669V130.455H117.64V137.188C117.64 137.75 117.512 138.207 117.257 138.56C117.004 138.915 116.663 139.175 116.234 139.339C115.808 139.507 115.333 139.591 114.811 139.591ZM114.776 135.994C115.18 135.994 115.521 135.902 115.799 135.717C116.078 135.533 116.289 135.267 116.434 134.92C116.579 134.574 116.651 134.159 116.651 133.676C116.651 133.205 116.58 132.788 116.438 132.428C116.296 132.067 116.086 131.784 115.808 131.58C115.529 131.375 115.186 131.273 114.776 131.273C114.35 131.273 113.995 131.381 113.711 131.597C113.43 131.812 113.218 132.102 113.076 132.466C112.937 132.83 112.867 133.233 112.867 133.676C112.867 134.131 112.938 134.533 113.08 134.882C113.225 135.229 113.438 135.501 113.72 135.7C114.004 135.896 114.356 135.994 114.776 135.994ZM119.481 137V130.455H120.487V137H119.481ZM119.992 129.364C119.796 129.364 119.627 129.297 119.485 129.163C119.346 129.03 119.276 128.869 119.276 128.682C119.276 128.494 119.346 128.334 119.485 128.2C119.627 128.067 119.796 128 119.992 128C120.188 128 120.356 128.067 120.495 128.2C120.637 128.334 120.708 128.494 120.708 128.682C120.708 128.869 120.637 129.03 120.495 129.163C120.356 129.297 120.188 129.364 119.992 129.364ZM123.334 133.062V137H122.329V130.455H123.3V131.477H123.385C123.539 131.145 123.772 130.878 124.084 130.676C124.397 130.472 124.8 130.369 125.295 130.369C125.738 130.369 126.126 130.46 126.458 130.642C126.79 130.821 127.049 131.094 127.233 131.46C127.418 131.824 127.51 132.284 127.51 132.841V137H126.505V132.909C126.505 132.395 126.371 131.994 126.104 131.707C125.837 131.418 125.471 131.273 125.005 131.273C124.684 131.273 124.397 131.342 124.144 131.482C123.894 131.621 123.697 131.824 123.552 132.091C123.407 132.358 123.334 132.682 123.334 133.062ZM131.274 137.153C130.86 137.153 130.483 137.075 130.145 136.919C129.807 136.76 129.539 136.531 129.34 136.233C129.141 135.932 129.041 135.568 129.041 135.142C129.041 134.767 129.115 134.463 129.263 134.23C129.411 133.994 129.608 133.81 129.855 133.676C130.102 133.543 130.375 133.443 130.673 133.378C130.975 133.31 131.277 133.256 131.581 133.216C131.979 133.165 132.301 133.126 132.548 133.101C132.798 133.072 132.98 133.026 133.094 132.96C133.21 132.895 133.269 132.781 133.269 132.619V132.585C133.269 132.165 133.154 131.838 132.923 131.605C132.696 131.372 132.351 131.256 131.888 131.256C131.408 131.256 131.031 131.361 130.759 131.571C130.486 131.781 130.294 132.006 130.183 132.244L129.229 131.903C129.399 131.506 129.627 131.196 129.911 130.974C130.198 130.75 130.51 130.594 130.848 130.506C131.189 130.415 131.524 130.369 131.854 130.369C132.064 130.369 132.306 130.395 132.578 130.446C132.854 130.494 133.119 130.595 133.375 130.749C133.634 130.902 133.848 131.134 134.019 131.443C134.189 131.753 134.274 132.168 134.274 132.688V137H133.269V136.114H133.218C133.149 136.256 133.036 136.408 132.877 136.57C132.718 136.732 132.506 136.869 132.242 136.983C131.977 137.097 131.655 137.153 131.274 137.153ZM131.428 136.25C131.825 136.25 132.161 136.172 132.433 136.016C132.709 135.859 132.916 135.658 133.056 135.411C133.198 135.163 133.269 134.903 133.269 134.631V133.71C133.226 133.761 133.132 133.808 132.987 133.851C132.845 133.891 132.681 133.926 132.493 133.957C132.308 133.986 132.128 134.011 131.952 134.034C131.779 134.054 131.638 134.071 131.53 134.085C131.269 134.119 131.024 134.175 130.797 134.251C130.573 134.325 130.391 134.437 130.252 134.588C130.115 134.736 130.047 134.937 130.047 135.193C130.047 135.543 130.176 135.807 130.435 135.986C130.696 136.162 131.027 136.25 131.428 136.25ZM137.116 128.273V137H136.11V128.273H137.116ZM149.492 131H148.435C148.372 130.696 148.263 130.429 148.107 130.199C147.953 129.969 147.766 129.776 147.544 129.619C147.325 129.46 147.083 129.341 146.816 129.261C146.548 129.182 146.27 129.142 145.98 129.142C145.452 129.142 144.973 129.276 144.544 129.543C144.118 129.81 143.779 130.203 143.526 130.723C143.276 131.243 143.151 131.881 143.151 132.636C143.151 133.392 143.276 134.03 143.526 134.55C143.779 135.07 144.118 135.463 144.544 135.73C144.973 135.997 145.452 136.131 145.98 136.131C146.27 136.131 146.548 136.091 146.816 136.011C147.083 135.932 147.325 135.814 147.544 135.658C147.766 135.499 147.953 135.304 148.107 135.074C148.263 134.841 148.372 134.574 148.435 134.273H149.492C149.412 134.719 149.267 135.118 149.057 135.47C148.847 135.822 148.585 136.122 148.273 136.369C147.96 136.614 147.61 136.8 147.22 136.928C146.834 137.055 146.421 137.119 145.98 137.119C145.236 137.119 144.574 136.938 143.994 136.574C143.415 136.21 142.959 135.693 142.627 135.023C142.294 134.352 142.128 133.557 142.128 132.636C142.128 131.716 142.294 130.92 142.627 130.25C142.959 129.58 143.415 129.062 143.994 128.699C144.574 128.335 145.236 128.153 145.98 128.153C146.421 128.153 146.834 128.217 147.22 128.345C147.61 128.473 147.96 128.661 148.273 128.908C148.585 129.152 148.847 129.45 149.057 129.803C149.267 130.152 149.412 130.551 149.492 131ZM151.199 137V128.273H152.256V136.062H156.313V137H151.199ZM159.006 128.273V137H157.949V128.273H159.006ZM161.125 137V128.273H164.074C164.759 128.273 165.318 128.396 165.753 128.643C166.191 128.888 166.514 129.219 166.725 129.636C166.935 130.054 167.04 130.52 167.04 131.034C167.04 131.548 166.935 132.016 166.725 132.436C166.517 132.857 166.196 133.192 165.762 133.442C165.327 133.689 164.77 133.812 164.091 133.812H161.977V132.875H164.057C164.526 132.875 164.902 132.794 165.186 132.632C165.47 132.47 165.676 132.251 165.804 131.976C165.935 131.697 166 131.384 166 131.034C166 130.685 165.935 130.372 165.804 130.097C165.676 129.821 165.469 129.605 165.182 129.449C164.895 129.29 164.514 129.21 164.04 129.21H162.182V137H161.125ZM171.981 137V130.455H172.953V131.477H173.038C173.174 131.128 173.394 130.857 173.698 130.663C174.002 130.467 174.367 130.369 174.794 130.369C175.225 130.369 175.585 130.467 175.872 130.663C176.161 130.857 176.387 131.128 176.549 131.477H176.617C176.785 131.139 177.036 130.871 177.372 130.672C177.707 130.47 178.109 130.369 178.578 130.369C179.163 130.369 179.642 130.553 180.014 130.919C180.386 131.283 180.572 131.849 180.572 132.619V137H179.566V132.619C179.566 132.136 179.434 131.791 179.17 131.584C178.906 131.376 178.595 131.273 178.237 131.273C177.776 131.273 177.42 131.412 177.167 131.69C176.914 131.966 176.788 132.315 176.788 132.739V137H175.765V132.517C175.765 132.145 175.644 131.845 175.403 131.618C175.161 131.388 174.85 131.273 174.47 131.273C174.208 131.273 173.964 131.342 173.737 131.482C173.512 131.621 173.33 131.814 173.191 132.061C173.055 132.305 172.987 132.588 172.987 132.909V137H171.981ZM185.07 137.136C184.479 137.136 183.96 136.996 183.514 136.714C183.071 136.433 182.725 136.04 182.475 135.534C182.227 135.028 182.104 134.437 182.104 133.761C182.104 133.08 182.227 132.484 182.475 131.976C182.725 131.467 183.071 131.072 183.514 130.791C183.96 130.51 184.479 130.369 185.07 130.369C185.661 130.369 186.178 130.51 186.621 130.791C187.067 131.072 187.414 131.467 187.661 131.976C187.911 132.484 188.036 133.08 188.036 133.761C188.036 134.437 187.911 135.028 187.661 135.534C187.414 136.04 187.067 136.433 186.621 136.714C186.178 136.996 185.661 137.136 185.07 137.136ZM185.07 136.233C185.519 136.233 185.888 136.118 186.178 135.888C186.468 135.658 186.682 135.355 186.821 134.98C186.96 134.605 187.03 134.199 187.03 133.761C187.03 133.324 186.96 132.916 186.821 132.538C186.682 132.161 186.468 131.855 186.178 131.622C185.888 131.389 185.519 131.273 185.07 131.273C184.621 131.273 184.252 131.389 183.962 131.622C183.672 131.855 183.458 132.161 183.318 132.538C183.179 132.916 183.11 133.324 183.11 133.761C183.11 134.199 183.179 134.605 183.318 134.98C183.458 135.355 183.672 135.658 183.962 135.888C184.252 136.118 184.621 136.233 185.07 136.233ZM192.042 137.136C191.497 137.136 191.015 136.999 190.598 136.723C190.18 136.445 189.854 136.053 189.618 135.547C189.382 135.038 189.264 134.438 189.264 133.744C189.264 133.057 189.382 132.46 189.618 131.955C189.854 131.449 190.182 131.058 190.602 130.783C191.023 130.507 191.508 130.369 192.059 130.369C192.486 130.369 192.822 130.44 193.069 130.582C193.319 130.722 193.51 130.881 193.64 131.06C193.774 131.236 193.878 131.381 193.952 131.494H194.037V128.273H195.042V137H194.071V135.994H193.952C193.878 136.114 193.773 136.264 193.636 136.446C193.5 136.625 193.305 136.786 193.052 136.928C192.8 137.067 192.463 137.136 192.042 137.136ZM192.179 136.233C192.582 136.233 192.923 136.128 193.202 135.918C193.48 135.705 193.692 135.411 193.836 135.036C193.981 134.658 194.054 134.222 194.054 133.727C194.054 133.239 193.983 132.811 193.841 132.445C193.699 132.075 193.488 131.788 193.21 131.584C192.932 131.376 192.588 131.273 192.179 131.273C191.753 131.273 191.398 131.382 191.113 131.601C190.832 131.817 190.621 132.111 190.479 132.483C190.339 132.852 190.27 133.267 190.27 133.727C190.27 134.193 190.341 134.616 190.483 134.997C190.628 135.375 190.841 135.676 191.122 135.901C191.406 136.122 191.758 136.233 192.179 136.233ZM199.768 137.136C199.138 137.136 198.594 136.997 198.136 136.719C197.682 136.438 197.331 136.045 197.084 135.543C196.839 135.037 196.717 134.449 196.717 133.778C196.717 133.108 196.839 132.517 197.084 132.006C197.331 131.491 197.675 131.091 198.115 130.804C198.558 130.514 199.075 130.369 199.666 130.369C200.007 130.369 200.344 130.426 200.676 130.54C201.008 130.653 201.311 130.838 201.584 131.094C201.856 131.347 202.074 131.682 202.236 132.099C202.398 132.517 202.479 133.031 202.479 133.642V134.068H197.433V133.199H201.456C201.456 132.83 201.382 132.5 201.234 132.21C201.089 131.92 200.882 131.692 200.612 131.524C200.345 131.357 200.03 131.273 199.666 131.273C199.265 131.273 198.919 131.372 198.626 131.571C198.336 131.767 198.113 132.023 197.957 132.338C197.801 132.653 197.723 132.991 197.723 133.352V133.932C197.723 134.426 197.808 134.845 197.979 135.189C198.152 135.53 198.392 135.79 198.699 135.969C199.006 136.145 199.362 136.233 199.768 136.233C200.032 136.233 200.271 136.196 200.484 136.122C200.7 136.045 200.886 135.932 201.042 135.781C201.199 135.628 201.319 135.437 201.405 135.21L202.376 135.483C202.274 135.812 202.102 136.102 201.861 136.352C201.619 136.599 201.321 136.793 200.966 136.932C200.611 137.068 200.211 137.136 199.768 137.136ZM205.014 128.273V137H204.008V128.273H205.014ZM211.492 131.92L210.589 132.176C210.532 132.026 210.448 131.879 210.338 131.737C210.23 131.592 210.082 131.473 209.894 131.379C209.707 131.286 209.467 131.239 209.174 131.239C208.774 131.239 208.44 131.331 208.173 131.516C207.909 131.697 207.776 131.929 207.776 132.21C207.776 132.46 207.867 132.658 208.049 132.803C208.231 132.947 208.515 133.068 208.901 133.165L209.873 133.403C210.458 133.545 210.894 133.763 211.181 134.055C211.468 134.345 211.612 134.719 211.612 135.176C211.612 135.551 211.504 135.886 211.288 136.182C211.075 136.477 210.776 136.71 210.393 136.881C210.009 137.051 209.563 137.136 209.055 137.136C208.387 137.136 207.835 136.991 207.397 136.702C206.96 136.412 206.683 135.989 206.566 135.432L207.521 135.193C207.612 135.545 207.784 135.81 208.036 135.986C208.292 136.162 208.626 136.25 209.038 136.25C209.507 136.25 209.879 136.151 210.154 135.952C210.433 135.75 210.572 135.509 210.572 135.227C210.572 135 210.492 134.81 210.333 134.656C210.174 134.5 209.93 134.384 209.6 134.307L208.509 134.051C207.91 133.909 207.47 133.689 207.188 133.391C206.91 133.089 206.771 132.713 206.771 132.261C206.771 131.892 206.874 131.565 207.082 131.281C207.292 130.997 207.578 130.774 207.938 130.612C208.302 130.45 208.714 130.369 209.174 130.369C209.822 130.369 210.33 130.511 210.7 130.795C211.072 131.08 211.336 131.455 211.492 131.92Z" fill="black"/>
</g>
<defs>
<clipPath id="clip0_2129_428">
<rect width="316.182" height="237.136" fill="white"/>
</clipPath>
</defs>
</svg>
