<svg width="317" height="297" viewBox="0 0 317 297" fill="none" xmlns="http://www.w3.org/2000/svg">
<g clip-path="url(#clip0_2128_91)">
<mask id="mask0_2128_91" style="mask-type:luminance" maskUnits="userSpaceOnUse" x="67" y="14" width="235" height="182">
<path d="M301.782 14.4H67.8267V195.951H301.782V14.4Z" fill="white"/>
</mask>
<g mask="url(#mask0_2128_91)">
<path d="M78.4609 22.6523V62.0583L89.4916 78.509L98.5331 92.8483L107.262 111.914L117.814 117.838L132.373 130.914L153.266 145.204L291.147 162.042V84.2959L153.266 74.6407L132.373 61.1879L117.814 54.2169L107.262 48.4702L98.5331 38.1747L89.4916 23.1812L78.4609 22.6523Z" fill="#808080" fill-opacity="0.3" stroke="#808080" stroke-opacity="0.3" stroke-width="1.33333"/>
</g>
<path d="M70.1128 195.951V200.617Z" fill="black"/>
<path d="M70.1128 195.951V200.617" stroke="black" stroke-width="1.06667"/>
<path d="M70.1088 206.561C69.4324 206.561 68.9234 206.894 68.5817 207.561C68.2415 208.226 68.0713 209.228 68.0713 210.565C68.0713 211.897 68.2415 212.896 68.5817 213.563C68.9234 214.23 69.4324 214.563 70.1088 214.563C70.7908 214.563 71.3019 214.23 71.6422 213.563C71.9838 212.896 72.1547 211.897 72.1547 210.565C72.1547 209.228 71.9838 208.226 71.6422 207.561C71.3019 206.894 70.7908 206.561 70.1088 206.561ZM70.1088 205.519C71.1991 205.519 72.0317 205.951 72.6067 206.813C73.1817 207.674 73.4692 208.925 73.4692 210.565C73.4692 212.201 73.1817 213.451 72.6067 214.313C72.0317 215.174 71.1991 215.605 70.1088 215.605C69.0199 215.605 68.188 215.174 67.613 214.313C67.038 213.451 66.7505 212.201 66.7505 210.565C66.7505 208.925 67.038 207.674 67.613 206.813C68.188 205.951 69.0199 205.519 70.1088 205.519Z" fill="black"/>
<path d="M118.986 195.951V200.617Z" fill="black"/>
<path d="M118.986 195.951V200.617" stroke="black" stroke-width="1.06667"/>
<path d="M116.184 205.694H121.346V206.803H117.388V209.184C117.578 209.119 117.769 209.07 117.959 209.038C118.151 209.006 118.342 208.99 118.534 208.99C119.619 208.99 120.478 209.287 121.111 209.882C121.746 210.476 122.063 211.281 122.063 212.296C122.063 213.342 121.737 214.155 121.086 214.736C120.435 215.315 119.516 215.605 118.332 215.605C117.923 215.605 117.507 215.57 117.084 215.501C116.662 215.431 116.225 215.327 115.773 215.188V213.865C116.164 214.078 116.567 214.236 116.984 214.34C117.401 214.444 117.841 214.496 118.305 214.496C119.056 214.496 119.651 214.299 120.088 213.905C120.527 213.51 120.746 212.974 120.746 212.296C120.746 211.62 120.527 211.085 120.088 210.69C119.651 210.294 119.056 210.096 118.305 210.096C117.953 210.096 117.603 210.135 117.253 210.213C116.904 210.291 116.548 210.412 116.184 210.578V205.694Z" fill="black"/>
<path d="M167.859 195.951V200.617Z" fill="black"/>
<path d="M167.859 195.951V200.617" stroke="black" stroke-width="1.06667"/>
<path d="M161.03 214.309H163.178V206.892L160.84 207.361V206.163L163.165 205.694H164.48V214.309H166.628V215.415H161.03V214.309Z" fill="black"/>
<path d="M172.096 206.561C171.42 206.561 170.911 206.894 170.569 207.561C170.229 208.226 170.059 209.228 170.059 210.565C170.059 211.897 170.229 212.896 170.569 213.563C170.911 214.23 171.42 214.563 172.096 214.563C172.778 214.563 173.289 214.23 173.629 213.563C173.971 212.896 174.142 211.897 174.142 210.565C174.142 209.228 173.971 208.226 173.629 207.561C173.289 206.894 172.778 206.561 172.096 206.561ZM172.096 205.519C173.186 205.519 174.019 205.951 174.594 206.813C175.169 207.674 175.457 208.925 175.457 210.565C175.457 212.201 175.169 213.451 174.594 214.313C174.019 215.174 173.186 215.605 172.096 215.605C171.007 215.605 170.175 215.174 169.6 214.313C169.025 213.451 168.738 212.201 168.738 210.565C168.738 208.925 169.025 207.674 169.6 206.813C170.175 205.951 171.007 205.519 172.096 205.519Z" fill="black"/>
<path d="M216.732 195.951V200.617Z" fill="black"/>
<path d="M216.732 195.951V200.617" stroke="black" stroke-width="1.06667"/>
<path d="M209.903 214.309H212.051V206.892L209.714 207.361V206.163L212.039 205.694H213.353V214.309H215.501V215.415H209.903V214.309Z" fill="black"/>
<path d="M218.172 205.694H223.335V206.803H219.376V209.184C219.567 209.119 219.757 209.07 219.947 209.038C220.139 209.006 220.33 208.99 220.522 208.99C221.607 208.99 222.466 209.287 223.099 209.882C223.734 210.476 224.051 211.281 224.051 212.296C224.051 213.342 223.726 214.155 223.074 214.736C222.423 215.315 221.505 215.605 220.32 215.605C219.912 215.605 219.496 215.57 219.072 215.501C218.65 215.431 218.213 215.327 217.762 215.188V213.865C218.152 214.078 218.555 214.236 218.972 214.34C219.389 214.444 219.829 214.496 220.293 214.496C221.044 214.496 221.639 214.299 222.076 213.905C222.515 213.51 222.735 212.974 222.735 212.296C222.735 211.62 222.515 211.085 222.076 210.69C221.639 210.294 221.044 210.096 220.293 210.096C219.942 210.096 219.591 210.135 219.241 210.213C218.892 210.291 218.536 210.412 218.172 210.578V205.694Z" fill="black"/>
<path d="M265.606 195.951V200.617Z" fill="black"/>
<path d="M265.606 195.951V200.617" stroke="black" stroke-width="1.06667"/>
<path d="M259.681 214.309H264.27V215.415H258.1V214.309C258.598 213.792 259.278 213.099 260.139 212.23C261.002 211.359 261.543 210.797 261.764 210.544C262.185 210.072 262.479 209.672 262.645 209.344C262.813 209.017 262.898 208.694 262.898 208.378C262.898 207.861 262.716 207.44 262.354 207.115C261.991 206.789 261.519 206.626 260.937 206.626C260.525 206.626 260.089 206.697 259.631 206.84C259.174 206.983 258.685 207.201 258.164 207.492V206.163C258.693 205.951 259.188 205.79 259.648 205.682C260.109 205.573 260.53 205.519 260.912 205.519C261.919 205.519 262.722 205.771 263.32 206.276C263.919 206.778 264.218 207.451 264.218 208.292C264.218 208.692 264.143 209.071 263.993 209.43C263.845 209.787 263.573 210.208 263.177 210.694C263.068 210.821 262.723 211.185 262.141 211.786C261.561 212.387 260.741 213.228 259.681 214.309Z" fill="black"/>
<path d="M269.843 206.561C269.167 206.561 268.658 206.894 268.316 207.561C267.976 208.226 267.806 209.228 267.806 210.565C267.806 211.897 267.976 212.896 268.316 213.563C268.658 214.23 269.167 214.563 269.843 214.563C270.525 214.563 271.036 214.23 271.377 213.563C271.718 212.896 271.889 211.897 271.889 210.565C271.889 209.228 271.718 208.226 271.377 207.561C271.036 206.894 270.525 206.561 269.843 206.561ZM269.843 205.519C270.933 205.519 271.766 205.951 272.341 206.813C272.916 207.674 273.204 208.925 273.204 210.565C273.204 212.201 272.916 213.451 272.341 214.313C271.766 215.174 270.933 215.605 269.843 215.605C268.754 215.605 267.922 215.174 267.347 214.313C266.772 213.451 266.485 212.201 266.485 210.565C266.485 208.925 266.772 207.674 267.347 206.813C267.922 205.951 268.754 205.519 269.843 205.519Z" fill="black"/>
<path d="M135.5 225.013V228.665H137.154C137.766 228.665 138.239 228.507 138.573 228.19C138.907 227.873 139.075 227.422 139.075 226.836C139.075 226.254 138.907 225.805 138.573 225.488C138.239 225.171 137.766 225.013 137.154 225.013H135.5ZM134.185 223.932H137.154C138.244 223.932 139.068 224.178 139.625 224.671C140.183 225.164 140.462 225.886 140.462 226.836C140.462 227.796 140.183 228.521 139.625 229.011C139.068 229.501 138.244 229.746 137.154 229.746H135.5V233.653H134.185V223.932Z" fill="black"/>
<path d="M144.515 227.201C143.873 227.201 143.365 227.451 142.992 227.953C142.618 228.454 142.431 229.141 142.431 230.013C142.431 230.885 142.617 231.572 142.988 232.073C143.36 232.575 143.869 232.826 144.515 232.826C145.154 232.826 145.659 232.574 146.031 232.071C146.405 231.567 146.592 230.881 146.592 230.013C146.592 229.149 146.405 228.464 146.031 227.959C145.659 227.453 145.154 227.201 144.515 227.201ZM144.515 226.186C145.556 226.186 146.375 226.525 146.969 227.203C147.565 227.879 147.863 228.816 147.863 230.013C147.863 231.206 147.565 232.143 146.969 232.823C146.375 233.503 145.556 233.842 144.515 233.842C143.469 233.842 142.65 233.503 142.056 232.823C141.465 232.143 141.169 231.206 141.169 230.013C141.169 228.816 141.465 227.879 142.056 227.203C142.65 226.525 143.469 226.186 144.515 226.186Z" fill="black"/>
<path d="M154.496 226.576V227.709C154.158 227.535 153.807 227.405 153.442 227.319C153.078 227.232 152.7 227.188 152.308 227.188C151.714 227.188 151.268 227.279 150.971 227.461C150.673 227.643 150.525 227.917 150.525 228.282C150.525 228.56 150.631 228.778 150.844 228.936C151.056 229.094 151.484 229.245 152.127 229.388L152.537 229.48C153.387 229.662 153.992 229.919 154.35 230.251C154.708 230.583 154.887 231.046 154.887 231.64C154.887 232.318 154.619 232.855 154.083 233.251C153.547 233.645 152.81 233.842 151.873 233.842C151.483 233.842 151.076 233.804 150.652 233.728C150.228 233.651 149.783 233.537 149.314 233.386V232.148C149.758 232.379 150.194 232.552 150.623 232.667C151.052 232.781 151.478 232.838 151.9 232.838C152.464 232.838 152.897 232.742 153.2 232.548C153.504 232.355 153.656 232.083 153.656 231.732C153.656 231.407 153.546 231.158 153.327 230.984C153.109 230.81 152.628 230.643 151.885 230.482L151.469 230.384C150.727 230.228 150.191 229.989 149.86 229.665C149.531 229.342 149.367 228.898 149.367 228.334C149.367 227.648 149.61 227.119 150.096 226.746C150.582 226.373 151.272 226.186 152.167 226.186C152.608 226.186 153.024 226.219 153.414 226.284C153.806 226.348 154.167 226.445 154.496 226.576Z" fill="black"/>
<path d="M157.98 224.29V226.361H160.446V227.292H157.98V231.251C157.98 231.845 158.061 232.227 158.224 232.396C158.386 232.566 158.717 232.651 159.217 232.651H160.446V233.653H159.217C158.292 233.653 157.654 233.48 157.303 233.136C156.951 232.79 156.776 232.162 156.776 231.251V227.292H155.896V226.361H156.776V224.29H157.98Z" fill="black"/>
<path d="M161.418 229.467H164.926V230.534H161.418V229.467Z" fill="black"/>
<path d="M166.833 226.361H168.031V233.653H166.833V226.361ZM166.833 223.521H168.031V225.04H166.833V223.521Z" fill="black"/>
<path d="M171.723 224.29V226.361H174.19V227.292H171.723V231.251C171.723 231.845 171.804 232.227 171.967 232.396C172.129 232.566 172.46 232.651 172.96 232.651H174.19V233.653H172.96C172.035 233.653 171.397 233.48 171.046 233.136C170.695 232.79 170.519 232.162 170.519 231.251V227.292H169.64V226.361H170.519V224.29H171.723Z" fill="black"/>
<path d="M183.306 225.228L181.52 230.065H185.095L183.306 225.228ZM182.562 223.932H184.054L187.758 233.653H186.391L185.506 231.159H181.124L180.239 233.653H178.852L182.562 223.932Z" fill="black"/>
<path d="M193.35 227.48C193.215 227.402 193.069 227.345 192.91 227.309C192.752 227.271 192.578 227.253 192.387 227.253C191.71 227.253 191.19 227.473 190.827 227.913C190.465 228.353 190.283 228.986 190.283 229.811V233.653H189.079V226.361H190.283V227.494C190.536 227.051 190.864 226.723 191.267 226.509C191.671 226.294 192.162 226.186 192.74 226.186C192.821 226.186 192.912 226.192 193.012 226.203C193.112 226.212 193.223 226.228 193.344 226.251L193.35 227.48Z" fill="black"/>
<path d="M200.544 229.707V230.292H195.036C195.088 231.117 195.337 231.746 195.781 232.178C196.226 232.61 196.845 232.826 197.64 232.826C198.1 232.826 198.545 232.769 198.977 232.657C199.409 232.544 199.838 232.375 200.265 232.148V233.282C199.834 233.464 199.393 233.603 198.942 233.698C198.491 233.794 198.033 233.842 197.569 233.842C196.405 233.842 195.484 233.504 194.804 232.828C194.125 232.15 193.786 231.233 193.786 230.078C193.786 228.885 194.108 227.938 194.752 227.238C195.397 226.537 196.266 226.186 197.361 226.186C198.341 226.186 199.117 226.502 199.688 227.134C200.259 227.764 200.544 228.622 200.544 229.707ZM199.346 229.355C199.338 228.701 199.154 228.178 198.796 227.788C198.438 227.396 197.963 227.201 197.373 227.201C196.705 227.201 196.17 227.389 195.769 227.767C195.368 228.145 195.136 228.677 195.075 229.363L199.346 229.355Z" fill="black"/>
<path d="M205.825 229.988C204.856 229.988 204.186 230.098 203.812 230.319C203.438 230.54 203.252 230.918 203.252 231.453C203.252 231.878 203.392 232.215 203.672 232.465C203.953 232.714 204.334 232.838 204.814 232.838C205.479 232.838 206.013 232.603 206.414 232.132C206.816 231.661 207.016 231.035 207.016 230.255V229.988H205.825ZM208.214 229.492V233.653H207.016V232.546C206.743 232.988 206.402 233.314 205.993 233.526C205.585 233.737 205.086 233.842 204.495 233.842C203.75 233.842 203.156 233.633 202.714 233.213C202.274 232.794 202.054 232.233 202.054 231.53C202.054 230.71 202.328 230.092 202.877 229.676C203.427 229.259 204.246 229.051 205.335 229.051H207.016V228.932C207.016 228.38 206.835 227.954 206.472 227.653C206.11 227.351 205.601 227.201 204.945 227.201C204.529 227.201 204.122 227.251 203.727 227.351C203.332 227.451 202.953 227.601 202.589 227.801V226.692C203.027 226.523 203.452 226.396 203.864 226.313C204.277 226.228 204.678 226.186 205.068 226.186C206.124 226.186 206.912 226.46 207.433 227.007C207.954 227.553 208.214 228.381 208.214 229.492Z" fill="black"/>
<path d="M217.796 223.536C217.215 224.533 216.783 225.521 216.5 226.499C216.218 227.475 216.077 228.464 216.077 229.467C216.077 230.469 216.219 231.461 216.504 232.444C216.789 233.428 217.219 234.417 217.796 235.411H216.754C216.104 234.39 215.617 233.387 215.294 232.403C214.97 231.418 214.808 230.439 214.808 229.467C214.808 228.499 214.969 227.525 215.289 226.544C215.612 225.562 216.1 224.56 216.754 223.536H217.796Z" fill="black"/>
<path d="M228.558 229.376C228.18 229.376 227.884 229.536 227.668 229.857C227.454 230.178 227.348 230.625 227.348 231.198C227.348 231.762 227.454 232.206 227.668 232.53C227.884 232.853 228.18 233.015 228.558 233.015C228.927 233.015 229.219 232.853 229.433 232.53C229.648 232.206 229.756 231.762 229.756 231.198C229.756 230.629 229.648 230.183 229.433 229.861C229.219 229.537 228.927 229.376 228.558 229.376ZM228.558 228.548C229.244 228.548 229.788 228.787 230.191 229.265C230.595 229.742 230.798 230.386 230.798 231.198C230.798 232.01 230.595 232.653 230.189 233.13C229.784 233.605 229.24 233.842 228.558 233.842C227.863 233.842 227.314 233.605 226.91 233.13C226.507 232.653 226.306 232.01 226.306 231.198C226.306 230.382 226.509 229.736 226.914 229.261C227.32 228.786 227.868 228.548 228.558 228.548ZM221.839 224.584C221.466 224.584 221.171 224.746 220.956 225.069C220.742 225.392 220.635 225.835 220.635 226.401C220.635 226.973 220.741 227.42 220.954 227.742C221.166 228.063 221.461 228.223 221.839 228.223C222.217 228.223 222.513 228.063 222.727 227.742C222.942 227.42 223.05 226.973 223.05 226.401C223.05 225.841 222.941 225.398 222.725 225.073C222.508 224.747 222.213 224.584 221.839 224.584ZM227.718 223.757H228.76L222.679 233.842H221.637L227.718 223.757ZM221.839 223.757C222.525 223.757 223.072 223.994 223.479 224.469C223.887 224.944 224.091 225.588 224.091 226.401C224.091 227.22 223.888 227.867 223.483 228.34C223.077 228.814 222.529 229.051 221.839 229.051C221.149 229.051 220.603 228.813 220.202 228.338C219.8 227.862 219.6 227.216 219.6 226.401C219.6 225.592 219.801 224.95 220.204 224.473C220.608 223.996 221.153 223.757 221.839 223.757Z" fill="black"/>
<path d="M232.602 223.536H233.644C234.294 224.56 234.781 225.562 235.104 226.544C235.428 227.525 235.59 228.499 235.59 229.467C235.59 230.439 235.428 231.418 235.104 232.403C234.781 233.387 234.294 234.39 233.644 235.411H232.602C233.178 234.417 233.609 233.428 233.894 232.444C234.178 231.461 234.321 230.469 234.321 229.467C234.321 228.464 234.178 227.475 233.894 226.499C233.609 225.521 233.178 224.533 232.602 223.536Z" fill="black"/>
<path d="M67.8263 184.887H63.1597Z" fill="black"/>
<path d="M67.8263 184.887H63.1597" stroke="black" stroke-width="1.06667"/>
<path d="M44.0847 188.846H48.6743V189.953H42.5034V188.846C43.002 188.33 43.6819 187.637 44.543 186.767C45.4055 185.896 45.9472 185.335 46.168 185.082C46.5888 184.61 46.8826 184.21 47.0493 183.882C47.2173 183.554 47.3013 183.232 47.3013 182.915C47.3013 182.399 47.1201 181.978 46.7576 181.653C46.3951 181.326 45.9229 181.163 45.3409 181.163C44.9284 181.163 44.493 181.235 44.0347 181.378C43.5777 181.521 43.0888 181.738 42.568 182.03V180.701C43.0972 180.488 43.5916 180.328 44.0513 180.219C44.5124 180.111 44.934 180.057 45.3159 180.057C46.3229 180.057 47.1256 180.309 47.7243 180.813C48.3229 181.316 48.6222 181.988 48.6222 182.83C48.6222 183.23 48.5472 183.609 48.3972 183.967C48.2486 184.324 47.9763 184.746 47.5805 185.232C47.4722 185.358 47.127 185.722 46.5451 186.324C45.9645 186.925 45.1444 187.766 44.0847 188.846Z" fill="black"/>
<path d="M54.247 181.099C53.5706 181.099 53.0616 181.432 52.7199 182.099C52.3796 182.764 52.2095 183.765 52.2095 185.103C52.2095 186.435 52.3796 187.434 52.7199 188.101C53.0616 188.767 53.5706 189.101 54.247 189.101C54.9289 189.101 55.4401 188.767 55.7803 188.101C56.122 187.434 56.2928 186.435 56.2928 185.103C56.2928 183.765 56.122 182.764 55.7803 182.099C55.4401 181.432 54.9289 181.099 54.247 181.099ZM54.247 180.057C55.3373 180.057 56.1699 180.488 56.7449 181.351C57.3199 182.212 57.6074 183.462 57.6074 185.103C57.6074 186.739 57.3199 187.988 56.7449 188.851C56.1699 189.712 55.3373 190.142 54.247 190.142C53.1581 190.142 52.3262 189.712 51.7512 188.851C51.1762 187.988 50.8887 186.739 50.8887 185.103C50.8887 183.462 51.1762 182.212 51.7512 181.351C52.3262 180.488 53.1581 180.057 54.247 180.057Z" fill="black"/>
<path d="M67.8268 144.125H63.1602Z" fill="black"/>
<path d="M67.8268 144.125H63.1602" stroke="black" stroke-width="1.06667"/>
<path d="M46.5662 140.616L43.2454 145.805H46.5662V140.616ZM46.2204 139.47H47.8745V145.805H49.262V146.899H47.8745V149.191H46.5662V146.899H42.1787V145.63L46.2204 139.47Z" fill="black"/>
<path d="M54.247 140.337C53.5706 140.337 53.0616 140.67 52.7199 141.337C52.3796 142.002 52.2095 143.003 52.2095 144.341C52.2095 145.673 52.3796 146.672 52.7199 147.339C53.0616 148.005 53.5706 148.339 54.247 148.339C54.9289 148.339 55.4401 148.005 55.7803 147.339C56.122 146.672 56.2928 145.673 56.2928 144.341C56.2928 143.003 56.122 142.002 55.7803 141.337C55.4401 140.67 54.9289 140.337 54.247 140.337ZM54.247 139.295C55.3373 139.295 56.1699 139.726 56.7449 140.589C57.3199 141.45 57.6074 142.7 57.6074 144.341C57.6074 145.977 57.3199 147.226 56.7449 148.089C56.1699 148.95 55.3373 149.38 54.247 149.38C53.1581 149.38 52.3262 148.95 51.7512 148.089C51.1762 147.226 50.8887 145.977 50.8887 144.341C50.8887 142.7 51.1762 141.45 51.7512 140.589C52.3262 139.726 53.1581 139.295 54.247 139.295Z" fill="black"/>
<path d="M67.8263 103.363H63.1597Z" fill="black"/>
<path d="M67.8263 103.363H63.1597" stroke="black" stroke-width="1.06667"/>
<path d="M45.9284 103.045C45.3381 103.045 44.87 103.247 44.5242 103.652C44.1797 104.054 44.0075 104.607 44.0075 105.31C44.0075 106.009 44.1797 106.561 44.5242 106.968C44.87 107.374 45.3381 107.577 45.9284 107.577C46.5186 107.577 46.986 107.374 47.3304 106.968C47.6749 106.561 47.8471 106.009 47.8471 105.31C47.8471 104.607 47.6749 104.054 47.3304 103.652C46.986 103.247 46.5186 103.045 45.9284 103.045ZM48.5388 98.9224V100.12C48.2082 99.9648 47.8749 99.846 47.5388 99.7641C47.2027 99.6807 46.8693 99.6391 46.5388 99.6391C45.6707 99.6391 45.0075 99.9321 44.5492 100.518C44.0922 101.104 43.8311 101.99 43.7659 103.174C44.0214 102.797 44.3422 102.507 44.7284 102.306C45.1159 102.104 45.5415 102.004 46.0054 102.004C46.9818 102.004 47.7534 102.3 48.32 102.893C48.8867 103.485 49.17 104.29 49.17 105.31C49.17 106.309 48.8749 107.11 48.2846 107.714C47.6943 108.317 46.9089 108.618 45.9284 108.618C44.8034 108.618 43.9436 108.188 43.3492 107.327C42.7547 106.464 42.4575 105.215 42.4575 103.579C42.4575 102.043 42.8221 100.818 43.5513 99.9036C44.2804 98.9898 45.2589 98.5328 46.4867 98.5328C46.8172 98.5328 47.1506 98.5654 47.4867 98.6307C47.8228 98.696 48.1735 98.7932 48.5388 98.9224Z" fill="black"/>
<path d="M54.247 99.5745C53.5706 99.5745 53.0616 99.9078 52.7199 100.574C52.3796 101.24 52.2095 102.241 52.2095 103.579C52.2095 104.911 52.3796 105.91 52.7199 106.577C53.0616 107.243 53.5706 107.577 54.247 107.577C54.9289 107.577 55.4401 107.243 55.7803 106.577C56.122 105.91 56.2928 104.911 56.2928 103.579C56.2928 102.241 56.122 101.24 55.7803 100.574C55.4401 99.9078 54.9289 99.5745 54.247 99.5745ZM54.247 98.5328C55.3373 98.5328 56.1699 98.9641 56.7449 99.8266C57.3199 100.688 57.6074 101.938 57.6074 103.579C57.6074 105.215 57.3199 106.464 56.7449 107.327C56.1699 108.188 55.3373 108.618 54.247 108.618C53.1581 108.618 52.3262 108.188 51.7512 107.327C51.1762 106.464 50.8887 105.215 50.8887 103.579C50.8887 101.938 51.1762 100.688 51.7512 99.8266C52.3262 98.9641 53.1581 98.5328 54.247 98.5328Z" fill="black"/>
<path d="M67.8263 62.601H63.1597Z" fill="black"/>
<path d="M67.8263 62.601H63.1597" stroke="black" stroke-width="1.06667"/>
<path d="M45.764 63.0499C45.139 63.0499 44.6473 63.2173 44.289 63.552C43.9321 63.8867 43.7536 64.3464 43.7536 64.9312C43.7536 65.5173 43.9321 65.9777 44.289 66.3124C44.6473 66.6471 45.139 66.8145 45.764 66.8145C46.389 66.8145 46.8814 66.6464 47.2411 66.3103C47.6022 65.9728 47.7827 65.5131 47.7827 64.9312C47.7827 64.3464 47.6036 63.8867 47.2452 63.552C46.8883 63.2173 46.3946 63.0499 45.764 63.0499ZM44.4494 62.4916C43.8855 62.3527 43.4459 62.0902 43.1307 61.7041C42.8168 61.3166 42.6598 60.8451 42.6598 60.2895C42.6598 59.5131 42.9362 58.8992 43.489 58.4478C44.0432 57.9964 44.8015 57.7708 45.764 57.7708C46.7321 57.7708 47.4918 57.9964 48.0432 58.4478C48.5946 58.8992 48.8702 59.5131 48.8702 60.2895C48.8702 60.8451 48.7126 61.3166 48.3973 61.7041C48.0834 62.0902 47.6466 62.3527 47.0869 62.4916C47.7202 62.6388 48.2133 62.9277 48.5661 63.3583C48.9202 63.7874 49.0973 64.3117 49.0973 64.9312C49.0973 65.8742 48.8098 66.5978 48.2348 67.102C47.6598 67.6048 46.8362 67.8562 45.764 67.8562C44.6932 67.8562 43.8696 67.6048 43.2932 67.102C42.7182 66.5978 42.4307 65.8742 42.4307 64.9312C42.4307 64.3117 42.6084 63.7874 42.964 63.3583C43.3209 62.9277 43.8161 62.6388 44.4494 62.4916ZM43.9682 60.4145C43.9682 60.9173 44.1251 61.3096 44.439 61.5916C44.7543 61.8735 45.1959 62.0145 45.764 62.0145C46.3293 62.0145 46.7709 61.8735 47.089 61.5916C47.4084 61.3096 47.5682 60.9173 47.5682 60.4145C47.5682 59.9103 47.4084 59.5173 47.089 59.2353C46.7709 58.9534 46.3293 58.8124 45.764 58.8124C45.1959 58.8124 44.7543 58.9534 44.439 59.2353C44.1251 59.5173 43.9682 59.9103 43.9682 60.4145Z" fill="black"/>
<path d="M54.247 58.8124C53.5706 58.8124 53.0616 59.1458 52.7199 59.8124C52.3796 60.4777 52.2095 61.4791 52.2095 62.8166C52.2095 64.1485 52.3796 65.1478 52.7199 65.8145C53.0616 66.4812 53.5706 66.8145 54.247 66.8145C54.9289 66.8145 55.4401 66.4812 55.7803 65.8145C56.122 65.1478 56.2928 64.1485 56.2928 62.8166C56.2928 61.4791 56.122 60.4777 55.7803 59.8124C55.4401 59.1458 54.9289 58.8124 54.247 58.8124ZM54.247 57.7708C55.3373 57.7708 56.1699 58.202 56.7449 59.0645C57.3199 59.9256 57.6074 61.1763 57.6074 62.8166C57.6074 64.4527 57.3199 65.702 56.7449 66.5645C56.1699 67.4256 55.3373 67.8562 54.247 67.8562C53.1581 67.8562 52.3262 67.4256 51.7512 66.5645C51.1762 65.702 50.8887 64.4527 50.8887 62.8166C50.8887 61.1763 51.1762 59.9256 51.7512 59.0645C52.3262 58.202 53.1581 57.7708 54.247 57.7708Z" fill="black"/>
<path d="M67.8263 21.8389H63.1597Z" fill="black"/>
<path d="M67.8263 21.8389H63.1597" stroke="black" stroke-width="1.06667"/>
<path d="M34.6974 25.7983H36.8453V18.3816L34.5078 18.8504V17.6525L36.8328 17.1837H38.1474V25.7983H40.2953V26.9045H34.6974V25.7983Z" fill="black"/>
<path d="M45.7636 18.0504C45.0872 18.0504 44.5782 18.3837 44.2365 19.0504C43.8962 19.7156 43.7261 20.717 43.7261 22.0545C43.7261 23.3865 43.8962 24.3858 44.2365 25.0524C44.5782 25.7191 45.0872 26.0524 45.7636 26.0524C46.4456 26.0524 46.9567 25.7191 47.2969 25.0524C47.6386 24.3858 47.8094 23.3865 47.8094 22.0545C47.8094 20.717 47.6386 19.7156 47.2969 19.0504C46.9567 18.3837 46.4456 18.0504 45.7636 18.0504ZM45.7636 17.0087C46.8539 17.0087 47.6865 17.4399 48.2615 18.3024C48.8365 19.1636 49.124 20.4143 49.124 22.0545C49.124 23.6906 48.8365 24.9399 48.2615 25.8024C47.6865 26.6636 46.8539 27.0941 45.7636 27.0941C44.6747 27.0941 43.8428 26.6636 43.2678 25.8024C42.6928 24.9399 42.4053 23.6906 42.4053 22.0545C42.4053 20.4143 42.6928 19.1636 43.2678 18.3024C43.8428 17.4399 44.6747 17.0087 45.7636 17.0087Z" fill="black"/>
<path d="M54.247 18.0504C53.5706 18.0504 53.0616 18.3837 52.7199 19.0504C52.3796 19.7156 52.2095 20.717 52.2095 22.0545C52.2095 23.3865 52.3796 24.3858 52.7199 25.0524C53.0616 25.7191 53.5706 26.0524 54.247 26.0524C54.9289 26.0524 55.4401 25.7191 55.7803 25.0524C56.122 24.3858 56.2928 23.3865 56.2928 22.0545C56.2928 20.717 56.122 19.7156 55.7803 19.0504C55.4401 18.3837 54.9289 18.0504 54.247 18.0504ZM54.247 17.0087C55.3373 17.0087 56.1699 17.4399 56.7449 18.3024C57.3199 19.1636 57.6074 20.4143 57.6074 22.0545C57.6074 23.6906 57.3199 24.9399 56.7449 25.8024C56.1699 26.6636 55.3373 27.0941 54.247 27.0941C53.1581 27.0941 52.3262 26.6636 51.7512 25.8024C51.1762 24.9399 50.8887 23.6906 50.8887 22.0545C50.8887 20.4143 51.1762 19.1636 51.7512 18.3024C52.3262 17.4399 53.1581 17.0087 54.247 17.0087Z" fill="black"/>
<path d="M21.2723 139.137C21.2723 140.105 21.3827 140.776 21.6035 141.149C21.8244 141.523 22.2022 141.71 22.7369 141.71C23.1619 141.71 23.4994 141.569 23.7494 141.289C23.998 141.008 24.1223 140.628 24.1223 140.147C24.1223 139.482 23.8869 138.949 23.416 138.547C22.9452 138.146 22.3195 137.945 21.539 137.945H21.2723V139.137ZM20.7765 136.747H24.9369V137.945H23.8306C24.2723 138.219 24.5987 138.56 24.8098 138.968C25.0209 139.376 25.1265 139.876 25.1265 140.466C25.1265 141.212 24.9167 141.805 24.4973 142.247C24.0779 142.687 23.5167 142.908 22.814 142.908C21.9945 142.908 21.3765 142.633 20.9598 142.085C20.5431 141.535 20.3348 140.715 20.3348 139.626V137.945H20.216C19.6647 137.945 19.2383 138.126 18.9369 138.489C18.6355 138.851 18.4848 139.36 18.4848 140.016C18.4848 140.433 18.5348 140.839 18.6348 141.235C18.7348 141.629 18.8848 142.008 19.0848 142.372H17.9765C17.807 141.935 17.6806 141.51 17.5973 141.097C17.5126 140.685 17.4702 140.283 17.4702 139.893C17.4702 138.837 17.7438 138.049 18.291 137.528C18.8369 137.008 19.6654 136.747 20.7765 136.747Z" fill="black"/>
<path d="M17.9244 129.033H19.0452C18.8577 129.372 18.7174 129.711 18.6244 130.052C18.5313 130.392 18.4848 130.736 18.4848 131.083C18.4848 131.861 18.7313 132.465 19.2244 132.895C19.716 133.324 20.407 133.539 21.2973 133.539C22.1876 133.539 22.8792 133.324 23.3723 132.895C23.864 132.465 24.1098 131.861 24.1098 131.083C24.1098 130.736 24.0633 130.392 23.9702 130.052C23.8772 129.711 23.7369 129.372 23.5494 129.033H24.6577C24.8133 129.368 24.9299 129.714 25.0077 130.072C25.0869 130.429 25.1265 130.81 25.1265 131.214C25.1265 132.313 24.7813 133.186 24.091 133.833C23.4008 134.479 22.4695 134.802 21.2973 134.802C20.1084 134.802 19.1737 134.475 18.4931 133.822C17.8112 133.168 17.4702 132.272 17.4702 131.135C17.4702 130.767 17.5084 130.407 17.5848 130.056C17.6598 129.704 17.773 129.363 17.9244 129.033Z" fill="black"/>
<path d="M17.9244 121.702H19.0452C18.8577 122.041 18.7174 122.381 18.6244 122.721C18.5313 123.061 18.4848 123.405 18.4848 123.752C18.4848 124.53 18.7313 125.134 19.2244 125.565C19.716 125.994 20.407 126.208 21.2973 126.208C22.1876 126.208 22.8792 125.994 23.3723 125.565C23.864 125.134 24.1098 124.53 24.1098 123.752C24.1098 123.405 24.0633 123.061 23.9702 122.721C23.8772 122.381 23.7369 122.041 23.5494 121.702H24.6577C24.8133 122.037 24.9299 122.383 25.0077 122.742C25.0869 123.099 25.1265 123.479 25.1265 123.883C25.1265 124.982 24.7813 125.855 24.091 126.502C23.4008 127.148 22.4695 127.471 21.2973 127.471C20.1084 127.471 19.1737 127.144 18.4931 126.492C17.8112 125.838 17.4702 124.942 17.4702 123.804C17.4702 123.436 17.5084 123.076 17.5848 122.725C17.6598 122.374 17.773 122.033 17.9244 121.702Z" fill="black"/>
<path d="M22.0598 119.742H17.6452V118.544H22.014C22.7042 118.544 23.2223 118.41 23.5681 118.142C23.9126 117.873 24.0848 117.469 24.0848 116.93C24.0848 116.284 23.8785 115.773 23.466 115.398C23.0535 115.022 22.491 114.834 21.7785 114.834H17.6452V113.636H24.9369V114.834H23.816C24.2591 115.124 24.5883 115.462 24.8035 115.846C25.0188 116.23 25.1265 116.676 25.1265 117.184C25.1265 118.021 24.866 118.657 24.3452 119.092C23.8244 119.526 23.0626 119.742 22.0598 119.742Z" fill="black"/>
<path d="M18.7641 106.944C18.6863 107.078 18.6294 107.225 18.5933 107.383C18.5558 107.542 18.537 107.716 18.537 107.906C18.537 108.584 18.7572 109.104 19.1974 109.467C19.6377 109.829 20.2703 110.01 21.0953 110.01H24.937V111.215H17.6453V110.01H18.7787C18.3356 109.758 18.0072 109.43 17.7933 109.027C17.578 108.623 17.4703 108.132 17.4703 107.554C17.4703 107.472 17.4759 107.381 17.487 107.281C17.4967 107.181 17.5127 107.071 17.5349 106.95L18.7641 106.944Z" fill="black"/>
<path d="M21.2723 102.372C21.2723 103.34 21.3827 104.011 21.6035 104.385C21.8244 104.759 22.2022 104.945 22.7369 104.945C23.1619 104.945 23.4994 104.805 23.7494 104.524C23.998 104.244 24.1223 103.863 24.1223 103.383C24.1223 102.718 23.8869 102.184 23.416 101.783C22.9452 101.381 22.3195 101.181 21.539 101.181H21.2723V102.372ZM20.7765 99.9828H24.9369V101.181H23.8306C24.2723 101.454 24.5987 101.795 24.8098 102.204C25.0209 102.612 25.1265 103.111 25.1265 103.702C25.1265 104.447 24.9167 105.041 24.4973 105.483C24.0779 105.923 23.5167 106.143 22.814 106.143C21.9945 106.143 21.3765 105.869 20.9598 105.32C20.5431 104.77 20.3348 103.951 20.3348 102.862V101.181H20.216C19.6647 101.181 19.2383 101.362 18.9369 101.724C18.6355 102.087 18.4848 102.596 18.4848 103.252C18.4848 103.668 18.5348 104.074 18.6348 104.47C18.7348 104.865 18.8848 105.244 19.0848 105.608H17.9765C17.807 105.17 17.6806 104.745 17.5973 104.333C17.5126 103.92 17.4702 103.519 17.4702 103.129C17.4702 102.073 17.7438 101.285 18.291 100.764C18.8369 100.243 19.6654 99.9828 20.7765 99.9828Z" fill="black"/>
<path d="M17.9244 92.2685H19.0452C18.8577 92.6074 18.7174 92.947 18.6244 93.2873C18.5313 93.6275 18.4848 93.9713 18.4848 94.3185C18.4848 95.0963 18.7313 95.7005 19.2244 96.131C19.716 96.5602 20.407 96.7748 21.2973 96.7748C22.1876 96.7748 22.8792 96.5602 23.3723 96.131C23.864 95.7005 24.1098 95.0963 24.1098 94.3185C24.1098 93.9713 24.0633 93.6275 23.9702 93.2873C23.8772 92.947 23.7369 92.6074 23.5494 92.2685H24.6577C24.8133 92.6032 24.9299 92.9498 25.0077 93.3081C25.0869 93.665 25.1265 94.0456 25.1265 94.4498C25.1265 95.5484 24.7813 96.4213 24.091 97.0685C23.4008 97.7143 22.4695 98.0373 21.2973 98.0373C20.1084 98.0373 19.1737 97.7109 18.4931 97.0581C17.8112 96.4039 17.4702 95.5081 17.4702 94.3706C17.4702 94.0025 17.5084 93.6428 17.5848 93.2914C17.6598 92.94 17.773 92.5991 17.9244 92.2685Z" fill="black"/>
<path d="M25.6141 87.1524C26.4822 87.4899 27.0482 87.8197 27.312 88.142C27.5773 88.4628 27.71 88.892 27.71 89.4295V90.3878H26.7079V89.6836C26.7079 89.3545 26.6294 89.0989 26.4725 88.917C26.3169 88.7336 25.9482 88.5315 25.3662 88.3107L24.8204 88.0961L17.6454 91.044V89.7753L23.3475 87.4961L17.6454 85.217V83.9482L25.6141 87.1524Z" fill="black"/>
<path d="M20.6598 69.6193C20.6598 69.9971 20.8202 70.2936 21.141 70.5089C21.4619 70.7227 21.9091 70.8297 22.4827 70.8297C23.0466 70.8297 23.4904 70.7227 23.814 70.5089C24.1376 70.2936 24.2994 69.9971 24.2994 69.6193C24.2994 69.2498 24.1376 68.9582 23.814 68.7443C23.4904 68.529 23.0466 68.4214 22.4827 68.4214C21.9133 68.4214 21.4674 68.529 21.1452 68.7443C20.8216 68.9582 20.6598 69.2498 20.6598 69.6193ZM19.8327 69.6193C19.8327 68.9332 20.0716 68.3887 20.5494 67.9859C21.0258 67.5818 21.6702 67.3797 22.4827 67.3797C23.2938 67.3797 23.9376 67.5825 24.414 67.988C24.889 68.3936 25.1265 68.9373 25.1265 69.6193C25.1265 70.3137 24.889 70.863 24.414 71.2672C23.9376 71.67 23.2938 71.8714 22.4827 71.8714C21.666 71.8714 21.0202 71.6686 20.5452 71.263C20.0702 70.8575 19.8327 70.3096 19.8327 69.6193ZM15.8681 76.338C15.8681 76.7116 16.0299 77.0061 16.3535 77.2214C16.6758 77.4352 17.1195 77.5422 17.6848 77.5422C18.257 77.5422 18.7042 77.4359 19.0265 77.2234C19.3473 77.0109 19.5077 76.7158 19.5077 76.338C19.5077 75.9602 19.3473 75.6644 19.0265 75.4505C18.7042 75.2352 18.257 75.1276 17.6848 75.1276C17.1251 75.1276 16.6827 75.2359 16.3577 75.4526C16.0313 75.6693 15.8681 75.9644 15.8681 76.338ZM15.041 70.4589V69.4172L25.1265 75.4984V76.5401L15.041 70.4589ZM15.041 76.338C15.041 75.6519 15.2785 75.1054 15.7535 74.6984C16.2285 74.2901 16.8723 74.0859 17.6848 74.0859C18.5042 74.0859 19.1508 74.2887 19.6244 74.6943C20.098 75.0998 20.3348 75.6477 20.3348 76.338C20.3348 77.0283 20.0973 77.5741 19.6223 77.9755C19.1459 78.3769 18.5001 78.5776 17.6848 78.5776C16.8765 78.5776 16.2341 78.3762 15.7577 77.9734C15.2799 77.5693 15.041 77.0241 15.041 76.338Z" fill="black"/>
<mask id="mask1_2128_91" style="mask-type:luminance" maskUnits="userSpaceOnUse" x="67" y="14" width="235" height="182">
<path d="M301.782 14.4H67.8267V195.951H301.782V14.4Z" fill="white"/>
</mask>
<g mask="url(#mask1_2128_91)">
<path d="M78.4609 42.3553L89.4916 50.8451L98.5331 65.5115L107.262 80.1921L117.814 86.0274L132.373 96.0511L153.266 109.922L291.147 123.169" stroke="#0000FF" stroke-width="2.66667" stroke-linecap="square"/>
</g>
<mask id="mask2_2128_91" style="mask-type:luminance" maskUnits="userSpaceOnUse" x="67" y="14" width="235" height="182">
<path d="M301.782 14.4H67.8267V195.951H301.782V14.4Z" fill="white"/>
</mask>
<g mask="url(#mask2_2128_91)">
<path d="M78.4609 26.0268L89.4916 40.1116L98.5331 45.7339L107.262 62.601H117.814L132.373 65.4121L153.266 76.6568L291.147 99.1463" stroke="#0000FF" stroke-opacity="0.7" stroke-width="2" stroke-dasharray="2 6"/>
</g>
<mask id="mask3_2128_91" style="mask-type:luminance" maskUnits="userSpaceOnUse" x="67" y="14" width="235" height="182">
<path d="M301.782 14.4H67.8267V195.951H301.782V14.4Z" fill="white"/>
</mask>
<g mask="url(#mask3_2128_91)">
<path d="M78.4609 108.388L89.4916 149.747L98.5331 148.342L107.262 162.398L117.814 155.37L132.373 168.02L153.266 173.642L291.147 187.698" stroke="#0000FF" stroke-opacity="0.7" stroke-width="2" stroke-dasharray="2 2"/>
</g>
<mask id="mask4_2128_91" style="mask-type:luminance" maskUnits="userSpaceOnUse" x="67" y="14" width="235" height="182">
<path d="M301.782 14.4H67.8267V195.951H301.782V14.4Z" fill="white"/>
</mask>
<g mask="url(#mask4_2128_91)">
<path d="M78.4609 37.1945L89.4916 41.5171L98.5331 59.7898L107.262 69.6289L117.814 92.1183L132.373 99.1462L153.266 114.608L291.147 135.692" stroke="#0000FF" stroke-opacity="0.7" stroke-width="2" stroke-dasharray="6 2 2 2"/>
</g>
<path d="M67.8267 195.951V14.4" stroke="black" stroke-width="1.06667" stroke-linecap="square"/>
<path d="M67.8267 195.951H301.782" stroke="black" stroke-width="1.06667" stroke-linecap="square"/>
<path opacity="0.8" d="M29.9547 270.459H292.862C294.096 270.459 294.713 269.842 294.713 268.608V242.369C294.713 241.135 294.096 240.518 292.862 240.518H29.9547C28.7209 240.518 28.104 241.135 28.104 242.369V268.608C28.104 269.842 28.7209 270.459 29.9547 270.459Z" fill="white" stroke="#CCCCCC" stroke-width="1.33333"/>
<path d="M31.8052 248.012H41.0585H50.3118" stroke="#0000FF" stroke-width="2.66667" stroke-linecap="square"/>
<path d="M62.5264 247.162C62.7346 246.788 62.9833 246.512 63.2724 246.335C63.5616 246.158 63.9019 246.069 64.2932 246.069C64.8204 246.069 65.2272 246.254 65.5135 246.623C65.7998 246.991 65.9429 247.515 65.9429 248.196V251.251H65.1072V248.223C65.1072 247.738 65.0209 247.379 64.8484 247.145C64.6768 246.909 64.4151 246.792 64.0633 246.792C63.6325 246.792 63.2917 246.935 63.0411 247.221C62.7915 247.507 62.6666 247.896 62.6666 248.391V251.251H61.8309V248.223C61.8309 247.735 61.7452 247.375 61.5736 247.142C61.402 246.908 61.1369 246.792 60.7784 246.792C60.3533 246.792 60.0155 246.935 59.7649 247.223C59.5152 247.51 59.3904 247.899 59.3904 248.391V251.251H58.5547V246.19H59.3904V246.977C59.5803 246.667 59.8077 246.438 60.0728 246.29C60.3379 246.143 60.6526 246.069 61.0169 246.069C61.3851 246.069 61.6979 246.162 61.9553 246.349C62.2126 246.535 62.403 246.806 62.5264 247.162Z" fill="black"/>
<path d="M71.9291 248.512V248.919H68.1063C68.1429 249.491 68.3154 249.927 68.6239 250.227C68.9323 250.527 69.3622 250.677 69.9136 250.677C70.2326 250.677 70.542 250.638 70.8418 250.56C71.1416 250.482 71.4394 250.364 71.7353 250.207V250.993C71.4365 251.12 71.1305 251.216 70.8172 251.283C70.5039 251.349 70.1863 251.382 69.8644 251.382C69.0567 251.382 68.4171 251.148 67.9458 250.678C67.4744 250.208 67.2388 249.572 67.2388 248.77C67.2388 247.942 67.4624 247.285 67.9096 246.799C68.3569 246.312 68.9603 246.069 69.7198 246.069C70.4003 246.069 70.9387 246.288 71.3348 246.727C71.731 247.164 71.9291 247.76 71.9291 248.512ZM71.0977 248.268C71.0919 247.814 70.9647 247.452 70.716 247.181C70.4673 246.909 70.1381 246.773 69.7285 246.773C69.2649 246.773 68.8938 246.904 68.6152 247.166C68.3366 247.429 68.1762 247.798 68.1337 248.274L71.0977 248.268Z" fill="black"/>
<path d="M75.5935 248.708C74.9217 248.708 74.4561 248.784 74.1968 248.937C73.9376 249.091 73.8079 249.353 73.8079 249.724C73.8079 250.019 73.9053 250.253 74.1 250.427C74.2947 250.599 74.5588 250.685 74.8923 250.685C75.354 250.685 75.7241 250.522 76.0027 250.195C76.2813 249.869 76.4205 249.434 76.4205 248.893V248.708H75.5935ZM77.2519 248.363V251.251H76.4205V250.483C76.2307 250.79 75.994 251.016 75.7106 251.163C75.4273 251.309 75.0807 251.382 74.6711 251.382C74.1535 251.382 73.7414 251.237 73.4349 250.946C73.1293 250.655 72.9766 250.265 72.9766 249.778C72.9766 249.209 73.1669 248.78 73.5477 248.491C73.9294 248.202 74.4981 248.057 75.2538 248.057H76.4205V247.975C76.4205 247.592 76.2948 247.296 76.0432 247.087C75.7916 246.878 75.4383 246.773 74.9834 246.773C74.6942 246.773 74.4123 246.808 74.1376 246.877C73.8638 246.947 73.6007 247.051 73.3481 247.189V246.42C73.6518 246.303 73.9467 246.215 74.233 246.157C74.5193 246.098 74.7978 246.069 75.0687 246.069C75.8012 246.069 76.3482 246.259 76.7097 246.639C77.0712 247.017 77.2519 247.592 77.2519 248.363Z" fill="black"/>
<path d="M83.1713 248.196V251.251H82.34V248.223C82.34 247.744 82.2465 247.386 82.0595 247.149C81.8725 246.911 81.5925 246.792 81.2194 246.792C80.7703 246.792 80.416 246.935 80.1567 247.221C79.8975 247.507 79.7678 247.896 79.7678 248.391V251.251H78.9321V246.19H79.7678V246.977C79.9673 246.672 80.2016 246.445 80.4705 246.294C80.7404 246.144 81.0517 246.069 81.4045 246.069C81.9857 246.069 82.4253 246.249 82.7231 246.608C83.0219 246.968 83.1713 247.497 83.1713 248.196Z" fill="black"/>
<path d="M91.1542 245.449V247.198H93.6699V247.966H91.1542V249.714H90.3951V247.966H87.8779V247.198H90.3951V245.449H91.1542ZM87.8779 250.483H93.6699V251.251H87.8779V250.483Z" fill="black"/>
<path d="M101.69 246.339V247.126C101.456 247.005 101.212 246.915 100.958 246.855C100.706 246.795 100.444 246.764 100.172 246.764C99.7594 246.764 99.4499 246.828 99.2437 246.954C99.0374 247.08 98.9343 247.27 98.9343 247.523C98.9343 247.716 99.008 247.868 99.1555 247.977C99.303 248.087 99.5998 248.192 100.046 248.291L100.331 248.355C100.921 248.481 101.34 248.659 101.589 248.89C101.838 249.12 101.962 249.442 101.962 249.854C101.962 250.325 101.776 250.697 101.404 250.972C101.032 251.246 100.52 251.382 99.8697 251.382C99.5989 251.382 99.3164 251.356 99.0225 251.303C98.7285 251.25 98.4191 251.171 98.0942 251.066V250.207C98.4017 250.367 98.7044 250.487 99.0022 250.567C99.3001 250.646 99.5955 250.685 99.8885 250.685C100.28 250.685 100.581 250.619 100.791 250.485C101.002 250.351 101.107 250.162 101.107 249.918C101.107 249.692 101.031 249.519 100.879 249.399C100.728 249.278 100.394 249.162 99.8784 249.05L99.5892 248.982C99.0745 248.874 98.7025 248.708 98.473 248.483C98.2446 248.259 98.1304 247.951 98.1304 247.56C98.1304 247.083 98.2991 246.716 98.6364 246.458C98.9738 246.199 99.4528 246.069 100.074 246.069C100.38 246.069 100.669 246.092 100.94 246.137C101.211 246.181 101.462 246.249 101.69 246.339Z" fill="black"/>
<path d="M104.108 244.753V246.19H105.82V246.837H104.108V249.584C104.108 249.996 104.164 250.261 104.277 250.379C104.39 250.497 104.62 250.555 104.967 250.555H105.82V251.251H104.967C104.325 251.251 103.882 251.131 103.638 250.892C103.394 250.652 103.272 250.216 103.272 249.584V246.837H102.662V246.19H103.272V244.753H104.108Z" fill="black"/>
<path d="M110.243 246.958V244.22H111.075V251.251H110.243V250.492C110.069 250.792 109.848 251.016 109.581 251.163C109.315 251.309 108.995 251.382 108.621 251.382C108.01 251.382 107.512 251.139 107.128 250.651C106.744 250.162 106.552 249.52 106.552 248.725C106.552 247.93 106.744 247.288 107.128 246.801C107.512 246.313 108.01 246.069 108.621 246.069C108.995 246.069 109.315 246.142 109.581 246.289C109.848 246.434 110.069 246.657 110.243 246.958ZM107.411 248.725C107.411 249.336 107.537 249.816 107.788 250.164C108.04 250.512 108.386 250.685 108.825 250.685C109.265 250.685 109.611 250.512 109.863 250.164C110.117 249.816 110.243 249.336 110.243 248.725C110.243 248.114 110.117 247.634 109.863 247.286C109.611 246.938 109.265 246.764 108.825 246.764C108.386 246.764 108.04 246.938 107.788 247.286C107.537 247.634 107.411 248.114 107.411 248.725Z" fill="black"/>
<path d="M119.058 246.958V244.22H119.89V251.251H119.058V250.492C118.884 250.792 118.663 251.016 118.396 251.163C118.13 251.309 117.81 251.382 117.436 251.382C116.825 251.382 116.327 251.139 115.943 250.651C115.559 250.162 115.367 249.52 115.367 248.725C115.367 247.93 115.559 247.288 115.943 246.801C116.327 246.313 116.825 246.069 117.436 246.069C117.81 246.069 118.13 246.142 118.396 246.289C118.663 246.434 118.884 246.657 119.058 246.958ZM116.226 248.725C116.226 249.336 116.352 249.816 116.603 250.164C116.855 250.512 117.201 250.685 117.64 250.685C118.08 250.685 118.426 250.512 118.678 250.164C118.932 249.816 119.058 249.336 119.058 248.725C119.058 248.114 118.932 247.634 118.678 247.286C118.426 246.938 118.08 246.764 117.64 246.764C117.201 246.764 116.855 246.938 116.603 247.286C116.352 247.634 116.226 248.114 116.226 248.725Z" fill="black"/>
<path d="M125.931 248.512V248.919H122.108C122.145 249.491 122.317 249.927 122.626 250.227C122.934 250.527 123.364 250.677 123.916 250.677C124.235 250.677 124.544 250.638 124.844 250.56C125.144 250.482 125.441 250.364 125.737 250.207V250.993C125.438 251.12 125.132 251.216 124.819 251.283C124.506 251.349 124.188 251.382 123.866 251.382C123.059 251.382 122.419 251.148 121.948 250.678C121.476 250.208 121.241 249.572 121.241 248.77C121.241 247.942 121.464 247.285 121.912 246.799C122.359 246.312 122.962 246.069 123.722 246.069C124.402 246.069 124.941 246.288 125.337 246.727C125.733 247.164 125.931 247.76 125.931 248.512ZM125.1 248.268C125.094 247.814 124.967 247.452 124.718 247.181C124.469 246.909 124.14 246.773 123.73 246.773C123.267 246.773 122.896 246.904 122.617 247.166C122.339 247.429 122.178 247.798 122.136 248.274L125.1 248.268Z" fill="black"/>
<path d="M126.7 246.19H127.58L129.162 250.437L130.744 246.19H131.624L129.726 251.251H128.597L126.7 246.19Z" fill="black"/>
<path d="M31.8052 261.594H41.0585H50.3118" stroke="#0000FF" stroke-opacity="0.7" stroke-width="2" stroke-dasharray="2 6"/>
<path d="M60.3621 264.833L57.7871 258.087H58.7399L60.8783 263.766L63.0196 258.087H63.968L61.3974 264.833H60.3621Z" fill="black"/>
<path d="M64.7085 259.773H65.5399V264.833H64.7085V259.773ZM64.7085 257.802H65.5399V258.856H64.7085V257.802Z" fill="black"/>
<path d="M66.3799 258.087H72.0866V258.856H69.6923V264.833H68.7756V258.856H66.3799V258.087Z" fill="black"/>
<path d="M71.668 261.928H74.1028V262.669H71.668V261.928Z" fill="black"/>
<path d="M76.0393 261.612V264.083H77.5039C77.9945 264.083 78.3579 263.981 78.5941 263.778C78.8312 263.574 78.9497 263.263 78.9497 262.845C78.9497 262.423 78.8312 262.112 78.5941 261.912C78.3579 261.712 77.9945 261.612 77.5039 261.612H76.0393ZM76.0393 258.837V260.87H77.3911C77.8364 260.87 78.168 260.787 78.3859 260.62C78.6047 260.452 78.7141 260.197 78.7141 259.854C78.7141 259.513 78.6047 259.259 78.3859 259.09C78.168 258.921 77.8364 258.837 77.3911 258.837H76.0393ZM75.127 258.087H77.4591C78.155 258.087 78.6909 258.231 79.0668 258.52C79.4437 258.81 79.6322 259.221 79.6322 259.754C79.6322 260.167 79.5358 260.496 79.343 260.74C79.1502 260.984 78.8668 261.136 78.4929 261.195C78.942 261.292 79.291 261.493 79.5396 261.8C79.7883 262.105 79.9127 262.487 79.9127 262.945C79.9127 263.547 79.7078 264.013 79.2982 264.341C78.8885 264.669 78.3054 264.833 77.5487 264.833H75.127V258.087Z" fill="black"/>
<path d="M81.0195 261.928H83.4543V262.669H81.0195V261.928Z" fill="black"/>
<path d="M85.0539 264.065H86.5446V258.918L84.9224 259.243V258.412L86.5359 258.087H87.4482V264.065H88.9389V264.833H85.0539V264.065Z" fill="black"/>
<path d="M92.8482 261.097C92.4386 261.097 92.1137 261.237 91.8737 261.518C91.6347 261.797 91.5152 262.181 91.5152 262.669C91.5152 263.153 91.6347 263.537 91.8737 263.819C92.1137 264.101 92.4386 264.242 92.8482 264.242C93.2579 264.242 93.5822 264.101 93.8213 263.819C94.0603 263.537 94.1798 263.153 94.1798 262.669C94.1798 262.181 94.0603 261.797 93.8213 261.518C93.5822 261.237 93.2579 261.097 92.8482 261.097ZM94.6598 258.236V259.067C94.4304 258.959 94.1991 258.877 93.9658 258.82C93.7326 258.762 93.5012 258.733 93.2718 258.733C92.6694 258.733 92.2092 258.936 91.8911 259.343C91.574 259.75 91.3927 260.364 91.3474 261.187C91.5248 260.924 91.7475 260.723 92.0154 260.584C92.2843 260.444 92.5798 260.374 92.9017 260.374C93.5793 260.374 94.1148 260.58 94.508 260.991C94.9013 261.402 95.0979 261.961 95.0979 262.669C95.0979 263.362 94.8931 263.918 94.4834 264.337C94.0738 264.755 93.5287 264.965 92.8482 264.965C92.0675 264.965 91.4708 264.666 91.0583 264.068C90.6457 263.47 90.4395 262.603 90.4395 261.467C90.4395 260.401 90.6925 259.551 91.1985 258.917C91.7046 258.282 92.3836 257.965 93.2357 257.965C93.4651 257.965 93.6964 257.988 93.9297 258.033C94.163 258.079 94.4063 258.146 94.6598 258.236Z" fill="black"/>
<path d="M96.1333 261.928H98.5681V262.669H96.1333V261.928Z" fill="black"/>
<path d="M103.972 258.308V259.199C103.626 259.033 103.299 258.909 102.991 258.828C102.684 258.746 102.387 258.706 102.101 258.706C101.604 258.706 101.221 258.802 100.951 258.995C100.681 259.187 100.547 259.462 100.547 259.817C100.547 260.116 100.636 260.342 100.815 260.494C100.995 260.645 101.335 260.768 101.835 260.861L102.386 260.974C103.066 261.104 103.568 261.333 103.892 261.659C104.216 261.986 104.378 262.423 104.378 262.971C104.378 263.625 104.159 264.121 103.72 264.458C103.283 264.796 102.641 264.965 101.794 264.965C101.475 264.965 101.135 264.928 100.775 264.856C100.415 264.784 100.043 264.677 99.6574 264.535V263.595C100.027 263.803 100.39 263.959 100.746 264.065C101.102 264.17 101.451 264.223 101.794 264.223C102.315 264.223 102.717 264.121 103 263.916C103.284 263.711 103.425 263.418 103.425 263.039C103.425 262.708 103.324 262.449 103.12 262.262C102.917 262.075 102.583 261.935 102.12 261.842L101.563 261.733C100.882 261.598 100.39 261.386 100.085 261.097C99.7817 260.808 99.6299 260.405 99.6299 259.89C99.6299 259.293 99.84 258.823 100.26 258.48C100.681 258.137 101.259 257.965 101.997 257.965C102.314 257.965 102.636 257.994 102.964 258.052C103.293 258.109 103.629 258.194 103.972 258.308Z" fill="black"/>
<path d="M105.765 259.773H106.596V264.833H105.765V259.773ZM105.765 257.802H106.596V258.856H105.765V257.802Z" fill="black"/>
<path d="M111.666 262.243C111.666 261.641 111.541 261.175 111.293 260.844C111.045 260.512 110.697 260.347 110.247 260.347C109.802 260.347 109.455 260.512 109.206 260.844C108.958 261.175 108.833 261.641 108.833 262.243C108.833 262.843 108.958 263.309 109.206 263.64C109.455 263.972 109.802 264.138 110.247 264.138C110.697 264.138 111.045 263.972 111.293 263.64C111.541 263.309 111.666 262.843 111.666 262.243ZM112.497 264.205C112.497 265.066 112.306 265.707 111.923 266.127C111.541 266.547 110.956 266.757 110.166 266.757C109.874 266.757 109.599 266.736 109.339 266.692C109.08 266.649 108.829 266.582 108.585 266.491V265.683C108.829 265.815 109.07 265.913 109.308 265.975C109.546 266.039 109.788 266.071 110.035 266.071C110.58 266.071 110.989 265.928 111.26 265.644C111.53 265.36 111.666 264.93 111.666 264.354V263.942C111.494 264.241 111.274 264.464 111.007 264.612C110.739 264.759 110.418 264.833 110.044 264.833C109.424 264.833 108.924 264.597 108.544 264.125C108.164 263.651 107.975 263.024 107.975 262.243C107.975 261.461 108.164 260.833 108.544 260.361C108.924 259.888 109.424 259.651 110.044 259.651C110.418 259.651 110.739 259.725 111.007 259.872C111.274 260.02 111.494 260.242 111.666 260.54V259.773H112.497V264.205Z" fill="black"/>
<path d="M114.246 258.087H115.158V264.065H118.443V264.833H114.246V258.087Z" fill="black"/>
<path d="M119.401 258.087H120.313V264.833H119.401V258.087Z" fill="black"/>
<path d="M123.042 258.837V261.372H124.19C124.615 261.372 124.943 261.262 125.175 261.042C125.407 260.822 125.523 260.509 125.523 260.102C125.523 259.698 125.407 259.387 125.175 259.167C124.943 258.947 124.615 258.837 124.19 258.837H123.042ZM122.13 258.087H124.19C124.947 258.087 125.518 258.258 125.905 258.6C126.292 258.942 126.486 259.443 126.486 260.102C126.486 260.768 126.292 261.271 125.905 261.612C125.518 261.952 124.947 262.122 124.19 262.122H123.042V264.833H122.13V258.087Z" fill="black"/>
<path d="M129.152 258.087H129.919L127.57 265.692H126.802L129.152 258.087Z" fill="black"/>
<path d="M130.309 259.773H131.14L132.18 263.721L133.213 259.773H134.194L135.233 263.721L136.268 259.773H137.1L135.775 264.833H134.795L133.706 260.685L132.613 264.833H131.632L130.309 259.773Z" fill="black"/>
<path d="M142.688 262.095V262.501H138.866C138.902 263.073 139.075 263.51 139.383 263.809C139.692 264.109 140.121 264.259 140.673 264.259C140.992 264.259 141.301 264.22 141.601 264.142C141.901 264.064 142.199 263.946 142.495 263.789V264.576C142.196 264.702 141.89 264.798 141.576 264.865C141.263 264.931 140.946 264.965 140.624 264.965C139.816 264.965 139.176 264.73 138.705 264.26C138.234 263.79 137.998 263.154 137.998 262.352C137.998 261.524 138.222 260.867 138.669 260.381C139.116 259.894 139.72 259.651 140.479 259.651C141.16 259.651 141.698 259.87 142.094 260.309C142.49 260.747 142.688 261.342 142.688 262.095ZM141.857 261.85C141.851 261.396 141.724 261.034 141.475 260.763C141.227 260.491 140.897 260.355 140.488 260.355C140.024 260.355 139.653 260.486 139.374 260.748C139.096 261.011 138.935 261.38 138.893 261.856L141.857 261.85Z" fill="black"/>
<path d="M147.686 262.307C147.686 261.696 147.56 261.216 147.309 260.868C147.057 260.521 146.712 260.347 146.272 260.347C145.832 260.347 145.486 260.521 145.234 260.868C144.982 261.216 144.857 261.696 144.857 262.307C144.857 262.918 144.982 263.398 145.234 263.746C145.486 264.094 145.832 264.268 146.272 264.268C146.712 264.268 147.057 264.094 147.309 263.746C147.56 263.398 147.686 262.918 147.686 262.307ZM144.857 260.54C145.032 260.24 145.253 260.016 145.519 259.871C145.786 259.724 146.104 259.651 146.475 259.651C147.09 259.651 147.589 259.895 147.972 260.383C148.357 260.87 148.549 261.512 148.549 262.307C148.549 263.102 148.357 263.744 147.972 264.233C147.589 264.721 147.09 264.965 146.475 264.965C146.104 264.965 145.786 264.891 145.519 264.745C145.253 264.598 145.032 264.375 144.857 264.074V264.833H144.021V257.802H144.857V260.54Z" fill="black"/>
<path d="M149.926 257.802H150.758V264.833H149.926V257.802Z" fill="black"/>
<path d="M152.497 259.773H153.328V264.833H152.497V259.773ZM152.497 257.802H153.328V258.856H152.497V257.802Z" fill="black"/>
<path d="M172.703 248.012H181.956H191.21" stroke="#0000FF" stroke-opacity="0.7" stroke-width="2" stroke-dasharray="2 2"/>
<path d="M201.26 251.251L198.685 244.505H199.638L201.776 250.184L203.918 244.505H204.866L202.295 251.251H201.26Z" fill="black"/>
<path d="M205.606 246.19H206.438V251.251H205.606V246.19ZM205.606 244.22H206.438V245.274H205.606V244.22Z" fill="black"/>
<path d="M207.278 244.505H212.985V245.274H210.59V251.251H209.674V245.274H207.278V244.505Z" fill="black"/>
<path d="M212.566 248.346H215.001V249.086H212.566V248.346Z" fill="black"/>
<path d="M216.36 244.505H217.273V250.483H220.558V251.251H216.36V244.505Z" fill="black"/>
<path d="M220.898 248.346H223.333V249.086H220.898V248.346Z" fill="black"/>
<path d="M224.933 250.483H226.423V245.336L224.801 245.661V244.83L226.415 244.505H227.327V250.483H228.818V251.251H224.933V250.483Z" fill="black"/>
<path d="M233.169 245.3L230.865 248.901H233.169V245.3ZM232.929 244.505H234.077V248.901H235.04V249.66H234.077V251.251H233.169V249.66H230.125V248.78L232.929 244.505Z" fill="black"/>
<path d="M236.012 248.346H238.447V249.086H236.012V248.346Z" fill="black"/>
<path d="M242.653 247.613C243.089 247.707 243.43 247.901 243.675 248.197C243.921 248.492 244.044 248.857 244.044 249.29C244.044 249.955 243.815 250.471 243.357 250.836C242.899 251.2 242.248 251.382 241.405 251.382C241.123 251.382 240.832 251.354 240.532 251.299C240.232 251.243 239.923 251.159 239.604 251.047V250.166C239.856 250.314 240.133 250.425 240.433 250.5C240.735 250.576 241.05 250.613 241.379 250.613C241.951 250.613 242.386 250.5 242.686 250.275C242.986 250.049 243.136 249.721 243.136 249.29C243.136 248.892 242.996 248.581 242.718 248.358C242.439 248.133 242.052 248.021 241.555 248.021H240.769V247.27H241.592C242.04 247.27 242.383 247.181 242.621 247.002C242.859 246.822 242.978 246.564 242.978 246.227C242.978 245.881 242.855 245.615 242.609 245.43C242.365 245.244 242.013 245.151 241.555 245.151C241.305 245.151 241.036 245.178 240.75 245.233C240.464 245.287 240.149 245.371 239.806 245.485V244.672C240.153 244.576 240.478 244.504 240.78 244.455C241.083 244.407 241.368 244.383 241.636 244.383C242.329 244.383 242.877 244.541 243.28 244.856C243.684 245.17 243.886 245.595 243.886 246.131C243.886 246.505 243.779 246.821 243.565 247.078C243.351 247.335 243.047 247.514 242.653 247.613Z" fill="black"/>
<path d="M248.54 247.613C248.977 247.707 249.318 247.901 249.563 248.197C249.808 248.492 249.931 248.857 249.931 249.29C249.931 249.955 249.702 250.471 249.245 250.836C248.787 251.2 248.136 251.382 247.293 251.382C247.01 251.382 246.719 251.354 246.419 251.299C246.12 251.243 245.81 251.159 245.491 251.047V250.166C245.744 250.314 246.02 250.425 246.321 250.5C246.623 250.576 246.938 250.613 247.267 250.613C247.838 250.613 248.274 250.5 248.574 250.275C248.873 250.049 249.023 249.721 249.023 249.29C249.023 248.892 248.884 248.581 248.606 248.358C248.327 248.133 247.939 248.021 247.443 248.021H246.657V247.27H247.479C247.927 247.27 248.271 247.181 248.509 247.002C248.747 246.822 248.866 246.564 248.866 246.227C248.866 245.881 248.743 245.615 248.497 245.43C248.252 245.244 247.901 245.151 247.443 245.151C247.192 245.151 246.924 245.178 246.638 245.233C246.351 245.287 246.037 245.371 245.694 245.485V244.672C246.041 244.576 246.365 244.504 246.668 244.455C246.971 244.407 247.256 244.383 247.524 244.383C248.217 244.383 248.765 244.541 249.168 244.856C249.572 245.17 249.774 245.595 249.774 246.131C249.774 246.505 249.667 246.821 249.453 247.078C249.239 247.335 248.935 247.514 248.54 247.613Z" fill="black"/>
<path d="M253.728 247.515C253.318 247.515 252.993 247.655 252.753 247.936C252.514 248.215 252.395 248.599 252.395 249.086C252.395 249.571 252.514 249.955 252.753 250.237C252.993 250.519 253.318 250.659 253.728 250.659C254.137 250.659 254.462 250.519 254.701 250.237C254.94 249.955 255.059 249.571 255.059 249.086C255.059 248.599 254.94 248.215 254.701 247.936C254.462 247.655 254.137 247.515 253.728 247.515ZM255.539 244.653V245.485C255.31 245.377 255.078 245.294 254.845 245.238C254.612 245.18 254.381 245.151 254.151 245.151C253.549 245.151 253.089 245.354 252.77 245.761C252.453 246.168 252.272 246.782 252.227 247.604C252.404 247.342 252.627 247.141 252.895 247.002C253.164 246.862 253.459 246.792 253.781 246.792C254.459 246.792 254.994 246.998 255.387 247.409C255.781 247.82 255.977 248.379 255.977 249.086C255.977 249.779 255.772 250.336 255.363 250.755C254.953 251.173 254.408 251.382 253.728 251.382C252.947 251.382 252.35 251.084 251.938 250.486C251.525 249.887 251.319 249.02 251.319 247.885C251.319 246.819 251.572 245.969 252.078 245.334C252.584 244.7 253.263 244.383 254.115 244.383C254.344 244.383 254.576 244.406 254.809 244.451C255.042 244.496 255.286 244.564 255.539 244.653Z" fill="black"/>
<path d="M258.91 244.505H259.677L257.328 252.11H256.56L258.91 244.505Z" fill="black"/>
<path d="M262.51 246.773C262.065 246.773 261.712 246.947 261.453 247.295C261.194 247.643 261.064 248.12 261.064 248.725C261.064 249.33 261.193 249.807 261.45 250.155C261.709 250.503 262.062 250.677 262.51 250.677C262.953 250.677 263.304 250.502 263.563 250.153C263.822 249.804 263.951 249.327 263.951 248.725C263.951 248.125 263.822 247.65 263.563 247.299C263.304 246.948 262.953 246.773 262.51 246.773ZM262.51 246.069C263.233 246.069 263.801 246.304 264.213 246.775C264.627 247.244 264.833 247.894 264.833 248.725C264.833 249.553 264.627 250.203 264.213 250.675C263.801 251.147 263.233 251.382 262.51 251.382C261.784 251.382 261.215 251.147 260.804 250.675C260.393 250.203 260.188 249.553 260.188 248.725C260.188 247.894 260.393 247.244 260.804 246.775C261.215 246.304 261.784 246.069 262.51 246.069Z" fill="black"/>
<path d="M267.014 250.492V253.175H266.179V246.19H267.014V246.958C267.19 246.657 267.411 246.434 267.677 246.289C267.944 246.142 268.262 246.069 268.632 246.069C269.247 246.069 269.747 246.313 270.13 246.801C270.515 247.288 270.707 247.93 270.707 248.725C270.707 249.52 270.515 250.162 270.13 250.651C269.747 251.139 269.247 251.382 268.632 251.382C268.262 251.382 267.944 251.309 267.677 251.163C267.411 251.016 267.19 250.792 267.014 250.492ZM269.844 248.725C269.844 248.114 269.718 247.634 269.467 247.286C269.215 246.938 268.869 246.764 268.43 246.764C267.989 246.764 267.643 246.938 267.392 247.286C267.14 247.634 267.014 248.114 267.014 248.725C267.014 249.336 267.14 249.816 267.392 250.164C267.643 250.512 267.989 250.686 268.43 250.686C268.869 250.686 269.215 250.512 269.467 250.164C269.718 249.816 269.844 249.336 269.844 248.725Z" fill="black"/>
<path d="M276.413 248.512V248.919H272.591C272.627 249.491 272.8 249.927 273.108 250.227C273.417 250.527 273.847 250.677 274.398 250.677C274.717 250.677 275.026 250.638 275.326 250.56C275.626 250.482 275.924 250.364 276.22 250.207V250.993C275.921 251.12 275.615 251.216 275.302 251.283C274.988 251.349 274.671 251.382 274.349 251.382C273.541 251.382 272.901 251.148 272.43 250.678C271.959 250.208 271.723 249.572 271.723 248.77C271.723 247.942 271.947 247.285 272.394 246.799C272.841 246.312 273.445 246.069 274.204 246.069C274.885 246.069 275.423 246.288 275.819 246.727C276.215 247.164 276.413 247.76 276.413 248.512ZM275.582 248.268C275.576 247.814 275.449 247.452 275.2 247.181C274.952 246.909 274.623 246.773 274.213 246.773C273.749 246.773 273.378 246.904 273.1 247.166C272.821 247.429 272.661 247.798 272.618 248.274L275.582 248.268Z" fill="black"/>
<path d="M281.985 248.196V251.251H281.153V248.223C281.153 247.744 281.06 247.386 280.873 247.149C280.686 246.911 280.406 246.792 280.033 246.792C279.584 246.792 279.23 246.935 278.97 247.221C278.711 247.507 278.581 247.896 278.581 248.391V251.251H277.746V246.19H278.581V246.977C278.781 246.672 279.015 246.445 279.284 246.294C279.554 246.144 279.865 246.069 280.218 246.069C280.799 246.069 281.239 246.249 281.537 246.608C281.835 246.968 281.985 247.497 281.985 248.196Z" fill="black"/>
<path d="M285.942 248.708C285.27 248.708 284.805 248.784 284.545 248.937C284.286 249.091 284.157 249.353 284.157 249.724C284.157 250.019 284.254 250.253 284.449 250.427C284.643 250.599 284.907 250.685 285.241 250.685C285.703 250.685 286.073 250.522 286.351 250.195C286.63 249.869 286.769 249.434 286.769 248.893V248.708H285.942ZM287.601 248.363V251.251H286.769V250.483C286.579 250.79 286.343 251.016 286.059 251.163C285.776 251.309 285.429 251.382 285.02 251.382C284.502 251.382 284.09 251.237 283.784 250.946C283.478 250.655 283.325 250.265 283.325 249.778C283.325 249.209 283.516 248.78 283.896 248.491C284.278 248.202 284.847 248.057 285.602 248.057H286.769V247.975C286.769 247.592 286.643 247.296 286.392 247.087C286.14 246.878 285.787 246.773 285.332 246.773C285.043 246.773 284.761 246.808 284.486 246.877C284.212 246.947 283.949 247.051 283.697 247.189V246.42C284 246.303 284.295 246.215 284.582 246.157C284.868 246.098 285.146 246.069 285.417 246.069C286.15 246.069 286.697 246.259 287.058 246.639C287.42 247.017 287.601 247.592 287.601 248.363Z" fill="black"/>
<path d="M289.312 246.19H290.144V251.251H289.312V246.19ZM289.312 244.22H290.144V245.274H289.312V244.22Z" fill="black"/>
<path d="M172.703 261.594H181.956H191.21" stroke="#0000FF" stroke-opacity="0.7" stroke-width="2" stroke-dasharray="6 2 2 2"/>
<path d="M201.26 264.833L198.685 258.087H199.638L201.776 263.766L203.918 258.087H204.866L202.295 264.833H201.26Z" fill="black"/>
<path d="M205.606 259.773H206.438V264.833H205.606V259.773ZM205.606 257.802H206.438V258.856H205.606V257.802Z" fill="black"/>
<path d="M207.278 258.087H212.985V258.856H210.59V264.833H209.674V258.856H207.278V258.087Z" fill="black"/>
<path d="M212.566 261.928H215.001V262.669H212.566V261.928Z" fill="black"/>
<path d="M219.958 262.307C219.958 261.696 219.832 261.216 219.58 260.868C219.329 260.521 218.983 260.347 218.544 260.347C218.103 260.347 217.757 260.521 217.506 260.868C217.254 261.216 217.128 261.696 217.128 262.307C217.128 262.918 217.254 263.398 217.506 263.746C217.757 264.094 218.103 264.268 218.544 264.268C218.983 264.268 219.329 264.094 219.58 263.746C219.832 263.398 219.958 262.918 219.958 262.307ZM217.128 260.54C217.304 260.24 217.524 260.016 217.79 259.871C218.057 259.724 218.376 259.651 218.746 259.651C219.361 259.651 219.86 259.895 220.244 260.383C220.629 260.87 220.821 261.512 220.821 262.307C220.821 263.102 220.629 263.744 220.244 264.233C219.86 264.721 219.361 264.965 218.746 264.965C218.376 264.965 218.057 264.891 217.79 264.745C217.524 264.598 217.304 264.375 217.128 264.074V264.833H216.292V257.802H217.128V260.54Z" fill="black"/>
<path d="M222.198 259.773H223.029V264.833H222.198V259.773ZM222.198 257.802H223.029V258.856H222.198V257.802Z" fill="black"/>
<path d="M228.098 262.243C228.098 261.641 227.974 261.175 227.725 260.844C227.478 260.512 227.129 260.347 226.68 260.347C226.235 260.347 225.888 260.512 225.639 260.844C225.39 261.175 225.266 261.641 225.266 262.243C225.266 262.843 225.39 263.309 225.639 263.64C225.888 263.972 226.235 264.138 226.68 264.138C227.129 264.138 227.478 263.972 227.725 263.64C227.974 263.309 228.098 262.843 228.098 262.243ZM228.93 264.205C228.93 265.066 228.738 265.707 228.356 266.127C227.974 266.547 227.389 266.757 226.599 266.757C226.307 266.757 226.031 266.736 225.772 266.692C225.513 266.649 225.261 266.582 225.017 266.491V265.683C225.261 265.815 225.502 265.913 225.74 265.975C225.978 266.039 226.221 266.071 226.468 266.071C227.013 266.071 227.421 265.928 227.692 265.644C227.963 265.36 228.098 264.93 228.098 264.354V263.942C227.927 264.241 227.707 264.464 227.439 264.612C227.171 264.759 226.85 264.833 226.476 264.833C225.856 264.833 225.357 264.597 224.977 264.125C224.597 263.651 224.407 263.024 224.407 262.243C224.407 261.461 224.597 260.833 224.977 260.361C225.357 259.888 225.856 259.651 226.476 259.651C226.85 259.651 227.171 259.725 227.439 259.872C227.707 260.02 227.927 260.242 228.098 260.54V259.773H228.93V264.205Z" fill="black"/>
<path d="M235.278 263.87V262.058H233.787V261.308H236.181V264.205C235.83 264.455 235.441 264.644 235.016 264.772C234.592 264.9 234.139 264.965 233.657 264.965C232.602 264.965 231.777 264.657 231.182 264.041C230.587 263.424 230.29 262.566 230.29 261.467C230.29 260.364 230.587 259.505 231.182 258.889C231.777 258.273 232.602 257.965 233.657 257.965C234.096 257.965 234.514 258.02 234.91 258.129C235.307 258.237 235.672 258.396 236.006 258.607V259.579C235.669 259.293 235.31 259.077 234.931 258.933C234.551 258.788 234.152 258.716 233.734 258.716C232.907 258.716 232.287 258.946 231.873 259.407C231.459 259.867 231.252 260.554 231.252 261.467C231.252 262.377 231.459 263.062 231.873 263.523C232.287 263.984 232.907 264.214 233.734 264.214C234.055 264.214 234.343 264.186 234.595 264.13C234.849 264.074 235.076 263.988 235.278 263.87Z" fill="black"/>
<path d="M237.394 261.928H239.828V262.669H237.394V261.928Z" fill="black"/>
<path d="M241.428 264.065H242.919V258.918L241.296 259.243V258.412L242.91 258.087H243.822V264.065H245.313V264.833H241.428V264.065Z" fill="black"/>
<path d="M249.665 258.882L247.36 262.484H249.665V258.882ZM249.425 258.087H250.573V262.484H251.535V263.243H250.573V264.833H249.665V263.243H246.62V262.362L249.425 258.087Z" fill="black"/>
<path d="M254.404 258.087H255.172L252.822 265.692H252.055L254.404 258.087Z" fill="black"/>
<path d="M256.044 257.802H256.875V264.833H256.044V257.802Z" fill="black"/>
<path d="M260.915 262.29C260.243 262.29 259.778 262.366 259.519 262.52C259.259 262.673 259.13 262.935 259.13 263.306C259.13 263.601 259.227 263.835 259.422 264.009C259.616 264.181 259.881 264.268 260.214 264.268C260.676 264.268 261.046 264.104 261.324 263.778C261.603 263.451 261.742 263.017 261.742 262.475V262.29H260.915ZM262.574 261.946V264.833H261.742V264.065C261.552 264.372 261.316 264.598 261.032 264.745C260.749 264.891 260.403 264.965 259.993 264.965C259.475 264.965 259.063 264.819 258.757 264.528C258.451 264.237 258.298 263.847 258.298 263.36C258.298 262.791 258.489 262.362 258.869 262.073C259.251 261.784 259.82 261.639 260.576 261.639H261.742V261.557C261.742 261.174 261.617 260.878 261.365 260.669C261.113 260.46 260.76 260.355 260.305 260.355C260.016 260.355 259.734 260.39 259.459 260.459C259.186 260.529 258.922 260.633 258.67 260.772V260.002C258.974 259.885 259.268 259.797 259.555 259.739C259.841 259.68 260.12 259.651 260.39 259.651C261.123 259.651 261.67 259.841 262.031 260.221C262.393 260.6 262.574 261.175 262.574 261.946Z" fill="black"/>
<path d="M264.285 259.773H265.117V264.833H264.285V259.773ZM264.285 257.802H265.117V258.856H264.285V257.802Z" fill="black"/>
<path d="M268.817 260.355C268.371 260.355 268.019 260.529 267.76 260.877C267.5 261.225 267.371 261.702 267.371 262.307C267.371 262.912 267.499 263.389 267.757 263.737C268.015 264.085 268.368 264.259 268.817 264.259C269.26 264.259 269.611 264.085 269.869 263.736C270.128 263.386 270.258 262.91 270.258 262.307C270.258 261.708 270.128 261.232 269.869 260.882C269.611 260.531 269.26 260.355 268.817 260.355ZM268.817 259.651C269.54 259.651 270.107 259.886 270.52 260.357C270.933 260.826 271.14 261.476 271.14 262.307C271.14 263.135 270.933 263.785 270.52 264.258C270.107 264.729 269.54 264.965 268.817 264.965C268.091 264.965 267.522 264.729 267.111 264.258C266.7 263.785 266.495 263.135 266.495 262.307C266.495 261.476 266.7 260.826 267.111 260.357C267.522 259.886 268.091 259.651 268.817 259.651Z" fill="black"/>
<path d="M276.725 261.778V264.833H275.894V261.805C275.894 261.326 275.8 260.968 275.613 260.731C275.426 260.493 275.146 260.374 274.773 260.374C274.324 260.374 273.97 260.517 273.71 260.803C273.451 261.089 273.322 261.479 273.322 261.973V264.833H272.486V259.773H273.322V260.559C273.521 260.255 273.755 260.027 274.024 259.877C274.294 259.726 274.605 259.651 274.958 259.651C275.539 259.651 275.979 259.831 276.277 260.19C276.576 260.55 276.725 261.079 276.725 261.778Z" fill="black"/>
<path d="M279.286 264.065H282.471V264.833H278.188V264.065C278.535 263.707 279.006 263.226 279.604 262.622C280.203 262.018 280.578 261.628 280.732 261.453C281.024 261.125 281.228 260.847 281.343 260.62C281.46 260.392 281.518 260.169 281.518 259.949C281.518 259.59 281.392 259.298 281.141 259.073C280.889 258.846 280.562 258.733 280.158 258.733C279.871 258.733 279.569 258.783 279.251 258.882C278.934 258.981 278.595 259.132 278.233 259.335V258.412C278.601 258.265 278.944 258.153 279.263 258.078C279.583 258.003 279.875 257.965 280.14 257.965C280.839 257.965 281.396 258.14 281.812 258.49C282.227 258.839 282.435 259.306 282.435 259.89C282.435 260.167 282.383 260.43 282.279 260.679C282.176 260.927 281.987 261.219 281.712 261.557C281.637 261.644 281.397 261.897 280.993 262.314C280.59 262.732 280.021 263.315 279.286 264.065Z" fill="black"/>
<path d="M287.902 262.307C287.902 261.696 287.777 261.216 287.525 260.868C287.274 260.521 286.928 260.347 286.488 260.347C286.048 260.347 285.702 260.521 285.45 260.868C285.199 261.216 285.073 261.696 285.073 262.307C285.073 262.918 285.199 263.398 285.45 263.746C285.702 264.094 286.048 264.268 286.488 264.268C286.928 264.268 287.274 264.094 287.525 263.746C287.777 263.398 287.902 262.918 287.902 262.307ZM285.073 260.54C285.248 260.24 285.469 260.016 285.735 259.871C286.002 259.724 286.321 259.651 286.691 259.651C287.306 259.651 287.805 259.895 288.189 260.383C288.573 260.87 288.766 261.512 288.766 262.307C288.766 263.102 288.573 263.744 288.189 264.233C287.805 264.721 287.306 264.965 286.691 264.965C286.321 264.965 286.002 264.891 285.735 264.745C285.469 264.598 285.248 264.375 285.073 264.074V264.833H284.237V257.802H285.073V260.54Z" fill="black"/>
<path d="M165.005 166.045L165.909 157.365L166.96 157.474L166.153 165.222L170.188 165.642L170.091 166.575L165.005 166.045ZM171.719 166.744L172.623 158.064L173.674 158.173L172.867 165.921L176.902 166.342L176.805 167.274L171.719 166.744ZM180.197 167.782C179.784 167.739 179.418 167.622 179.098 167.431C178.778 167.238 178.535 166.983 178.368 166.666C178.201 166.346 178.14 165.974 178.184 165.55C178.223 165.177 178.328 164.882 178.499 164.666C178.67 164.446 178.886 164.283 179.146 164.176C179.405 164.069 179.687 163.998 179.99 163.964C180.297 163.927 180.603 163.905 180.91 163.897C181.311 163.887 181.635 163.883 181.884 163.883C182.136 163.88 182.321 163.853 182.441 163.799C182.564 163.747 182.633 163.64 182.65 163.479L182.654 163.445C182.697 163.026 182.617 162.69 182.412 162.434C182.21 162.179 181.879 162.027 181.418 161.979C180.941 161.929 180.555 161.995 180.262 162.176C179.969 162.357 179.755 162.56 179.62 162.786L178.706 162.348C178.917 161.97 179.175 161.686 179.481 161.495C179.789 161.301 180.116 161.178 180.462 161.125C180.81 161.07 181.148 161.06 181.476 161.094C181.685 161.116 181.923 161.166 182.189 161.245C182.458 161.322 182.711 161.45 182.95 161.629C183.191 161.808 183.38 162.061 183.518 162.386C183.655 162.712 183.697 163.133 183.643 163.651L183.197 167.94L182.196 167.836L182.288 166.954L182.237 166.949C182.155 167.083 182.026 167.222 181.851 167.367C181.676 167.511 181.451 167.627 181.177 167.712C180.902 167.798 180.575 167.821 180.197 167.782ZM180.443 166.899C180.839 166.94 181.18 166.897 181.467 166.77C181.758 166.643 181.985 166.464 182.149 166.233C182.316 166.001 182.413 165.75 182.442 165.479L182.537 164.564C182.489 164.61 182.391 164.647 182.243 164.674C182.097 164.699 181.93 164.717 181.74 164.729C181.553 164.738 181.371 164.745 181.194 164.749C181.019 164.751 180.878 164.753 180.769 164.756C180.505 164.763 180.257 164.793 180.023 164.846C179.792 164.896 179.599 164.989 179.445 165.124C179.294 165.257 179.206 165.45 179.179 165.705C179.143 166.052 179.244 166.328 179.483 166.533C179.724 166.736 180.045 166.857 180.443 166.899ZM185.812 159.438L187.628 167.013L187.73 167.024L191.068 159.985L192.17 160.1L188.078 168.448L186.993 168.335L184.71 159.323L185.812 159.438ZM193.776 169.196C193.363 169.153 192.997 169.036 192.677 168.846C192.357 168.653 192.114 168.397 191.947 168.08C191.78 167.76 191.719 167.388 191.763 166.964C191.802 166.591 191.907 166.296 192.078 166.08C192.249 165.861 192.465 165.698 192.724 165.59C192.984 165.483 193.266 165.413 193.569 165.379C193.876 165.342 194.182 165.32 194.489 165.311C194.89 165.302 195.214 165.297 195.463 165.297C195.714 165.295 195.9 165.267 196.02 165.214C196.142 165.161 196.212 165.054 196.229 164.893L196.232 164.859C196.276 164.441 196.195 164.104 195.991 163.848C195.789 163.593 195.458 163.442 194.997 163.394C194.519 163.344 194.134 163.409 193.841 163.59C193.548 163.771 193.334 163.974 193.199 164.2L192.285 163.762C192.496 163.384 192.754 163.1 193.059 162.909C193.368 162.716 193.695 162.592 194.041 162.54C194.389 162.485 194.727 162.474 195.055 162.508C195.264 162.53 195.502 162.581 195.767 162.66C196.037 162.736 196.29 162.864 196.529 163.043C196.77 163.223 196.959 163.475 197.097 163.801C197.234 164.126 197.276 164.548 197.222 165.065L196.775 169.354L195.775 169.25L195.867 168.368L195.816 168.363C195.734 168.497 195.605 168.637 195.43 168.781C195.255 168.926 195.03 169.041 194.755 169.127C194.481 169.212 194.154 169.235 193.776 169.196ZM194.022 168.313C194.417 168.355 194.759 168.312 195.046 168.184C195.337 168.058 195.564 167.878 195.728 167.647C195.895 167.416 195.992 167.165 196.021 166.893L196.116 165.978C196.068 166.024 195.97 166.061 195.822 166.089C195.676 166.114 195.509 166.132 195.319 166.143C195.132 166.153 194.95 166.159 194.773 166.164C194.598 166.166 194.457 166.168 194.348 166.171C194.084 166.178 193.836 166.207 193.602 166.26C193.371 166.31 193.178 166.403 193.024 166.539C192.873 166.671 192.785 166.865 192.758 167.119C192.722 167.467 192.823 167.743 193.062 167.948C193.303 168.15 193.623 168.272 194.022 168.313ZM200.387 160.956L200.307 161.719C200.283 161.951 200.215 162.193 200.103 162.447C199.994 162.699 199.846 162.939 199.659 163.168C199.476 163.395 199.262 163.586 199.017 163.744L198.52 163.246C198.725 163.011 198.906 162.763 199.065 162.502C199.226 162.239 199.324 161.951 199.356 161.637L199.437 160.857L200.387 160.956ZM205.021 165.106L204.096 165.267C204.055 165.111 203.987 164.957 203.891 164.804C203.799 164.649 203.664 164.515 203.488 164.402C203.311 164.29 203.077 164.218 202.786 164.188C202.387 164.146 202.046 164.204 201.761 164.36C201.479 164.513 201.324 164.73 201.295 165.009C201.269 165.258 201.339 165.464 201.505 165.627C201.671 165.79 201.941 165.939 202.315 166.075L203.257 166.413C203.824 166.615 204.235 166.877 204.49 167.197C204.746 167.515 204.85 167.902 204.802 168.357C204.763 168.73 204.621 169.052 204.376 169.323C204.133 169.595 203.813 169.796 203.413 169.926C203.014 170.056 202.562 170.094 202.056 170.041C201.392 169.972 200.858 169.771 200.452 169.437C200.047 169.104 199.816 168.654 199.757 168.088L200.732 167.95C200.786 168.31 200.929 168.59 201.162 168.792C201.398 168.993 201.721 169.115 202.131 169.158C202.597 169.207 202.978 169.146 203.272 168.977C203.57 168.805 203.734 168.579 203.763 168.3C203.786 168.074 203.727 167.876 203.585 167.707C203.443 167.535 203.212 167.394 202.892 167.284L201.833 166.916C201.252 166.713 200.837 166.448 200.588 166.122C200.342 165.794 200.243 165.405 200.289 164.956C200.328 164.589 200.465 164.274 200.7 164.013C200.939 163.753 201.246 163.56 201.622 163.437C202 163.313 202.418 163.275 202.876 163.323C203.52 163.39 204.011 163.584 204.349 163.905C204.69 164.226 204.914 164.627 205.021 165.106ZM215.477 164.721L212.392 170.981L211.375 170.875L209.645 164.114L210.73 164.227L211.987 169.602L212.055 169.609L214.392 164.608L215.477 164.721ZM216.12 171.369L216.798 164.859L217.798 164.963L217.12 171.473L216.12 171.369ZM217.419 163.827C217.224 163.807 217.063 163.723 216.936 163.575C216.811 163.428 216.759 163.261 216.778 163.075C216.797 162.888 216.883 162.736 217.036 162.617C217.191 162.499 217.366 162.45 217.561 162.471C217.756 162.491 217.915 162.575 218.04 162.722C218.167 162.869 218.221 163.036 218.202 163.223C218.183 163.409 218.095 163.562 217.94 163.68C217.788 163.798 217.614 163.847 217.419 163.827ZM224.09 167.092L223.165 167.253C223.124 167.097 223.055 166.943 222.96 166.79C222.868 166.635 222.733 166.501 222.556 166.389C222.379 166.276 222.146 166.204 221.855 166.174C221.456 166.133 221.115 166.19 220.83 166.346C220.548 166.499 220.393 166.716 220.364 166.996C220.338 167.244 220.408 167.45 220.574 167.613C220.739 167.776 221.009 167.925 221.384 168.062L222.325 168.4C222.893 168.601 223.304 168.863 223.559 169.184C223.814 169.502 223.918 169.888 223.871 170.343C223.832 170.716 223.69 171.038 223.445 171.31C223.202 171.581 222.881 171.782 222.482 171.912C222.083 172.042 221.631 172.08 221.125 172.028C220.461 171.959 219.926 171.757 219.521 171.424C219.116 171.09 218.884 170.64 218.826 170.074L219.8 169.936C219.854 170.296 219.998 170.576 220.231 170.778C220.467 170.979 220.79 171.102 221.2 171.144C221.666 171.193 222.046 171.133 222.341 170.963C222.639 170.792 222.802 170.566 222.831 170.286C222.855 170.06 222.796 169.862 222.653 169.693C222.511 169.521 222.28 169.38 221.96 169.27L220.902 168.903C220.32 168.699 219.905 168.435 219.656 168.109C219.411 167.78 219.311 167.392 219.358 166.942C219.396 166.575 219.533 166.261 219.769 166C220.008 165.739 220.315 165.547 220.69 165.423C221.069 165.3 221.487 165.262 221.945 165.309C222.589 165.377 223.08 165.57 223.418 165.891C223.759 166.212 223.982 166.613 224.09 167.092ZM225.188 172.314L225.866 165.804L226.866 165.908L226.188 172.418L225.188 172.314ZM226.487 164.771C226.293 164.751 226.131 164.667 226.004 164.52C225.879 164.373 225.827 164.206 225.846 164.019C225.865 163.833 225.951 163.68 226.104 163.562C226.259 163.444 226.434 163.395 226.629 163.415C226.824 163.436 226.984 163.519 227.108 163.667C227.236 163.814 227.29 163.981 227.27 164.168C227.251 164.354 227.163 164.506 227.008 164.624C226.856 164.743 226.682 164.792 226.487 164.771ZM230.651 173.02C230.063 172.959 229.562 172.765 229.147 172.439C228.736 172.114 228.432 171.686 228.235 171.157C228.042 170.629 227.98 170.028 228.05 169.356C228.121 168.678 228.306 168.099 228.604 167.618C228.905 167.138 229.291 166.782 229.761 166.548C230.234 166.314 230.764 166.228 231.352 166.289C231.94 166.351 232.439 166.544 232.851 166.87C233.265 167.196 233.569 167.624 233.762 168.156C233.958 168.687 234.021 169.292 233.95 169.97C233.88 170.643 233.695 171.218 233.394 171.695C233.095 172.172 232.71 172.528 232.237 172.761C231.767 172.995 231.238 173.081 230.651 173.02ZM230.744 172.121C231.191 172.168 231.57 172.092 231.882 171.893C232.194 171.694 232.439 171.415 232.616 171.057C232.793 170.698 232.905 170.301 232.95 169.866C232.995 169.431 232.968 169.018 232.869 168.628C232.77 168.238 232.588 167.912 232.324 167.65C232.06 167.388 231.705 167.234 231.258 167.188C230.812 167.141 230.432 167.219 230.12 167.421C229.808 167.622 229.563 167.904 229.385 168.265C229.207 168.627 229.096 169.025 229.051 169.46C229.005 169.895 229.032 170.306 229.132 170.694C229.232 171.081 229.414 171.404 229.678 171.663C229.942 171.922 230.298 172.075 230.744 172.121ZM236.55 169.539L236.142 173.455L235.142 173.351L235.82 166.84L236.786 166.941L236.68 167.958L236.765 167.967C236.952 167.652 237.211 167.411 237.543 167.243C237.875 167.072 238.287 167.012 238.779 167.063C239.219 167.109 239.596 167.239 239.907 167.455C240.219 167.667 240.448 167.965 240.594 168.349C240.74 168.73 240.784 169.197 240.726 169.751L240.296 173.887L239.295 173.783L239.719 169.714C239.772 169.203 239.681 168.791 239.445 168.478C239.21 168.162 238.86 167.98 238.397 167.931C238.077 167.898 237.785 167.938 237.519 168.05C237.256 168.162 237.038 168.344 236.867 168.595C236.695 168.845 236.589 169.16 236.55 169.539ZM248.196 174.847C247.568 174.782 247.042 174.587 246.616 174.263C246.193 173.936 245.884 173.51 245.691 172.984C245.5 172.456 245.439 171.858 245.509 171.192C245.578 170.525 245.761 169.95 246.057 169.466C246.356 168.98 246.74 168.618 247.207 168.378C247.678 168.136 248.207 168.045 248.795 168.106C249.134 168.142 249.463 168.233 249.782 168.38C250.101 168.528 250.383 168.743 250.627 169.025C250.872 169.305 251.054 169.661 251.172 170.093C251.289 170.525 251.317 171.045 251.253 171.653L251.209 172.077L246.191 171.554L246.281 170.689L250.282 171.106C250.32 170.739 250.281 170.403 250.164 170.1C250.05 169.797 249.867 169.548 249.616 169.353C249.368 169.159 249.063 169.042 248.701 169.005C248.303 168.963 247.948 169.026 247.636 169.194C247.328 169.359 247.08 169.59 246.891 169.887C246.703 170.185 246.591 170.513 246.553 170.872L246.493 171.448C246.442 171.94 246.483 172.366 246.617 172.725C246.754 173.082 246.966 173.366 247.253 173.575C247.54 173.782 247.885 173.907 248.289 173.949C248.552 173.976 248.793 173.964 249.013 173.913C249.236 173.859 249.432 173.765 249.603 173.632C249.775 173.495 249.914 173.318 250.023 173.101L250.961 173.473C250.825 173.79 250.624 174.061 250.358 174.284C250.092 174.505 249.775 174.666 249.408 174.768C249.041 174.867 248.636 174.893 248.196 174.847ZM253.835 171.339L253.427 175.255L252.427 175.151L253.105 168.641L254.072 168.742L253.966 169.759L254.05 169.768C254.237 169.453 254.497 169.211 254.828 169.043C255.16 168.872 255.572 168.812 256.064 168.863C256.505 168.909 256.881 169.04 257.193 169.255C257.505 169.468 257.734 169.766 257.879 170.149C258.025 170.53 258.07 170.997 258.012 171.551L257.581 175.688L256.581 175.584L257.005 171.515C257.058 171.003 256.967 170.591 256.731 170.278C256.495 169.962 256.146 169.78 255.682 169.732C255.363 169.699 255.07 169.738 254.804 169.85C254.541 169.963 254.324 170.145 254.152 170.395C253.98 170.646 253.875 170.96 253.835 171.339ZM262.039 176.29C261.429 176.226 260.919 176.027 260.508 175.693C260.097 175.359 259.799 174.927 259.615 174.396C259.43 173.866 259.371 173.275 259.439 172.625C259.508 171.964 259.69 171.393 259.986 170.913C260.285 170.43 260.668 170.069 261.136 169.829C261.607 169.586 262.136 169.496 262.724 169.557C263.181 169.605 263.585 169.733 263.935 169.94C264.284 170.148 264.561 170.417 264.763 170.746C264.966 171.076 265.075 171.447 265.089 171.86L264.088 171.756C264.043 171.451 263.901 171.171 263.662 170.914C263.426 170.656 263.088 170.503 262.647 170.457C262.257 170.417 261.905 170.483 261.589 170.656C261.278 170.826 261.02 171.086 260.818 171.437C260.619 171.784 260.494 172.204 260.443 172.696C260.391 173.199 260.424 173.645 260.543 174.034C260.666 174.424 260.862 174.737 261.131 174.974C261.403 175.211 261.737 175.35 262.133 175.391C262.393 175.418 262.634 175.397 262.855 175.329C263.076 175.261 263.269 175.149 263.434 174.995C263.598 174.841 263.724 174.648 263.811 174.418L264.811 174.522C264.715 174.9 264.539 175.232 264.284 175.516C264.031 175.799 263.714 176.011 263.33 176.154C262.95 176.294 262.52 176.34 262.039 176.29ZM268.707 176.984C268.119 176.923 267.618 176.729 267.203 176.403C266.792 176.078 266.488 175.65 266.291 175.121C266.098 174.593 266.036 173.992 266.106 173.32C266.177 172.642 266.361 172.063 266.66 171.582C266.961 171.103 267.347 170.746 267.817 170.512C268.29 170.278 268.82 170.192 269.408 170.253C269.995 170.315 270.495 170.508 270.907 170.834C271.321 171.16 271.625 171.588 271.818 172.12C272.014 172.651 272.077 173.256 272.006 173.934C271.936 174.607 271.751 175.182 271.449 175.659C271.151 176.136 270.766 176.492 270.293 176.725C269.823 176.959 269.294 177.045 268.707 176.984ZM268.8 176.085C269.247 176.132 269.626 176.056 269.938 175.857C270.25 175.658 270.495 175.379 270.672 175.021C270.849 174.662 270.961 174.265 271.006 173.83C271.051 173.395 271.024 172.982 270.925 172.592C270.826 172.202 270.644 171.876 270.38 171.614C270.116 171.353 269.76 171.198 269.314 171.152C268.868 171.105 268.488 171.183 268.176 171.385C267.863 171.586 267.618 171.868 267.441 172.229C267.263 172.591 267.152 172.989 267.106 173.424C267.061 173.859 267.088 174.27 267.188 174.658C267.288 175.045 267.47 175.368 267.734 175.627C267.998 175.886 268.354 176.039 268.8 176.085ZM275.642 177.706C275.099 177.65 274.634 177.463 274.248 177.146C273.861 176.825 273.577 176.402 273.395 175.874C273.213 175.344 273.158 174.734 273.23 174.045C273.301 173.361 273.48 172.78 273.767 172.301C274.054 171.823 274.421 171.468 274.867 171.238C275.314 171.007 275.812 170.92 276.36 170.978C276.784 171.022 277.111 171.127 277.342 171.294C277.576 171.458 277.749 171.636 277.861 171.828C277.975 172.017 278.063 172.172 278.125 172.292L278.21 172.301L278.544 169.097L279.544 169.201L278.64 177.882L277.673 177.781L277.777 176.781L277.659 176.768C277.573 176.879 277.453 177.018 277.298 177.185C277.144 177.349 276.934 177.488 276.668 177.603C276.402 177.716 276.06 177.75 275.642 177.706ZM275.871 176.822C276.272 176.864 276.622 176.795 276.921 176.614C277.22 176.431 277.461 176.161 277.644 175.803C277.827 175.442 277.944 175.016 277.995 174.524C278.046 174.038 278.02 173.605 277.916 173.226C277.813 172.844 277.634 172.537 277.378 172.305C277.123 172.07 276.792 171.931 276.385 171.888C275.961 171.844 275.596 171.916 275.291 172.104C274.989 172.29 274.748 172.561 274.568 172.916C274.392 173.269 274.279 173.674 274.232 174.132C274.183 174.595 274.21 175.024 274.312 175.417C274.417 175.808 274.598 176.13 274.854 176.382C275.114 176.632 275.453 176.778 275.871 176.822ZM283.326 178.507C282.699 178.441 282.172 178.247 281.746 177.922C281.323 177.596 281.015 177.169 280.821 176.644C280.63 176.115 280.57 175.518 280.639 174.851C280.709 174.184 280.891 173.609 281.187 173.126C281.486 172.64 281.87 172.277 282.337 172.037C282.808 171.795 283.338 171.704 283.925 171.766C284.264 171.801 284.593 171.892 284.912 172.04C285.231 172.187 285.513 172.402 285.758 172.685C286.003 172.965 286.184 173.32 286.302 173.753C286.42 174.185 286.447 174.705 286.384 175.312L286.339 175.736L281.321 175.213L281.411 174.349L285.412 174.765C285.451 174.398 285.411 174.063 285.294 173.759C285.18 173.456 284.998 173.207 284.747 173.012C284.498 172.818 284.193 172.702 283.832 172.664C283.433 172.623 283.078 172.686 282.767 172.853C282.458 173.018 282.21 173.249 282.022 173.547C281.834 173.844 281.721 174.172 281.684 174.531L281.623 175.108C281.572 175.599 281.614 176.025 281.748 176.384C281.885 176.741 282.096 177.025 282.383 177.235C282.67 177.442 283.015 177.566 283.42 177.608C283.682 177.636 283.923 177.624 284.143 177.572C284.366 177.518 284.563 177.425 284.734 177.291C284.905 177.155 285.045 176.978 285.153 176.761L286.091 177.132C285.955 177.45 285.754 177.72 285.488 177.944C285.222 178.165 284.906 178.326 284.538 178.427C284.171 178.526 283.767 178.553 283.326 178.507ZM287.557 178.81L288.235 172.3L289.202 172.401L289.099 173.384L289.167 173.391C289.319 173.082 289.561 172.843 289.893 172.674C290.225 172.506 290.586 172.442 290.976 172.483C291.049 172.49 291.141 172.501 291.251 172.516C291.361 172.53 291.443 172.543 291.499 172.555L291.393 173.572C291.36 173.56 291.284 173.539 291.164 173.509C291.048 173.477 290.923 173.454 290.79 173.44C290.474 173.407 290.184 173.444 289.922 173.551C289.662 173.656 289.449 173.816 289.28 174.033C289.115 174.247 289.017 174.501 288.987 174.795L288.558 178.915L287.557 178.81Z" fill="black"/>
<path d="M143.517 165.369C143.631 165.558 143.876 165.619 144.066 165.506L147.153 163.654C147.342 163.54 147.404 163.294 147.29 163.105C147.176 162.915 146.931 162.854 146.741 162.968L143.997 164.614L142.351 161.87C142.237 161.681 141.991 161.619 141.802 161.733C141.613 161.846 141.551 162.092 141.665 162.282L143.517 165.369ZM160.932 160.77C158.483 160.32 156.248 159.831 154.36 159.498C152.452 159.162 150.782 158.961 149.348 159.079C147.903 159.199 146.675 159.646 145.682 160.62C144.697 161.585 143.981 163.029 143.472 165.066L144.248 165.26C144.739 163.296 145.405 162.012 146.242 161.192C147.069 160.38 148.103 159.985 149.414 159.877C150.738 159.767 152.322 159.951 154.221 160.286C156.14 160.625 158.266 161.093 160.788 161.557L160.932 160.77Z" fill="black"/>
</g>
<defs>
<clipPath id="clip0_2128_91">
<rect width="316.182" height="296.42" fill="white"/>
</clipPath>
</defs>
</svg>
